CommissionerLoud-BoldItalic.ufo
<glyph name="numbersign" format="2">
  <advance width="699.2894736842105"/>
  <unicode hex="0023"/>
  <outline>
    <contour>
      <point x="-13.105263157894738" y="123.60526315789474" type="line"/>
      <point x="56.736842105263165" y="125.92105263157895"/>
      <point x="129.65789473684208" y="128.23684210526315"/>
      <point x="179.78947368421052" y="129.55263157894737" type="curve"/>
      <point x="419.2631578947368" y="129.55263157894737" type="line"/>
      <point x="468.0789473684211" y="128.23684210526315"/>
      <point x="541.0" y="125.92105263157895"/>
      <point x="609.5263157894738" y="123.60526315789474" type="curve"/>
      <point x="635.921052631579" y="250.3421052631579" type="line"/>
      <point x="566.7368421052631" y="248.0263157894737"/>
      <point x="493.15789473684214" y="245.71052631578948"/>
      <point x="443.6842105263158" y="244.39473684210526" type="curve"/>
      <point x="204.21052631578948" y="244.39473684210526" type="line"/>
      <point x="154.73684210526315" y="245.71052631578948"/>
      <point x="82.47368421052633" y="248.0263157894737"/>
      <point x="13.289473684210527" y="250.3421052631579" type="curve"/>
    </contour>
    <contour>
      <point x="38.81578947368421" y="0.0" type="curve"/>
      <point x="183.05263157894737" y="0.0" type="line"/>
      <point x="206.44736842105266" y="68.31578947368422"/>
      <point x="227.1578947368421" y="130.92105263157896"/>
      <point x="256.2368421052632" y="215.57894736842104" type="curve"/>
      <point x="346.6578947368421" y="447.5263157894737" type="line"/>
      <point x="385.3157894736843" y="538.4736842105262"/>
      <point x="408.3421052631579" y="592.5263157894736"/>
      <point x="440.0" y="666.1578947368421" type="curve"/>
      <point x="299.05263157894734" y="666.1578947368421" type="line"/>
      <point x="273.6842105263158" y="591.5789473684212"/>
      <point x="254.60526315789474" y="536.1842105263158"/>
      <point x="224.8421052631579" y="447.52631578947364" type="curve"/>
      <point x="134.42105263157893" y="215.57894736842104" type="line"/>
      <point x="96.44736842105264" y="129.94736842105263"/>
      <point x="67.8157894736842" y="65.6842105263158"/>
    </contour>
    <contour>
      <point x="97.68421052631578" y="412.81578947368416" type="line"/>
      <point x="167.5263157894737" y="415.13157894736844"/>
      <point x="241.10526315789474" y="417.4473684210526"/>
      <point x="290.57894736842104" y="418.7631578947368" type="curve"/>
      <point x="530.0526315789474" y="418.7631578947368" type="line"/>
      <point x="579.5263157894736" y="417.4473684210526"/>
      <point x="651.7894736842106" y="415.13157894736844"/>
      <point x="720.3157894736843" y="412.81578947368416" type="curve"/>
      <point x="747.3684210526316" y="539.5526315789474" type="line"/>
      <point x="677.5263157894738" y="537.2368421052632"/>
      <point x="604.6052631578947" y="534.921052631579"/>
      <point x="554.4736842105264" y="533.6052631578948" type="curve"/>
      <point x="315.0" y="533.6052631578948" type="line"/>
      <point x="266.1842105263157" y="534.921052631579"/>
      <point x="193.26315789473685" y="537.2368421052632"/>
      <point x="124.73684210526315" y="539.5526315789474" type="curve"/>
    </contour>
    <contour>
      <point x="288.5526315789474" y="0.0" type="curve"/>
      <point x="432.7894736842105" y="0.0" type="line"/>
      <point x="456.1842105263158" y="68.31578947368422"/>
      <point x="476.89473684210526" y="130.92105263157896"/>
      <point x="505.9736842105263" y="215.57894736842104" type="curve"/>
      <point x="596.3947368421053" y="447.5263157894737" type="line"/>
      <point x="635.0526315789473" y="538.4736842105262"/>
      <point x="658.0789473684212" y="592.5263157894736"/>
      <point x="689.7368421052631" y="666.1578947368421" type="curve"/>
      <point x="548.7894736842106" y="666.1578947368421" type="line"/>
      <point x="523.421052631579" y="591.5789473684212"/>
      <point x="504.3421052631579" y="536.1842105263158"/>
      <point x="474.57894736842104" y="447.52631578947364" type="curve"/>
      <point x="384.15789473684214" y="215.57894736842104" type="line"/>
      <point x="346.1842105263157" y="129.94736842105263"/>
      <point x="317.5526315789474" y="65.6842105263158"/>
    </contour>
  </outline>
</glyph>
<glyph name="ampersand" format="2">
  <advance width="773.5533980582525"/>
  <unicode hex="0026"/>
  <outline>
    <contour>
      <point x="513.1747572815536" y="0.0" type="curve"/>
      <point x="718.8252427184465" y="0.0" type="line"/>
      <point x="659.8737864077669" y="74.16504854368932"/>
      <point x="603.8155339805825" y="144.4368932038835"/>
      <point x="547.1262135922331" y="215.70873786407768" type="curve"/>
      <point x="383.6116504854369" y="437.0194174757281" type="line" smooth="yes"/>
      <point x="348.14563106796123" y="484.747572815534"/>
      <point x="338.7281553398059" y="523.3203883495147"/>
      <point x="348.252427184466" y="565.9417475728155" type="curve" smooth="yes"/>
      <point x="357.03883495145635" y="604.3495145631068"/>
      <point x="383.1359223300971" y="621.873786407767"/>
      <point x="421.9126213592233" y="623.873786407767" type="curve"/>
      <point x="462.32038834951453" y="620.5048543689321"/>
      <point x="489.94174757281553" y="591.9805825242719"/>
      <point x="482.15533980582524" y="550.3106796116505" type="curve" smooth="yes"/>
      <point x="476.3689320388349" y="521.271844660194"/>
      <point x="423.9126213592233" y="481.48543689320377"/>
      <point x="369.61165048543694" y="444.28155339805824" type="curve"/>
      <point x="431.62135922330094" y="361.10679611650477" type="line"/>
      <point x="503.1941747572815" y="412.7378640776698"/>
      <point x="600.1359223300971" y="476.58252427184465"/>
      <point x="612.7669902912621" y="538.8932038834952" type="curve" smooth="yes"/>
      <point x="634.873786407767" y="644.2135922330096"/>
      <point x="545.9708737864078" y="727.7378640776699"/>
      <point x="417.11650485436894" y="727.7378640776699" type="curve" smooth="yes"/>
      <point x="314.2135922330097" y="727.7378640776699"/>
      <point x="221.78640776699032" y="686.0582524271845"/>
      <point x="199.94174757281556" y="578.7864077669904" type="curve" smooth="yes"/>
      <point x="184.3106796116505" y="502.7378640776699"/>
      <point x="210.62135922330097" y="427.7864077669903"/>
      <point x="253.30097087378638" y="369.36893203883494" type="curve" smooth="yes"/>
      <point x="424.5533980582524" y="136.0" type="line"/>
      <point x="453.3398058252427" y="91.63106796116506"/>
      <point x="484.3883495145631" y="44.36893203883495"/>
    </contour>
    <contour>
      <point x="227.88349514563103" y="-12.106796116504855" type="curve" smooth="yes"/>
      <point x="284.135922330097" y="-12.106796116504855"/>
      <point x="364.55339805825247" y="35.77669902912622"/>
      <point x="446.9805825242719" y="82.71844660194174" type="curve"/>
      <point x="462.08737864077665" y="82.71844660194174" type="line"/>
      <point x="458.3009708737864" y="108.51456310679612" type="line"/>
      <point x="399.0776699029126" y="187.21359223300968" type="line"/>
      <point x="348.45631067961165" y="151.3300970873786"/>
      <point x="281.74757281553406" y="112.3495145631068"/>
      <point x="264.17475728155335" y="112.3495145631068" type="curve"/>
      <point x="193.93203883495147" y="115.71844660194175"/>
      <point x="167.46601941747574" y="164.07766990291262"/>
      <point x="179.25242718446603" y="217.16504854368932" type="curve" smooth="yes"/>
      <point x="190.66990291262138" y="269.0388349514563"/>
      <point x="228.38834951456312" y="301.9805825242719"/>
      <point x="290.6310679611651" y="329.3980582524272" type="curve"/>
      <point x="238.0388349514563" y="417.8932038834952" type="line"/>
      <point x="140.51456310679612" y="384.15533980582524"/>
      <point x="51.25242718446601" y="327.52427184466023"/>
      <point x="27.62135922330096" y="214.47572815533982" type="curve" smooth="yes"/>
      <point x="3.514563106796108" y="99.7864077669903"/>
      <point x="72.19417475728154" y="-12.106796116504855"/>
    </contour>
    <contour>
      <point x="565.9223300970874" y="166.72815533980582" type="line"/>
      <point x="630.242718446602" y="223.88349514563106"/>
      <point x="694.8252427184466" y="281.03883495145635"/>
      <point x="759.5145631067962" y="338.56310679611653" type="curve"/>
      <point x="632.4271844660193" y="433.33009708737865" type="line"/>
      <point x="586.5339805825244" y="374.06796116504864"/>
      <point x="541.9029126213593" y="316.69902912621365"/>
      <point x="494.1165048543689" y="254.91262135922332" type="curve"/>
    </contour>
  </outline>
</glyph>
<glyph name="quotesingle" format="2">
  <advance width="228.39473684210526"/>
  <unicode hex="0027"/>
  <outline>
    <contour>
      <point x="79.10526315789474" y="395.60526315789474" type="curve"/>
      <point x="193.60526315789474" y="396.60526315789474" type="line"/>
      <point x="226.10526315789474" y="513.9473684210526"/>
      <point x="260.97368421052636" y="629.3157894736843"/>
      <point x="295.52631578947364" y="744.6578947368421" type="curve"/>
      <point x="126.73684210526314" y="741.0263157894736" type="line"/>
      <point x="112.10526315789471" y="627.6578947368421"/>
      <point x="97.13157894736844" y="513.9473684210526"/>
    </contour>
  </outline>
</glyph>
<glyph name="parenleft" format="2">
  <advance width="414.6578947368421"/>
  <unicode hex="0028"/>
  <outline>
    <contour>
      <point x="197.1842105263158" y="-134.3684210526316" type="curve"/>
      <point x="323.97368421052636" y="-90.47368421052632" type="line"/>
      <point x="250.92105263157893" y="53.31578947368421"/>
      <point x="189.3157894736842" y="181.00000000000003"/>
      <point x="220.68421052631578" y="333.10526315789474" type="curve" smooth="yes"/>
      <point x="252.05263157894734" y="485.8684210526317"/>
      <point x="370.3684210526317" y="600.4473684210526"/>
      <point x="497.0" y="732.4736842105264" type="curve"/>
      <point x="374.1842105263158" y="781.0526315789474" type="line"/>
      <point x="260.4210526315789" y="673.9736842105264"/>
      <point x="105.28947368421052" y="546.8684210526314"/>
      <point x="65.34210526315789" y="351.89473684210526" type="curve" smooth="yes"/>
      <point x="25.39473684210526" y="157.26315789473685"/>
      <point x="130.44736842105263" y="-10.605263157894738"/>
    </contour>
  </outline>
</glyph>
<glyph name="asterisk" format="2">
  <advance width="494.1842105263158"/>
  <unicode hex="002A"/>
  <outline>
    <contour>
      <point x="436.65789473684214" y="320.0526315789473" type="curve"/>
      <point x="509.6842105263158" y="400.0" type="line"/>
      <point x="448.1052631578947" y="446.05263157894734"/>
      <point x="384.8684210526316" y="491.7894736842105"/>
      <point x="323.2894736842105" y="537.8421052631578" type="curve"/>
      <point x="271.9473684210527" y="596.1315789473684"/>
      <point x="220.57894736842107" y="655.0526315789473"/>
      <point x="169.89473684210526" y="712.6578947368421" type="curve"/>
      <point x="97.21052631578947" y="632.0526315789473" type="line"/>
      <point x="158.4473684210526" y="585.3421052631579"/>
      <point x="220.36842105263156" y="540.2631578947368"/>
      <point x="283.2631578947368" y="493.2105263157894" type="curve"/>
      <point x="334.2894736842106" y="435.6052631578948"/>
      <point x="385.97368421052636" y="377.0"/>
    </contour>
    <contour>
      <point x="101.73684210526315" y="390.78947368421046" type="line"/>
      <point x="172.0526315789474" y="423.0526315789474"/>
      <point x="242.05263157894737" y="455.3157894736842"/>
      <point x="312.7105263157895" y="487.9210526315789" type="curve"/>
      <point x="387.65789473684214" y="504.6842105263157"/>
      <point x="463.2631578947368" y="521.7631578947369"/>
      <point x="538.2105263157895" y="538.5263157894738" type="curve"/>
      <point x="504.15789473684214" y="641.9210526315788" type="line"/>
      <point x="434.5" y="609.657894736842"/>
      <point x="364.5" y="577.3947368421052"/>
      <point x="294.1842105263158" y="545.1315789473684" type="curve"/>
      <point x="218.89473684210526" y="527.3684210526316"/>
      <point x="142.6315789473684" y="510.9473684210526"/>
      <point x="67.6842105263158" y="494.1842105263158" type="curve"/>
    </contour>
    <contour>
      <point x="201.6052631578947" y="301.99999999999994" type="curve"/>
      <point x="308.3157894736842" y="278.8684210526315" type="line"/>
      <point x="317.05263157894734" y="356.1578947368421"/>
      <point x="324.4736842105263" y="432.7894736842105"/>
      <point x="332.86842105263156" y="510.4210526315789" type="curve"/>
      <point x="356.7894736842105" y="583.7368421052631"/>
      <point x="380.36842105263156" y="657.0526315789473"/>
      <point x="404.2894736842106" y="730.7105263157895" type="curve"/>
      <point x="298.2368421052632" y="753.1842105263157" type="line"/>
      <point x="289.5" y="676.5526315789473"/>
      <point x="282.07894736842104" y="599.2631578947369"/>
      <point x="273.6842105263158" y="522.6578947368421" type="curve"/>
      <point x="249.76315789473682" y="448.6578947368421"/>
      <point x="225.52631578947364" y="375.6578947368421"/>
    </contour>
  </outline>
</glyph>
<glyph name="plus" format="2">
  <advance width="599.7368421052631"/>
  <unicode hex="002B"/>
  <outline>
    <contour>
      <point x="181.36842105263156" y="51.18421052631579" type="curve"/>
      <point x="334.13157894736844" y="51.18421052631579" type="line"/>
      <point x="346.78947368421046" y="121.05263157894737"/>
      <point x="359.7894736842105" y="193.28947368421052"/>
      <point x="368.7631578947369" y="242.76315789473685" type="curve"/>
      <point x="394.8157894736842" y="365.6578947368421" type="line"/>
      <point x="407.421052631579" y="416.44736842105266"/>
      <point x="425.05263157894734" y="488.0526315789474"/>
      <point x="442.00000000000006" y="557.2368421052631" type="curve"/>
      <point x="289.2368421052631" y="557.2368421052631" type="line"/>
      <point x="276.921052631579" y="489.71052631578954"/>
      <point x="262.92105263157896" y="414.13157894736844"/>
      <point x="253.9473684210526" y="365.6578947368421" type="curve"/>
      <point x="227.89473684210523" y="242.76315789473685" type="line"/>
      <point x="216.2894736842105" y="193.6315789473684"/>
      <point x="198.65789473684205" y="120.71052631578948"/>
    </contour>
    <contour>
      <point x="46.07894736842105" y="230.6315789473684" type="line"/>
      <point x="115.92105263157895" y="232.9473684210526"/>
      <point x="189.5" y="235.26315789473682"/>
      <point x="238.9736842105263" y="236.57894736842104" type="curve"/>
      <point x="355.0263157894737" y="236.57894736842104" type="line"/>
      <point x="404.5" y="235.26315789473682"/>
      <point x="476.7631578947369" y="232.9473684210526"/>
      <point x="545.2894736842106" y="230.6315789473684" type="curve"/>
      <point x="576.6315789473684" y="377.7894736842106" type="line"/>
      <point x="507.4473684210526" y="375.4736842105263"/>
      <point x="433.52631578947364" y="373.15789473684214"/>
      <point x="384.05263157894734" y="371.8421052631579" type="curve"/>
      <point x="268.0" y="371.8421052631579" type="line"/>
      <point x="218.5263157894737" y="373.15789473684214"/>
      <point x="146.60526315789474" y="375.4736842105263"/>
      <point x="77.42105263157895" y="377.7894736842106" type="curve"/>
    </contour>
  </outline>
</glyph>
<glyph name="comma" format="2">
  <advance width="254.13157894736844"/>
  <unicode hex="002C"/>
  <outline>
    <contour>
      <point x="-59.236842105263165" y="-157.0" type="curve"/>
      <point x="22.34210526315789" y="-155.3421052631579" type="line"/>
      <point x="65.65789473684211" y="-105.4736842105263"/>
      <point x="166.47368421052633" y="9.605263157894738"/>
      <point x="176.76315789473685" y="63.026315789473685" type="curve" smooth="yes"/>
      <point x="187.0263157894737" y="117.63157894736842"/>
      <point x="173.76315789473685" y="161.60526315789477"/>
      <point x="118.8684210526316" y="174.1578947368421" type="curve"/>
      <point x="34.0" y="167.89473684210526" type="line"/>
      <point x="29.999999999999996" y="123.5"/>
      <point x="25.684210526315788" y="79.10526315789474"/>
      <point x="21.02631578947368" y="38.65789473684211" type="curve"/>
      <point x="-2.3157894736842115" y="-22.28947368421052"/>
      <point x="-34.21052631578948" y="-98.65789473684211"/>
    </contour>
  </outline>
</glyph>
<glyph name="hyphen" format="2">
  <advance width="426.57894736842104"/>
  <unicode hex="002D"/>
  <outline>
    <contour>
      <point x="45.42105263157895" y="227.3421052631579" type="line"/>
      <point x="104.3157894736842" y="229.65789473684208"/>
      <point x="166.92105263157896" y="231.9736842105263"/>
      <point x="209.10526315789474" y="233.28947368421052" type="curve"/>
      <point x="251.28947368421055" y="231.9736842105263"/>
      <point x="312.5789473684211" y="229.65789473684208"/>
      <point x="371.47368421052636" y="227.3421052631579" type="curve"/>
      <point x="402.1578947368421" y="374.50000000000006" type="line"/>
      <point x="342.60526315789474" y="372.1842105263158"/>
      <point x="280.3157894736842" y="369.8684210526316"/>
      <point x="237.4736842105263" y="368.5526315789474" type="curve"/>
      <point x="195.94736842105263" y="369.8684210526316"/>
      <point x="134.3421052631579" y="372.1842105263158"/>
      <point x="76.10526315789474" y="374.50000000000006" type="curve"/>
    </contour>
  </outline>
</glyph>
<glyph name="period" format="2">
  <advance width="267.2894736842105"/>
  <unicode hex="002E"/>
  <outline>
    <contour>
      <point x="90.57894736842107" y="-13.605263157894736" type="curve" smooth="yes"/>
      <point x="150.47368421052633" y="-13.605263157894736"/>
      <point x="181.921052631579" y="14.500000000000004"/>
      <point x="193.5263157894737" y="71.84210526315789" type="curve" smooth="yes"/>
      <point x="203.13157894736844" y="123.86842105263158"/>
      <point x="173.94736842105263" y="171.78947368421052"/>
      <point x="105.47368421052633" y="171.78947368421052" type="curve" smooth="yes"/>
      <point x="39.342105263157904" y="171.78947368421052"/>
      <point x="14.13157894736842" y="144.6842105263158"/>
      <point x="5.184210526315787" y="98.94736842105263" type="curve" smooth="yes"/>
      <point x="-7.078947368421055" y="38.0"/>
      <point x="23.73684210526316" y="-13.605263157894736"/>
    </contour>
  </outline>
</glyph>
<glyph name="slash" format="2">
  <advance width="468.92105263157896"/>
  <unicode hex="002F"/>
  <outline>
    <contour>
      <point x="-42.28947368421053" y="0.0" type="curve"/>
      <point x="138.5" y="0.0" type="line"/>
      <point x="178.60526315789477" y="74.0"/>
      <point x="211.71052631578945" y="136.0"/>
      <point x="261.1842105263158" y="228.0" type="curve"/>
      <point x="405.10526315789474" y="474.0" type="line"/>
      <point x="464.15789473684214" y="568.3421052631579"/>
      <point x="504.5263157894737" y="632.3421052631579"/>
      <point x="555.8947368421053" y="713.0" type="curve"/>
      <point x="375.7631578947369" y="713.0" type="line"/>
      <point x="334.31578947368416" y="636.3421052631579"/>
      <point x="300.2105263157894" y="572.0"/>
      <point x="248.39473684210526" y="476.6578947368421" type="curve"/>
      <point x="102.81578947368422" y="228.0" type="line"/>
      <point x="44.76315789473683" y="137.97368421052633"/>
      <point x="5.394736842105266" y="74.97368421052632"/>
    </contour>
  </outline>
</glyph>
<glyph name="one" format="2">
  <advance width="461.9473684210526"/>
  <unicode hex="0031"/>
  <outline>
    <contour>
      <point x="97.81578947368422" y="420.02631578947364" type="line"/>
      <point x="182.44736842105263" y="459.7368421052632"/>
      <point x="266.3947368421053" y="499.10526315789474"/>
      <point x="352.34210526315786" y="539.4736842105264" type="curve"/>
      <point x="388.9473684210526" y="692.578947368421" type="line"/>
      <point x="286.84210526315786" y="651.5526315789474"/>
      <point x="186.71052631578948" y="611.5263157894736"/>
      <point x="85.26315789473685" y="570.5" type="curve"/>
    </contour>
    <contour>
      <point x="146.02631578947367" y="0.0" type="curve"/>
      <point x="333.0" y="0.0" type="line"/>
      <point x="344.05263157894746" y="71.05263157894737"/>
      <point x="353.4473684210527" y="132.76315789473685"/>
      <point x="366.15789473684214" y="215.73684210526315" type="curve"/>
      <point x="415.47368421052636" y="448.3157894736842" type="line"/>
      <point x="436.44736842105266" y="529.3684210526316"/>
      <point x="457.7368421052632" y="608.7105263157895"/>
      <point x="478.3421052631579" y="687.9473684210526" type="curve"/>
      <point x="388.9473684210526" y="692.578947368421" type="line"/>
      <point x="283.10526315789474" y="621.2894736842105" type="line"/>
      <point x="270.73684210526324" y="552.5526315789474"/>
      <point x="258.3421052631579" y="481.05263157894734"/>
      <point x="246.6578947368421" y="416.07894736842104" type="curve"/>
      <point x="204.57894736842104" y="215.73684210526315" type="line"/>
      <point x="181.6315789473684" y="132.76315789473685"/>
      <point x="165.6578947368421" y="71.05263157894737"/>
    </contour>
  </outline>
</glyph>
<glyph name="three" format="2">
  <advance width="584.6407766990292"/>
  <unicode hex="0033"/>
  <outline>
    <contour>
      <point x="243.7378640776699" y="-13.475728155339805" type="curve" smooth="yes"/>
      <point x="424.06796116504853" y="-13.475728155339805"/>
      <point x="504.1747572815534" y="47.15533980582523"/>
      <point x="528.9126213592233" y="164.5825242718447" type="curve" smooth="yes"/>
      <point x="551.5436893203884" y="271.3689320388349"/>
      <point x="485.3398058252427" y="333.41747572815535"/>
      <point x="424.33980582524276" y="351.52427184466023" type="curve"/>
      <point x="426.70873786407765" y="364.368932038835" type="line"/>
      <point x="500.12621359223306" y="378.0"/>
      <point x="560.6504854368932" y="411.6796116504854"/>
      <point x="578.6504854368932" y="497.04854368932047" type="curve" smooth="yes"/>
      <point x="602.0194174757281" y="608.1553398058252"/>
      <point x="514.6990291262135" y="702.8446601941748"/>
      <point x="357.2621359223301" y="702.8446601941748" type="curve" smooth="yes"/>
      <point x="312.5242718446602" y="702.8446601941748"/>
      <point x="201.00000000000003" y="671.5339805825244"/>
      <point x="131.83495145631068" y="653.5339805825244" type="curve"/>
      <point x="113.3009708737864" y="491.6407766990292" type="line"/>
      <point x="188.504854368932" y="523.1650485436892"/>
      <point x="302.4077669902913" y="566.4854368932039"/>
      <point x="319.82524271844665" y="566.4854368932039" type="curve"/>
      <point x="385.75728155339806" y="563.747572815534"/>
      <point x="419.2718446601942" y="532.757281553398"/>
      <point x="407.8543689320388" y="478.8252427184466" type="curve" smooth="yes"/>
      <point x="397.06796116504853" y="429.41747572815535"/>
      <point x="355.6601941747573" y="409.53398058252435"/>
      <point x="270.3203883495146" y="407.16504854368935" type="curve"/>
      <point x="244.36893203883494" y="409.53398058252435"/>
      <point x="218.52427184466018" y="411.9029126213593"/>
      <point x="194.20388349514565" y="413.6407766990291" type="curve"/>
      <point x="166.7766990291262" y="284.87378640776706" type="line"/>
      <point x="195.83495145631068" y="286.6116504854369"/>
      <point x="222.67961165048547" y="288.6116504854369"/>
      <point x="251.73786407766988" y="290.3495145631068" type="curve"/>
      <point x="337.7087378640777" y="288.6116504854369"/>
      <point x="380.11650485436894" y="253.41747572815535"/>
      <point x="367.80582524271847" y="196.17475728155338" type="curve" smooth="yes"/>
      <point x="357.3883495145631" y="147.61165048543688"/>
      <point x="321.7669902912622" y="124.62135922330098"/>
      <point x="245.4757281553398" y="122.25242718446604" type="curve"/>
      <point x="219.85436893203882" y="122.25242718446604"/>
      <point x="110.2621359223301" y="163.20388349514565"/>
      <point x="36.320388349514566" y="194.25242718446606" type="curve"/>
      <point x="-6.165048543689317" y="45.94174757281554" type="line"/>
      <point x="67.5145631067961" y="22.893203883495143"/>
      <point x="198.95145631067965" y="-13.475728155339805"/>
    </contour>
  </outline>
</glyph>
<glyph name="four" format="2">
  <advance width="615.1165048543689"/>
  <unicode hex="0034"/>
  <outline>
    <contour>
      <point x="265.55339805825236" y="0.0" type="curve"/>
      <point x="452.6699029126214" y="0.0" type="line"/>
      <point x="462.93203883495147" y="66.47572815533981"/>
      <point x="470.56310679611653" y="121.68932038834951"/>
      <point x="482.8252427184466" y="201.64077669902915" type="curve"/>
      <point x="534.7184466019418" y="447.1067961165048" type="line"/>
      <point x="555.4563106796116" y="526.368932038835"/>
      <point x="576.5631067961166" y="605.1067961165049"/>
      <point x="598.3009708737864" y="688.1067961165049" type="curve"/>
      <point x="408.81553398058253" y="688.1067961165049" type="line"/>
      <point x="374.39805825242723" y="645.9514563106795"/>
      <point x="339.98058252427177" y="604.7961165048544"/>
      <point x="306.56310679611653" y="563.6407766990292" type="curve"/>
      <point x="199.62135922330097" y="445.33009708737865" type="line"/>
      <point x="147.20388349514565" y="390.28155339805824"/>
      <point x="76.15533980582524" y="315.33980582524276"/>
      <point x="26.7378640776699" y="263.2912621359223" type="curve"/>
      <point x="1.8349514563106757" y="143.252427184466" type="line"/>
      <point x="366.3592233009709" y="143.252427184466" type="line"/>
      <point x="425.04854368932035" y="140.51456310679612"/>
      <point x="510.5825242718446" y="137.40776699029124"/>
      <point x="564.5339805825241" y="135.03883495145627" type="curve"/>
      <point x="597.2815533980581" y="289.93203883495147" type="line"/>
      <point x="541.9611650485436" y="287.5631067961165"/>
      <point x="455.0582524271844" y="283.82524271844665"/>
      <point x="394.36893203883494" y="281.0873786407767" type="curve"/>
      <point x="376.7864077669903" y="273.70873786407765" type="line"/>
      <point x="155.8834951456311" y="273.70873786407765" type="line"/>
      <point x="166.94174757281556" y="253.76699029126218" type="line"/>
      <point x="201.72815533980582" y="294.9223300970874"/>
      <point x="237.51456310679615" y="337.0776699029126"/>
      <point x="272.3009708737864" y="378.2330097087379" type="curve"/>
      <point x="412.5533980582524" y="532.4854368932039" type="line"/>
      <point x="455.3398058252427" y="576.1650485436893"/>
      <point x="496.3883495145631" y="619.1067961165048"/>
      <point x="540.1747572815534" y="663.7864077669904" type="curve"/>
      <point x="408.87378640776694" y="619.7184466019418" type="line"/>
      <point x="397.3495145631068" y="550.5631067961165"/>
      <point x="386.4563106796116" y="483.66990291262135"/>
      <point x="375.5631067961165" y="414.5145631067961" type="curve"/>
      <point x="335.62135922330094" y="224.59223300970874" type="line"/>
      <point x="320.9805825242718" y="201.64077669902915" type="line"/>
      <point x="299.1359223300971" y="122.05825242718447"/>
      <point x="284.0291262135922" y="67.10679611650485"/>
    </contour>
  </outline>
</glyph>
<glyph name="five" format="2">
  <advance width="584.7961165048544"/>
  <unicode hex="0035"/>
  <outline>
    <contour>
      <point x="238.73786407766988" y="-13.475728155339805" type="curve" smooth="yes"/>
      <point x="418.1747572815534" y="-13.475728155339805"/>
      <point x="506.0679611650486" y="60.73786407766989"/>
      <point x="534.5922330097088" y="197.83495145631065" type="curve" smooth="yes"/>
      <point x="564.8543689320389" y="344.3592233009708"/>
      <point x="479.54368932038835" y="441.7281553398058"/>
      <point x="366.49514563106794" y="441.7281553398058" type="curve" smooth="yes"/>
      <point x="339.29126213592235" y="441.7281553398058"/>
      <point x="299.76699029126223" y="430.2038834951456"/>
      <point x="266.873786407767" y="416.5728155339806" type="curve"/>
      <point x="254.6601941747573" y="416.5728155339806" type="line"/>
      <point x="261.9223300970874" y="449.88349514563106" type="line"/>
      <point x="276.66019417475735" y="500.56310679611653"/>
      <point x="290.02912621359224" y="550.3980582524272"/>
      <point x="304.39805825242723" y="601.3398058252427" type="curve"/>
      <point x="238.4368932038835" y="550.2718446601941" type="line"/>
      <point x="337.9611650485437" y="550.2718446601941" type="line"/>
      <point x="413.8543689320389" y="545.1650485436892"/>
      <point x="493.74757281553406" y="540.0582524271844"/>
      <point x="570.2718446601942" y="534.9514563106795" type="curve"/>
      <point x="602.0194174757282" y="688.1067961165049" type="line"/>
      <point x="154.40776699029124" y="688.1067961165049" type="line"/>
      <point x="141.40776699029126" y="605.7864077669902"/>
      <point x="125.40776699029125" y="513.4660194174758"/>
      <point x="108.77669902912619" y="415.77669902912623" type="curve"/>
      <point x="84.66990291262134" y="299.9805825242719" type="line"/>
      <point x="152.90291262135923" y="294.873786407767" type="line"/>
      <point x="188.67961165048544" y="312.3398058252427"/>
      <point x="238.7766990291262" y="326.126213592233"/>
      <point x="273.1941747572816" y="326.126213592233" type="curve"/>
      <point x="343.2330097087379" y="323.75728155339806"/>
      <point x="385.42718446601947" y="286.61165048543694"/>
      <point x="371.48543689320394" y="216.5339805825243" type="curve" smooth="yes"/>
      <point x="358.1747572815534" y="149.87378640776703"/>
      <point x="312.13592233009706" y="124.62135922330098"/>
      <point x="239.10679611650485" y="122.25242718446604" type="curve"/>
      <point x="213.48543689320385" y="122.25242718446604"/>
      <point x="108.26213592233009" y="163.20388349514565"/>
      <point x="36.320388349514566" y="194.25242718446606" type="curve"/>
      <point x="-6.165048543689317" y="45.94174757281554" type="line"/>
      <point x="65.88349514563106" y="22.893203883495143"/>
      <point x="194.95145631067962" y="-13.475728155339805"/>
    </contour>
  </outline>
</glyph>
<glyph name="six" format="2">
  <advance width="618.5339805825244"/>
  <unicode hex="0036"/>
  <outline>
    <contour>
      <point x="298.6893203883495" y="-13.475728155339805" type="curve" smooth="yes"/>
      <point x="466.1747572815534" y="-13.475728155339805"/>
      <point x="546.6990291262136" y="87.15533980582524"/>
      <point x="570.6990291262136" y="199.7864077669903" type="curve" smooth="yes"/>
      <point x="600.0679611650486" y="337.36893203883494"/>
      <point x="524.5922330097087" y="443.3592233009708"/>
      <point x="396.0194174757282" y="443.3592233009708" type="curve" smooth="yes"/>
      <point x="355.92233009708735" y="443.3592233009708"/>
      <point x="290.8349514563106" y="412.58252427184465"/>
      <point x="242.94174757281556" y="384.2718446601942" type="curve"/>
      <point x="225.46601941747576" y="384.9029126213592" type="line"/>
      <point x="179.02912621359224" y="336.1067961165049"/>
      <point x="174.6601941747573" y="320.84466019417476"/>
      <point x="203.62135922330097" y="274.09708737864077" type="curve"/>
      <point x="242.18446601941756" y="304.87378640776706"/>
      <point x="300.99999999999994" y="326.12621359223294"/>
      <point x="333.67961165048547" y="329.49514563106794" type="curve"/>
      <point x="401.0194174757282" y="326.12621359223294"/>
      <point x="428.8543689320388" y="278.252427184466"/>
      <point x="416.43689320388347" y="221.16504854368935" type="curve" smooth="yes"/>
      <point x="404.38834951456306" y="163.70873786407768"/>
      <point x="364.87378640776706" y="125.62135922330098"/>
      <point x="303.16504854368924" y="122.25242718446604" type="curve"/>
      <point x="228.40776699029126" y="129.72815533980585"/>
      <point x="188.3106796116505" y="195.75728155339806"/>
      <point x="220.35922330097088" y="345.47572815533977" type="curve" smooth="yes"/>
      <point x="253.9320388349515" y="505.92233009708735"/>
      <point x="310.70873786407776" y="563.1165048543689"/>
      <point x="414.68932038834953" y="566.4854368932039" type="curve"/>
      <point x="428.4757281553398" y="566.4854368932039"/>
      <point x="520.2718446601941" y="537.640776699029"/>
      <point x="579.5825242718446" y="513.8543689320389" type="curve"/>
      <point x="624.5436893203885" y="658.4271844660194" type="line"/>
      <point x="570.9611650485436" y="673.6893203883495"/>
      <point x="451.6893203883495" y="702.8446601941748"/>
      <point x="414.68932038834953" y="702.8446601941748" type="curve" smooth="yes"/>
      <point x="252.53398058252426" y="702.8446601941748"/>
      <point x="120.57281553398057" y="623.6504854368933"/>
      <point x="66.09708737864077" y="365.9029126213592" type="curve" smooth="yes"/>
      <point x="17.62135922330096" y="134.73786407766988"/>
      <point x="103.46601941747574" y="-13.475728155339805"/>
    </contour>
  </outline>
</glyph>
<glyph name="seven" format="2">
  <advance width="551.7894736842105"/>
  <unicode hex="0037"/>
  <outline>
    <contour>
      <point x="30.18421052631579" y="0.0" type="curve"/>
      <point x="236.65789473684217" y="0.0" type="line"/>
      <point x="279.84210526315786" y="76.13157894736842"/>
      <point x="321.0526315789474" y="151.28947368421052"/>
      <point x="363.89473684210526" y="226.73684210526315" type="curve"/>
      <point x="446.44736842105266" y="355.63157894736844" type="line"/>
      <point x="494.60526315789474" y="428.1842105263158"/>
      <point x="539.0789473684212" y="494.7105263157894"/>
      <point x="586.2105263157895" y="565.8947368421052" type="curve"/>
      <point x="611.9473684210526" y="687.9473684210526" type="line"/>
      <point x="117.0" y="687.9473684210526" type="line"/>
      <point x="84.34210526315789" y="532.578947368421" type="line"/>
      <point x="161.49999999999997" y="538.1842105263158"/>
      <point x="239.31578947368422" y="544.4473684210527"/>
      <point x="316.47368421052636" y="550.0526315789474" type="curve"/>
      <point x="444.42105263157896" y="550.0526315789474" type="line"/>
      <point x="401.5526315789474" y="581.7631578947369" type="line"/>
      <point x="374.4210526315789" y="535.0"/>
      <point x="347.3157894736842" y="487.92105263157896"/>
      <point x="320.86842105263156" y="441.1578947368421" type="curve"/>
      <point x="197.21052631578945" y="250.44736842105263" type="line"/>
      <point x="142.42105263157893" y="167.97368421052633"/>
      <point x="85.9736842105263" y="83.81578947368422"/>
    </contour>
  </outline>
</glyph>
<glyph name="eight" format="2">
  <advance width="619.6407766990292"/>
  <unicode hex="0038"/>
  <outline>
    <contour>
      <point x="289.0582524271845" y="-13.475728155339805" type="curve" smooth="yes"/>
      <point x="458.17475728155347" y="-13.475728155339805"/>
      <point x="540.5436893203884" y="53.15533980582525"/>
      <point x="564.9126213592233" y="166.0" type="curve" smooth="yes"/>
      <point x="589.5436893203884" y="279.52427184466023"/>
      <point x="524.6019417475728" y="337.94174757281553"/>
      <point x="465.757281553398" y="358.41747572815535" type="curve"/>
      <point x="468.126213592233" y="370.63106796116506" type="line"/>
      <point x="541.7087378640776" y="381.8932038834951"/>
      <point x="599.1262135922331" y="420.04854368932047"/>
      <point x="615.1262135922331" y="497.67961165048536" type="curve" smooth="yes"/>
      <point x="638.495145631068" y="609.8932038834951"/>
      <point x="550.1747572815534" y="702.8446601941748"/>
      <point x="376.4757281553398" y="702.8446601941748" type="curve" smooth="yes"/>
      <point x="241.4660194174757" y="702.8446601941748"/>
      <point x="141.8834951456311" y="653.1067961165048"/>
      <point x="120.51456310679612" y="550.8932038834951" type="curve" smooth="yes"/>
      <point x="102.51456310679612" y="465.2621359223302"/>
      <point x="150.0388349514563" y="404.73786407766994"/>
      <point x="205.8834951456311" y="387.1067961165049" type="curve"/>
      <point x="203.51456310679612" y="374.8932038834952" type="line"/>
      <point x="135.93203883495147" y="363.52427184466023"/>
      <point x="54.35922330097087" y="329.63106796116506"/>
      <point x="31.728155339805824" y="223.47572815533977" type="curve" smooth="yes"/>
      <point x="5.99029126213592" y="102.89320388349516"/>
      <point x="79.20388349514565" y="-13.475728155339805"/>
    </contour>
    <contour>
      <point x="294.90291262135923" y="120.66990291262138" type="curve"/>
      <point x="211.99029126213594" y="123.6699029126214"/>
      <point x="182.41747572815535" y="170.8640776699029"/>
      <point x="193.8349514563107" y="222.95145631067962" type="curve" smooth="yes"/>
      <point x="206.51456310679615" y="281.3495145631069"/>
      <point x="253.60194174757282" y="297.7669902912621"/>
      <point x="315.2621359223301" y="301.13592233009706" type="curve"/>
      <point x="379.6601941747573" y="297.3980582524272"/>
      <point x="423.5922330097087" y="261.25242718446606"/>
      <point x="411.2815533980582" y="200.22330097087382" type="curve" smooth="yes"/>
      <point x="400.8640776699029" y="149.3980582524272"/>
      <point x="364.0873786407767" y="123.6699029126214"/>
    </contour>
    <contour>
      <point x="352.16504854368935" y="415.79611650485435" type="curve"/>
      <point x="290.87378640776706" y="418.5339805825242"/>
      <point x="258.1456310679612" y="458.0485436893204"/>
      <point x="268.93203883495147" y="506.7184466019417" type="curve" smooth="yes"/>
      <point x="280.0873786407767" y="556.6019417475727"/>
      <point x="320.495145631068" y="570.9126213592233"/>
      <point x="370.7378640776699" y="574.6504854368932" type="curve"/>
      <point x="431.66019417475724" y="570.9126213592233"/>
      <point x="468.1747572815534" y="540.5533980582525"/>
      <point x="457.38834951456306" y="486.883495145631" type="curve" smooth="yes"/>
      <point x="448.2330097087378" y="441.0"/>
      <point x="409.45631067961153" y="418.5339805825242"/>
    </contour>
  </outline>
</glyph>
<glyph name="less" format="2">
  <advance width="579.7368421052631"/>
  <unicode hex="003C"/>
  <outline>
    <contour>
      <point x="486.2631578947369" y="44.55263157894736" type="curve"/>
      <point x="518.6052631578948" y="195.02631578947367" type="line"/>
      <point x="464.71052631578954" y="214.55263157894737"/>
      <point x="408.39473684210526" y="235.44736842105266"/>
      <point x="353.8157894736842" y="255.3157894736842" type="curve"/>
      <point x="267.7105263157895" y="291.2894736842105" type="line"/>
      <point x="270.36842105263156" y="303.86842105263156" type="line"/>
      <point x="370.60526315789474" y="338.52631578947364" type="line"/>
      <point x="433.6052631578947" y="357.7368421052632"/>
      <point x="499.3421052631579" y="378.6315789473684"/>
      <point x="561.6578947368422" y="397.5" type="curve"/>
      <point x="595.9736842105264" y="563.1842105263158" type="line"/>
      <point x="519.8157894736843" y="533.5526315789474"/>
      <point x="449.6052631578947" y="506.23684210526324"/>
      <point x="387.39473684210526" y="482.2631578947369" type="curve"/>
      <point x="283.6578947368421" y="445.1578947368421" type="line"/>
      <point x="222.78947368421055" y="425.4736842105263"/>
      <point x="151.92105263157896" y="402.4473684210526"/>
      <point x="78.07894736842105" y="379.10526315789474" type="curve"/>
      <point x="45.73684210526316" y="228.6315789473684" type="line"/>
      <point x="109.57894736842105" y="205.28947368421052"/>
      <point x="171.10526315789474" y="182.26315789473682"/>
      <point x="223.28947368421052" y="162.57894736842104" type="curve"/>
      <point x="311.6578947368421" y="125.47368421052632" type="line"/>
      <point x="363.2105263157895" y="101.5"/>
      <point x="422.1052631578948" y="73.84210526315789"/>
    </contour>
  </outline>
</glyph>
<glyph name="equal" format="2">
  <advance width="579.7368421052631"/>
  <unicode hex="003D"/>
  <outline>
    <contour>
      <point x="27.36842105263157" y="109.18421052631578" type="line"/>
      <point x="97.2105263157895" y="111.49999999999999"/>
      <point x="170.78947368421052" y="113.8157894736842"/>
      <point x="220.26315789473685" y="115.13157894736841" type="curve"/>
      <point x="303.1578947368421" y="115.13157894736841" type="line"/>
      <point x="352.6315789473684" y="113.8157894736842"/>
      <point x="424.8947368421052" y="111.49999999999999"/>
      <point x="493.421052631579" y="109.18421052631578" type="curve"/>
      <point x="524.7631578947369" y="256.3421052631579" type="line"/>
      <point x="455.57894736842104" y="254.0263157894737"/>
      <point x="381.6578947368421" y="251.71052631578948"/>
      <point x="332.1842105263158" y="250.39473684210526" type="curve"/>
      <point x="249.28947368421055" y="250.39473684210526" type="line"/>
      <point x="199.81578947368422" y="251.71052631578948"/>
      <point x="127.89473684210529" y="254.0263157894737"/>
      <point x="58.710526315789465" y="256.3421052631579" type="curve"/>
    </contour>
    <contour>
      <point x="78.26315789473684" y="352.07894736842104" type="line"/>
      <point x="148.10526315789474" y="354.3947368421053"/>
      <point x="221.68421052631578" y="356.7105263157895"/>
      <point x="271.1578947368421" y="358.0263157894737" type="curve"/>
      <point x="354.05263157894734" y="358.0263157894737" type="line"/>
      <point x="403.52631578947364" y="356.7105263157895"/>
      <point x="475.7894736842105" y="354.3947368421053"/>
      <point x="544.3157894736843" y="352.07894736842104" type="curve"/>
      <point x="575.6578947368421" y="499.2368421052632" type="line"/>
      <point x="506.4736842105263" y="496.9210526315789"/>
      <point x="432.55263157894734" y="494.60526315789474"/>
      <point x="383.07894736842104" y="493.2894736842105" type="curve"/>
      <point x="300.1842105263158" y="493.2894736842105" type="line"/>
      <point x="250.71052631578948" y="494.60526315789474"/>
      <point x="178.78947368421055" y="496.9210526315789"/>
      <point x="109.60526315789474" y="499.2368421052632" type="curve"/>
    </contour>
  </outline>
</glyph>
<glyph name="greater" format="2">
  <advance width="579.7368421052631"/>
  <unicode hex="003E"/>
  <outline>
    <contour>
      <point x="7.052631578947368" y="44.55263157894736" type="line"/>
      <point x="83.21052631578948" y="74.1842105263158"/>
      <point x="153.42105263157896" y="101.5"/>
      <point x="215.6315789473684" y="125.47368421052632" type="curve"/>
      <point x="319.3684210526316" y="162.57894736842104" type="line"/>
      <point x="380.2368421052631" y="182.26315789473682"/>
      <point x="451.10526315789474" y="205.28947368421052"/>
      <point x="524.9473684210527" y="228.6315789473684" type="curve"/>
      <point x="557.2894736842105" y="379.10526315789474" type="line"/>
      <point x="493.44736842105266" y="402.44736842105266"/>
      <point x="431.9210526315789" y="425.4736842105263"/>
      <point x="379.7368421052632" y="445.1578947368421" type="curve"/>
      <point x="291.3684210526316" y="482.2631578947369" type="line"/>
      <point x="239.81578947368422" y="506.2368421052632"/>
      <point x="180.921052631579" y="533.8947368421053"/>
      <point x="116.76315789473685" y="563.1842105263158" type="curve"/>
      <point x="84.42105263157895" y="412.7105263157895" type="line"/>
      <point x="138.31578947368422" y="393.1842105263158"/>
      <point x="194.6315789473684" y="372.2894736842106"/>
      <point x="249.21052631578945" y="352.42105263157896" type="curve"/>
      <point x="335.31578947368416" y="316.4473684210526" type="line"/>
      <point x="332.6578947368421" y="303.86842105263156" type="line"/>
      <point x="232.42105263157893" y="269.2105263157895" type="line"/>
      <point x="169.42105263157893" y="250.00000000000003"/>
      <point x="103.6842105263158" y="229.10526315789474"/>
      <point x="41.36842105263158" y="210.23684210526315" type="curve"/>
    </contour>
  </outline>
</glyph>
<glyph name="at" format="2">
  <advance width="892.7631578947369"/>
  <unicode hex="0040"/>
  <outline>
    <contour>
      <point x="485.1578947368421" y="-145.0263157894737" type="curve" smooth="yes"/>
      <point x="550.4736842105262" y="-145.0263157894737"/>
      <point x="675.5" y="-104.63157894736842"/>
      <point x="768.4736842105264" y="-78.23684210526316" type="curve"/>
      <point x="768.4736842105264" y="26.52631578947369" type="line"/>
      <point x="649.5789473684209" y="-18.76315789473684"/>
      <point x="525.6315789473683" y="-52.815789473684205"/>
      <point x="485.1578947368421" y="-55.473684210526315" type="curve"/>
      <point x="221.8421052631579" y="-51.1578947368421"/>
      <point x="103.05263157894737" y="118.3157894736842"/>
      <point x="150.68421052631578" y="336.2894736842105" type="curve" smooth="yes"/>
      <point x="186.78947368421052" y="502.86842105263156"/>
      <point x="299.57894736842104" y="603.6315789473684"/>
      <point x="480.1578947368421" y="607.9473684210526" type="curve"/>
      <point x="682.7894736842105" y="603.6315789473684"/>
      <point x="796.9473684210527" y="474.07894736842104"/>
      <point x="760.578947368421" y="273.6578947368421" type="curve" smooth="yes"/>
      <point x="755.8684210526316" y="248.10526315789474"/>
      <point x="689.1052631578948" y="163.3947368421053"/>
      <point x="657.7368421052631" y="154.18421052631578" type="curve"/>
      <point x="616.8684210526316" y="157.84210526315792"/>
      <point x="602.7368421052631" y="182.23684210526315"/>
      <point x="619.0263157894736" y="260.39473684210526" type="curve"/>
      <point x="635.578947368421" y="339.13157894736844" type="line"/>
      <point x="650.8421052631579" y="387.3157894736842"/>
      <point x="667.1315789473683" y="438.60526315789474"/>
      <point x="683.0789473684212" y="485.89473684210526" type="curve"/>
      <point x="560.2894736842105" y="479.60526315789474" type="line"/>
      <point x="543.3157894736842" y="429.8421052631579" type="line"/>
      <point x="533.0526315789474" y="429.8421052631579" type="line"/>
      <point x="498.7105263157895" y="464.10526315789474"/>
      <point x="451.8421052631579" y="491.2368421052632"/>
      <point x="420.6578947368421" y="491.2368421052632" type="curve" smooth="yes"/>
      <point x="327.9736842105263" y="491.2368421052632"/>
      <point x="262.5263157894737" y="411.05263157894734"/>
      <point x="241.8157894736842" y="309.2105263157895" type="curve" smooth="yes"/>
      <point x="216.15789473684208" y="182.6578947368421"/>
      <point x="270.05263157894734" y="69.05263157894737"/>
      <point x="381.84210526315786" y="69.05263157894737" type="curve" smooth="yes"/>
      <point x="406.6315789473684" y="69.05263157894737"/>
      <point x="453.44736842105266" y="96.44736842105264"/>
      <point x="500.4210526315789" y="131.84210526315792" type="curve"/>
      <point x="510.02631578947364" y="131.84210526315792" type="line"/>
      <point x="528.8684210526316" y="94.13157894736841"/>
      <point x="579.8684210526316" y="60.368421052631575"/>
      <point x="664.7368421052631" y="60.368421052631575" type="curve" smooth="yes"/>
      <point x="706.9736842105262" y="60.368421052631575"/>
      <point x="839.7631578947369" y="176.02631578947364"/>
      <point x="855.0526315789474" y="254.5" type="curve" smooth="yes"/>
      <point x="902.6578947368421" y="499.2631578947368"/>
      <point x="741.5263157894736" y="697.5"/>
      <point x="481.8157894736842" y="697.5" type="curve" smooth="yes"/>
      <point x="286.55263157894734" y="697.5"/>
      <point x="106.13157894736842" y="592.5526315789474"/>
      <point x="56.526315789473685" y="356.7368421052632" type="curve" smooth="yes"/>
      <point x="0.3157894736842106" y="91.21052631578948"/>
      <point x="159.76315789473682" y="-145.0263157894737"/>
    </contour>
    <contour>
      <point x="419.39473684210526" y="178.6578947368421" type="curve"/>
      <point x="371.0263157894737" y="180.6578947368421"/>
      <point x="351.13157894736844" y="230.10526315789474"/>
      <point x="362.9473684210526" y="287.13157894736844" type="curve" smooth="yes"/>
      <point x="374.05263157894734" y="339.9473684210526"/>
      <point x="404.6842105263158" y="376.65789473684214"/>
      <point x="452.2631578947368" y="379.3157894736842" type="curve"/>
      <point x="473.1578947368421" y="377.0"/>
      <point x="497.2631578947368" y="363.7631578947368"/>
      <point x="514.2368421052632" y="348.52631578947364" type="curve"/>
      <point x="487.36842105263156" y="223.60526315789474" type="line"/>
      <point x="465.36842105263156" y="196.57894736842107"/>
      <point x="438.89473684210526" y="182.63157894736844"/>
    </contour>
  </outline>
</glyph>
<glyph name="A" format="2">
  <advance width="723.921052631579"/>
  <unicode hex="0041"/>
  <anchor x="309.63157894736844" y="0.0" name="bottom"/>
  <anchor x="659.9736842105264" y="0.0" name="ogonek"/>
  <anchor x="458.3157894736842" y="713.0" name="top"/>
  <outline>
    <contour>
      <point x="-44.68421052631579" y="0.0" type="curve"/>
      <point x="166.10526315789477" y="0.0" type="line"/>
      <point x="197.39473684210523" y="74.55263157894737"/>
      <point x="231.6842105263158" y="156.39473684210523"/>
      <point x="262.6315789473684" y="230.26315789473685" type="curve"/>
      <point x="425.65789473684214" y="567.1315789473684" type="line"/>
      <point x="438.2368421052632" y="567.1315789473684" type="line"/>
      <point x="463.1578947368421" y="228.6052631578947" type="line"/>
      <point x="464.0" y="156.07894736842104"/>
      <point x="464.86842105263156" y="73.18421052631578"/>
      <point x="465.7105263157894" y="0.0" type="curve"/>
      <point x="663.921052631579" y="0.0" type="line"/>
      <point x="651.2368421052631" y="73.6842105263158"/>
      <point x="635.8947368421053" y="163.97368421052633"/>
      <point x="622.8684210526316" y="239.71052631578948" type="curve"/>
      <point x="595.3421052631579" y="487.0" type="line"/>
      <point x="591.5526315789474" y="572.3157894736842"/>
      <point x="588.4473684210526" y="639.3684210526316"/>
      <point x="585.3421052631579" y="713.0" type="curve"/>
      <point x="334.28947368421046" y="713.0" type="line"/>
      <point x="299.1842105263157" y="639.0000000000001"/>
      <point x="267.42105263157896" y="571.3421052631579"/>
      <point x="227.6315789473684" y="487.3421052631579" type="curve"/>
      <point x="97.42105263157895" y="243.0" type="line"/>
      <point x="52.39473684210525" y="166.3421052631579"/>
      <point x="0.6842105263157876" y="77.34210526315789"/>
    </contour>
    <contour>
      <point x="174.71052631578948" y="145.76315789473682" type="line"/>
      <point x="522.3421052631579" y="145.76315789473682" type="line"/>
      <point x="533.6052631578948" y="274.44736842105266" type="line"/>
      <point x="219.5263157894737" y="274.44736842105266" type="line"/>
    </contour>
  </outline>
</glyph>
<glyph name="B" format="2">
  <advance width="668.3300970873786"/>
  <unicode hex="0042"/>
  <outline>
    <contour>
      <point x="295.9029126213593" y="-6.475728155339807" type="curve"/>
      <point x="537.3398058252427" y="-6.475728155339807"/>
      <point x="599.495145631068" y="66.89320388349516"/>
      <point x="624.2330097087379" y="182.6893203883495" type="curve" smooth="yes"/>
      <point x="645.8640776699029" y="286.1067961165048"/>
      <point x="590.8155339805826" y="348.3203883495146"/>
      <point x="517.0194174757281" y="370.3203883495146" type="curve"/>
      <point x="519.757281553398" y="383.16504854368935" type="line"/>
      <point x="598.8640776699029" y="399.9514563106796"/>
      <point x="658.3398058252427" y="432.26213592233006"/>
      <point x="677.7087378640776" y="522.3689320388349" type="curve" smooth="yes"/>
      <point x="698.3398058252427" y="621.3106796116506"/>
      <point x="653.9805825242718" y="718.1067961165049"/>
      <point x="436.73786407766994" y="718.1067961165049" type="curve"/>
      <point x="335.67961165048547" y="718.1067961165049"/>
      <point x="235.08737864077668" y="713.0"/>
      <point x="155.50485436893206" y="713.0" type="curve"/>
      <point x="142.98058252427182" y="635.3689320388349"/>
      <point x="133.0873786407767" y="569.2135922330098"/>
      <point x="118.82524271844662" y="473.36893203883494" type="curve"/>
      <point x="67.45631067961165" y="232.15533980582524" type="line"/>
      <point x="42.980582524271846" y="142.04854368932038"/>
      <point x="26.242718446601934" y="77.15533980582524"/>
      <point x="5.504854368932031" y="0.0" type="curve"/>
      <point x="72.20388349514563" y="0.0"/>
      <point x="175.1553398058252" y="-6.475728155339807"/>
    </contour>
    <contour>
      <point x="219.0485436893204" y="127.873786407767" type="line"/>
      <point x="226.94174757281553" y="170.33980582524273"/>
      <point x="234.46601941747574" y="211.43689320388347"/>
      <point x="245.35922330097088" y="269.37864077669906" type="curve"/>
      <point x="280.6699029126214" y="437.1456310679612" type="line"/>
      <point x="295.30097087378647" y="496.93203883495147"/>
      <point x="305.5631067961165" y="539.8737864077669"/>
      <point x="317.0873786407767" y="586.6019417475727" type="curve"/>
      <point x="415.83495145631076" y="586.6019417475727" type="line" smooth="yes"/>
      <point x="478.8640776699029" y="586.6019417475727"/>
      <point x="507.116504854369" y="554.2912621359224"/>
      <point x="495.96116504854376" y="501.252427184466" type="curve" smooth="yes"/>
      <point x="485.06796116504853" y="449.8932038834951"/>
      <point x="444.3980582524272" y="418.11650485436894"/>
      <point x="374.7961165048544" y="418.11650485436894" type="curve" smooth="yes"/>
      <point x="235.02912621359224" y="418.11650485436894" type="line"/>
      <point x="210.33980582524273" y="299.4077669902913" type="line"/>
      <point x="356.8446601941748" y="299.4077669902913" type="line" smooth="yes"/>
      <point x="428.18446601941747" y="299.4077669902913"/>
      <point x="462.4854368932039" y="264.67961165048547"/>
      <point x="450.43689320388347" y="207.59223300970874" type="curve" smooth="yes"/>
      <point x="438.6504854368932" y="150.81553398058256"/>
      <point x="398.504854368932" y="127.873786407767"/>
      <point x="317.28155339805824" y="127.873786407767" type="curve" smooth="yes"/>
    </contour>
  </outline>
</glyph>
<glyph name="C" format="2">
  <advance width="682.7105263157895"/>
  <unicode hex="0043"/>
  <anchor x="343.0789473684211" y="0.0" name="bottom"/>
  <anchor x="489.65789473684214" y="713.0" name="top"/>
  <outline>
    <contour>
      <point x="384.2894736842105" y="-13.605263157894736" type="curve" smooth="yes"/>
      <point x="422.39473684210526" y="-13.605263157894736"/>
      <point x="532.5263157894738" y="9.789473684210524"/>
      <point x="588.5789473684212" y="27.18421052631579" type="curve"/>
      <point x="614.2631578947369" y="191.89473684210526" type="line"/>
      <point x="544.8684210526316" y="161.5"/>
      <point x="441.2894736842106" y="127.94736842105264"/>
      <point x="413.5526315789474" y="127.94736842105264" type="curve"/>
      <point x="265.3157894736842" y="131.60526315789477"/>
      <point x="214.5526315789474" y="253.99999999999997"/>
      <point x="240.73684210526318" y="378.5263157894737" type="curve" smooth="yes"/>
      <point x="271.2368421052632" y="523.9473684210526"/>
      <point x="367.10526315789474" y="577.8157894736842"/>
      <point x="465.6052631578947" y="581.4736842105262" type="curve"/>
      <point x="487.02631578947376" y="581.4736842105262"/>
      <point x="588.9736842105262" y="551.8421052631579"/>
      <point x="682.6578947368421" y="515.8684210526317" type="curve"/>
      <point x="729.5263157894736" y="676.2105263157895" type="line"/>
      <point x="650.1315789473684" y="699.1578947368422"/>
      <point x="526.1315789473684" y="727.6315789473684"/>
      <point x="482.7368421052632" y="727.6315789473684" type="curve" smooth="yes"/>
      <point x="251.1315789473684" y="727.6315789473684"/>
      <point x="110.97368421052632" y="614.6315789473684"/>
      <point x="66.63157894736841" y="401.63157894736844" type="curve" smooth="yes"/>
      <point x="19.999999999999993" y="179.8157894736842"/>
      <point x="134.1578947368421" y="-13.605263157894736"/>
    </contour>
  </outline>
</glyph>
<glyph name="D" format="2">
  <advance width="736.3684210526316"/>
  <unicode hex="0044"/>
  <anchor x="300.63157894736844" y="0.0" name="bottom"/>
  <anchor x="391.506" y="357.0" name="center"/>
  <anchor x="450.63157894736844" y="713.0" name="top"/>
  <outline>
    <contour>
      <point x="5.342105263157891" y="0.0" type="curve"/>
      <point x="92.0" y="0.0"/>
      <point x="177.9736842105263" y="-6.2631578947368425"/>
      <point x="287.6842105263158" y="-6.2631578947368425" type="curve"/>
      <point x="567.1052631578948" y="-6.2631578947368425"/>
      <point x="676.3947368421053" y="129.65789473684208"/>
      <point x="718.078947368421" y="331.6842105263158" type="curve" smooth="yes"/>
      <point x="760.7368421052632" y="539.9210526315788"/>
      <point x="655.1052631578947" y="717.9473684210526"/>
      <point x="428.94736842105266" y="717.9473684210526" type="curve"/>
      <point x="331.42105263157896" y="717.9473684210526"/>
      <point x="233.71052631578945" y="713.0"/>
      <point x="155.3421052631579" y="713.0" type="curve"/>
      <point x="143.28947368421052" y="635.3157894736843"/>
      <point x="133.23684210526315" y="569.2368421052631"/>
      <point x="118.52631578947367" y="473.65789473684214" type="curve"/>
      <point x="67.21052631578947" y="232.07894736842104" type="line"/>
      <point x="42.94736842105263" y="141.78947368421052"/>
      <point x="25.97368421052631" y="77.07894736842104"/>
    </contour>
    <contour>
      <point x="224.0" y="137.57894736842104" type="line"/>
      <point x="231.07894736842104" y="177.94736842105263"/>
      <point x="239.4736842105263" y="221.21052631578948"/>
      <point x="249.21052631578945" y="275.5" type="curve"/>
      <point x="282.7631578947368" y="434.2105263157894" type="line"/>
      <point x="296.4736842105263" y="490.4736842105263"/>
      <point x="306.52631578947364" y="531.7631578947369"/>
      <point x="317.578947368421" y="575.421052631579" type="curve"/>
      <point x="388.05263157894734" y="575.421052631579" type="line"/>
      <point x="525.6578947368422" y="570.4473684210526"/>
      <point x="567.8421052631579" y="471.00000000000006"/>
      <point x="541.3421052631579" y="347.2368421052632" type="curve" smooth="yes"/>
      <point x="515.1578947368422" y="222.6842105263158"/>
      <point x="462.3684210526315" y="143.21052631578945"/>
      <point x="303.1578947368421" y="137.57894736842104" type="curve"/>
    </contour>
  </outline>
</glyph>
<glyph name="E" format="2">
  <advance width="599.9514563106796"/>
  <unicode hex="0045"/>
  <anchor x="258.15533980582524" y="0.0" name="bottom"/>
  <anchor x="495.9029126213593" y="0.0" name="ogonek"/>
  <anchor x="408.15533980582524" y="713.0" name="top"/>
  <anchor x="135.0" y="713.0" name="topleft"/>
  <outline>
    <contour>
      <point x="5.5048543689320315" y="0.0" type="curve"/>
      <point x="200.83495145631068" y="0.0" type="line"/>
      <point x="207.3106796116505" y="27.378640776699033" type="line"/>
      <point x="218.8349514563107" y="103.27184466019418"/>
      <point x="228.72815533980582" y="170.4271844660194"/>
      <point x="242.621359223301" y="259.5339805825243" type="curve"/>
      <point x="281.6699029126214" y="447.252427184466" type="line"/>
      <point x="306.5145631067962" y="539.7281553398058"/>
      <point x="324.2524271844661" y="607.3592233009708"/>
      <point x="345.3592233009709" y="685.6213592233009" type="curve"/>
      <point x="350.8349514563107" y="713.0" type="line"/>
      <point x="155.50485436893206" y="713.0" type="line"/>
      <point x="142.98058252427182" y="635.3689320388349"/>
      <point x="133.0873786407767" y="569.2135922330098"/>
      <point x="118.8252427184466" y="473.36893203883494" type="curve"/>
      <point x="67.45631067961165" y="232.15533980582524" type="line"/>
      <point x="42.98058252427183" y="142.04854368932038"/>
      <point x="26.242718446601934" y="77.15533980582524"/>
    </contour>
    <contour>
      <point x="168.45631067961168" y="0.0" type="line"/>
      <point x="499.3786407766991" y="0.0" type="line"/>
      <point x="532.3883495145632" y="153.57281553398062" type="line"/>
      <point x="466.33980582524276" y="149.46601941747576"/>
      <point x="395.3980582524272" y="144.72815533980585"/>
      <point x="316.4563106796117" y="139.99029126213594" type="curve"/>
      <point x="198.0970873786408" y="139.99029126213594" type="line"/>
    </contour>
    <contour>
      <point x="209.60194174757282" y="294.3495145631068" type="line"/>
      <point x="339.17475728155347" y="294.3495145631068" type="line"/>
      <point x="422.8543689320389" y="291.24271844660194"/>
      <point x="480.0097087378641" y="288.873786407767"/>
      <point x="540.7961165048544" y="287.1359223300971" type="curve"/>
      <point x="571.6990291262135" y="432.91262135922335" type="line"/>
      <point x="512.5436893203884" y="430.5436893203884"/>
      <point x="453.75728155339806" y="427.8058252427185"/>
      <point x="366.97087378640776" y="424.0679611650486" type="curve"/>
      <point x="236.76699029126215" y="424.0679611650486" type="line"/>
    </contour>
    <contour>
      <point x="278.2330097087378" y="573.0097087378641" type="line"/>
      <point x="395.3300970873787" y="573.0097087378641" type="line"/>
      <point x="487.53398058252435" y="567.5339805825242"/>
      <point x="551.4757281553399" y="563.1650485436894"/>
      <point x="613.5242718446601" y="559.4271844660195" type="curve"/>
      <point x="645.5339805825242" y="713.0" type="line"/>
      <point x="307.50485436893206" y="713.0" type="line"/>
    </contour>
  </outline>
</glyph>
<glyph name="F" format="2">
  <advance width="580.8684210526316"/>
  <unicode hex="0046"/>
  <outline>
    <contour>
      <point x="5.342105263157891" y="0.0" type="curve"/>
      <point x="200.8947368421053" y="0.0" type="line"/>
      <point x="212.94736842105263" y="76.39473684210526"/>
      <point x="222.00000000000003" y="141.42105263157893"/>
      <point x="236.05263157894737" y="232.07894736842104" type="curve"/>
      <point x="281.44736842105266" y="447.0" type="line"/>
      <point x="305.71052631578954" y="539.6052631578948"/>
      <point x="325.00000000000006" y="607.2894736842105"/>
      <point x="345.63157894736844" y="685.6578947368421" type="curve"/>
      <point x="350.89473684210526" y="713.0" type="line"/>
      <point x="155.3421052631579" y="713.0" type="line"/>
      <point x="143.28947368421052" y="635.3157894736843"/>
      <point x="133.23684210526315" y="569.2368421052631"/>
      <point x="118.52631578947367" y="473.65789473684214" type="curve"/>
      <point x="67.21052631578947" y="232.07894736842104" type="line"/>
      <point x="42.94736842105263" y="141.78947368421052"/>
      <point x="25.97368421052631" y="77.07894736842104"/>
    </contour>
    <contour>
      <point x="203.05263157894737" y="279.89473684210526" type="line"/>
      <point x="329.15789473684214" y="279.89473684210526" type="line"/>
      <point x="412.63157894736844" y="276.60526315789474"/>
      <point x="469.05263157894746" y="274.2894736842105"/>
      <point x="530.157894736842" y="272.3157894736842" type="curve"/>
      <point x="562.8157894736842" y="426.39473684210526" type="line"/>
      <point x="503.7368421052631" y="424.07894736842104"/>
      <point x="445.31578947368416" y="421.10526315789474"/>
      <point x="358.2105263157895" y="417.4736842105263" type="curve"/>
      <point x="231.76315789473685" y="417.4736842105263" type="line"/>
    </contour>
    <contour>
      <point x="274.3684210526316" y="569.5" type="line"/>
      <point x="387.8684210526316" y="569.5" type="line"/>
      <point x="480.7631578947368" y="563.8947368421053"/>
      <point x="544.2631578947369" y="559.921052631579"/>
      <point x="606.0526315789473" y="556.2894736842105" type="curve"/>
      <point x="638.7105263157895" y="713.0" type="line"/>
      <point x="304.3947368421053" y="713.0" type="line"/>
    </contour>
  </outline>
</glyph>
<glyph name="I" format="2">
  <advance width="325.36842105263156"/>
  <unicode hex="0049"/>
  <anchor x="106.89473684210526" y="0.0" name="bottom"/>
  <anchor x="208.1315789473684" y="0.0" name="ogonek"/>
  <anchor x="256.89473684210526" y="713.0" name="top"/>
  <anchor x="130.39473684210526" y="713.0" name="topleft"/>
  <outline>
    <contour>
      <point x="8.63157894736841" y="0.0" type="curve"/>
      <point x="211.42105263157896" y="0.0" type="line"/>
      <point x="222.8157894736842" y="75.07894736842105"/>
      <point x="232.5263157894737" y="140.1052631578947"/>
      <point x="246.57894736842104" y="232.07894736842104" type="curve"/>
      <point x="297.8947368421053" y="473.65789473684214" type="line"/>
      <point x="323.15789473684214" y="568.921052631579"/>
      <point x="340.7894736842106" y="634.6315789473684"/>
      <point x="361.421052631579" y="713.0" type="curve"/>
      <point x="158.6315789473684" y="713.0" type="line"/>
      <point x="146.57894736842104" y="635.3157894736843"/>
      <point x="136.52631578947367" y="569.2368421052631"/>
      <point x="121.81578947368419" y="473.65789473684214" type="curve"/>
      <point x="70.49999999999999" y="232.07894736842104" type="line"/>
      <point x="46.23684210526315" y="141.78947368421052"/>
      <point x="29.26315789473683" y="77.07894736842104"/>
    </contour>
  </outline>
</glyph>
<glyph name="J" format="2">
  <advance width="327.57894736842104"/>
  <unicode hex="004A"/>
  <anchor x="111.39473684210526" y="0.0" name="bottom"/>
  <anchor x="261.39473684210526" y="713.0" name="top"/>
  <outline>
    <contour>
      <point x="-74.44736842105263" y="-154.73684210526315" type="curve"/>
      <point x="87.31578947368423" y="-154.73684210526315" type="line"/>
      <point x="126.94736842105263" y="-106.02631578947368"/>
      <point x="211.68421052631578" y="8.473684210526315"/>
      <point x="223.23684210526315" y="63.94736842105264" type="curve" smooth="yes"/>
      <point x="241.5526315789474" y="150.1578947368421"/>
      <point x="250.63157894736844" y="241.0"/>
      <point x="270.2631578947368" y="334.1578947368421" type="curve"/>
      <point x="300.10526315789474" y="473.65789473684214" type="line"/>
      <point x="325.36842105263156" y="568.921052631579"/>
      <point x="343.00000000000006" y="634.6315789473684"/>
      <point x="363.63157894736844" y="713.0" type="curve"/>
      <point x="164.13157894736844" y="713.0" type="line"/>
      <point x="152.07894736842107" y="635.3157894736843"/>
      <point x="142.0263157894737" y="569.2368421052631"/>
      <point x="127.3157894736842" y="473.65789473684214" type="curve"/>
      <point x="95.07894736842105" y="322.86842105263156" type="line"/>
      <point x="36.89473684210526" y="64.23684210526316" type="line"/>
      <point x="-4.289473684210523" y="-16.052631578947366"/>
      <point x="-38.68421052631579" y="-84.86842105263158"/>
    </contour>
  </outline>
</glyph>
<glyph name="K" format="2">
  <advance width="704.921052631579"/>
  <unicode hex="004B"/>
  <anchor x="308.2894736842105" y="0.0" name="bottom"/>
  <anchor x="458.2894736842105" y="713.0" name="top"/>
  <outline>
    <contour>
      <point x="424.84210526315786" y="0.0" type="curve"/>
      <point x="647.5526315789474" y="0.0" type="line"/>
      <point x="608.3421052631579" y="64.92105263157893"/>
      <point x="545.6842105263157" y="169.10526315789474"/>
      <point x="499.7631578947368" y="245.0263157894737" type="curve"/>
      <point x="406.5" y="414.7894736842106" type="line"/>
      <point x="405.86842105263156" y="337.57894736842104" type="line"/>
      <point x="547.0263157894738" y="483.13157894736844" type="line"/>
      <point x="624.2631578947369" y="558.7368421052632"/>
      <point x="701.1842105263157" y="633.3684210526314"/>
      <point x="783.1315789473686" y="713.0" type="curve"/>
      <point x="546.8157894736843" y="713.0" type="line"/>
      <point x="492.1578947368421" y="647.4736842105264"/>
      <point x="453.7368421052631" y="599.7105263157896"/>
      <point x="410.57894736842104" y="546.921052631579" type="curve"/>
      <point x="309.60526315789474" y="438.2631578947369" type="line"/>
      <point x="269.57894736842104" y="438.2631578947369" type="line"/>
      <point x="241.5263157894737" y="303.3157894736842" type="line"/>
      <point x="283.84210526315786" y="303.3157894736842" type="line"/>
      <point x="351.1578947368421" y="169.68421052631578" type="line"/>
      <point x="373.8947368421053" y="117.57894736842107"/>
      <point x="397.0" y="64.13157894736842"/>
    </contour>
    <contour>
      <point x="5.342105263157891" y="0.0" type="curve"/>
      <point x="204.1842105263158" y="0.0" type="line"/>
      <point x="215.57894736842104" y="75.07894736842105"/>
      <point x="225.28947368421055" y="140.1052631578947"/>
      <point x="239.3421052631579" y="232.07894736842104" type="curve"/>
      <point x="290.65789473684214" y="473.65789473684214" type="line"/>
      <point x="315.92105263157896" y="568.921052631579"/>
      <point x="333.5526315789474" y="634.6315789473684"/>
      <point x="354.18421052631584" y="713.0" type="curve"/>
      <point x="155.3421052631579" y="713.0" type="line"/>
      <point x="143.28947368421052" y="635.3157894736843"/>
      <point x="133.23684210526315" y="569.2368421052631"/>
      <point x="118.52631578947367" y="473.65789473684214" type="curve"/>
      <point x="67.21052631578947" y="232.07894736842104" type="line"/>
      <point x="42.94736842105263" y="141.78947368421052"/>
      <point x="25.97368421052631" y="77.07894736842104"/>
    </contour>
  </outline>
</glyph>
<glyph name="L" format="2">
  <advance width="574.5526315789474"/>
  <unicode hex="004C"/>
  <anchor x="252.52631578947367" y="0.0" name="bottom"/>
  <anchor x="463.2894736842105" y="358.9736842105263" name="center"/>
  <anchor x="328.68421052631584" y="713.0" name="top"/>
  <anchor x="358.81578947368416" y="499.2631578947368" name="topright"/>
  <outline>
    <contour>
      <point x="5.342105263157891" y="0.0" type="curve"/>
      <point x="204.8421052631579" y="0.0" type="line"/>
      <point x="211.10526315789474" y="27.68421052631579" type="line"/>
      <point x="217.89473684210523" y="104.07894736842105"/>
      <point x="227.60526315789474" y="169.78947368421052"/>
      <point x="246.26315789473682" y="259.7631578947368" type="curve"/>
      <point x="291.3157894736842" y="473.65789473684214" type="line"/>
      <point x="316.57894736842104" y="568.921052631579"/>
      <point x="334.2105263157895" y="634.6315789473684"/>
      <point x="354.8421052631579" y="713.0" type="curve"/>
      <point x="155.3421052631579" y="713.0" type="line"/>
      <point x="143.28947368421052" y="635.3157894736843"/>
      <point x="133.23684210526315" y="569.2368421052631"/>
      <point x="118.52631578947367" y="473.65789473684214" type="curve"/>
      <point x="67.21052631578947" y="232.07894736842104" type="line"/>
      <point x="42.94736842105263" y="141.78947368421052"/>
      <point x="25.97368421052631" y="77.07894736842104"/>
    </contour>
    <contour>
      <point x="168.21052631578945" y="0.0" type="line"/>
      <point x="493.10526315789474" y="0.0" type="line"/>
      <point x="528.3947368421053" y="167.89473684210526" type="line"/>
      <point x="456.8947368421053" y="162.28947368421052"/>
      <point x="397.07894736842104" y="158.0"/>
      <point x="294.4736842105263" y="150.07894736842104" type="curve"/>
      <point x="200.21052631578945" y="150.07894736842104" type="line"/>
    </contour>
  </outline>
</glyph>
<glyph name="M" format="2">
  <advance width="964.1578947368422"/>
  <unicode hex="004D"/>
  <anchor x="428.92105263157896" y="0.0" name="bottom"/>
  <anchor x="578.921052631579" y="713.0" name="top"/>
  <outline>
    <contour>
      <point x="-16.78947368421053" y="0.0" type="curve"/>
      <point x="173.5263157894737" y="0.0" type="line"/>
      <point x="198.15789473684208" y="94.31578947368422"/>
      <point x="222.10526315789474" y="183.6315789473684"/>
      <point x="242.3421052631579" y="261.13157894736844" type="curve"/>
      <point x="297.0263157894737" y="425.57894736842104" type="line"/>
      <point x="308.57894736842104" y="425.57894736842104" type="line"/>
      <point x="337.9473684210526" y="248.3421052631579" type="line"/>
      <point x="346.50000000000006" y="165.76315789473685"/>
      <point x="355.42105263157896" y="74.07894736842104"/>
      <point x="362.60526315789474" y="0.0" type="curve"/>
      <point x="502.8157894736842" y="0.0" type="line"/>
      <point x="540.8947368421051" y="75.13157894736842"/>
      <point x="585.1052631578947" y="163.76315789473685"/>
      <point x="628.6052631578948" y="249.02631578947367" type="curve"/>
      <point x="724.578947368421" y="425.57894736842104" type="line"/>
      <point x="736.1315789473683" y="425.57894736842104" type="line"/>
      <point x="721.3684210526316" y="261.13157894736844" type="line"/>
      <point x="708.7105263157895" y="183.60526315789474"/>
      <point x="695.0526315789475" y="96.34210526315789"/>
      <point x="680.0526315789474" y="0.0" type="curve"/>
      <point x="875.2894736842106" y="0.0" type="line"/>
      <point x="877.684210526316" y="75.73684210526315"/>
      <point x="879.7368421052631" y="145.42105263157896"/>
      <point x="882.1315789473684" y="232.07894736842104" type="curve"/>
      <point x="902.1578947368421" y="472.3421052631579" type="line"/>
      <point x="913.7894736842105" y="559.0263157894738"/>
      <point x="923.421052631579" y="633.6315789473684"/>
      <point x="933.3947368421052" y="713.0" type="curve"/>
      <point x="731.8684210526316" y="713.0" type="line"/>
      <point x="689.1315789473684" y="630.2105263157894"/>
      <point x="652.7368421052632" y="559.3947368421052"/>
      <point x="614.0" y="484.57894736842104" type="curve"/>
      <point x="490.2631578947368" y="266.8421052631579" type="line"/>
      <point x="479.0263157894737" y="266.8421052631579" type="line"/>
      <point x="442.63157894736844" y="484.57894736842104" type="line"/>
      <point x="434.13157894736844" y="559.0526315789474"/>
      <point x="426.2894736842106" y="632.1842105263158"/>
      <point x="417.44736842105266" y="713.0" type="curve"/>
      <point x="222.1842105263158" y="713.0" type="line"/>
      <point x="199.47368421052633" y="633.6315789473684"/>
      <point x="177.78947368421055" y="558.0000000000001"/>
      <point x="153.42105263157896" y="472.3421052631579" type="curve"/>
      <point x="73.44736842105264" y="232.07894736842104" type="line"/>
      <point x="40.15789473684211" y="146.39473684210526"/>
      <point x="11.868421052631575" y="74.42105263157896"/>
    </contour>
  </outline>
</glyph>
<glyph name="O" format="2">
  <advance width="813.7368421052631"/>
  <unicode hex="004F"/>
  <anchor x="354.7105263157895" y="0.0" name="bottom"/>
  <anchor x="429.7105263157895" y="357.0" name="center"/>
  <anchor x="499.5263157894737" y="0.0" name="ogonek"/>
  <anchor x="504.7105263157895" y="713.0" name="top"/>
  <anchor x="122.71052631578948" y="713.0" name="topleft"/>
  <anchor x="792.3157894736842" y="713.0" name="topright"/>
  <outline>
    <contour>
      <point x="401.02631578947364" y="-13.605263157894736" type="curve" smooth="yes"/>
      <point x="612.0526315789474" y="-13.605263157894736"/>
      <point x="750.4473684210526" y="119.6842105263158"/>
      <point x="791.7631578947369" y="312.9473684210526" type="curve" smooth="yes"/>
      <point x="839.421052631579" y="534.921052631579"/>
      <point x="716.3947368421053" y="727.6315789473684"/>
      <point x="460.44736842105266" y="727.6315789473684" type="curve" smooth="yes"/>
      <point x="248.05263157894734" y="727.6315789473684"/>
      <point x="108.97368421052632" y="600.9473684210527"/>
      <point x="66.28947368421052" y="399.57894736842104" type="curve" smooth="yes"/>
      <point x="20.28947368421052" y="181.92105263157896"/>
      <point x="137.13157894736844" y="-13.605263157894736"/>
    </contour>
    <contour>
      <point x="403.65789473684214" y="127.94736842105264" type="curve"/>
      <point x="280.5526315789474" y="137.21052631578948"/>
      <point x="211.5263157894737" y="239.50000000000003"/>
      <point x="241.05263157894737" y="377.7894736842105" type="curve" smooth="yes"/>
      <point x="267.5526315789474" y="500.2105263157895"/>
      <point x="342.42105263157896" y="578.1315789473684"/>
      <point x="458.4736842105263" y="586.078947368421" type="curve"/>
      <point x="584.5" y="576.8157894736842"/>
      <point x="644.8947368421053" y="468.4736842105263"/>
      <point x="615.6842105263158" y="331.7894736842105" type="curve" smooth="yes"/>
      <point x="590.578947368421" y="211.23684210526318"/>
      <point x="515.7105263157895" y="134.57894736842107"/>
    </contour>
  </outline>
</glyph>
<glyph name="P" format="2">
  <advance width="654.6504854368932"/>
  <unicode hex="0050"/>
  <outline>
    <contour>
      <point x="381.12621359223306" y="244.0776699029126" type="curve"/>
      <point x="564.4854368932039" y="244.0776699029126"/>
      <point x="641.126213592233" y="320.55339805825236"/>
      <point x="670.6019417475728" y="463.45631067961165" type="curve" smooth="yes"/>
      <point x="705.9223300970873" y="632.8446601941747"/>
      <point x="622.3883495145632" y="718.1067961165049"/>
      <point x="448.1165048543689" y="718.1067961165049" type="curve"/>
      <point x="321.89320388349506" y="715.73786407767"/>
      <point x="226.3009708737864" y="714.3689320388349"/>
      <point x="155.50485436893206" y="713.0" type="curve"/>
      <point x="297.1359223300972" y="578.4854368932038" type="line"/>
      <point x="413.52427184466023" y="578.4854368932038" type="line" smooth="yes"/>
      <point x="464.82524271844665" y="578.4854368932038"/>
      <point x="513.3786407766991" y="550.3786407766991"/>
      <point x="496.4368932038835" y="470.56310679611653" type="curve" smooth="yes"/>
      <point x="481.3883495145631" y="399.8446601941748"/>
      <point x="447.6116504854369" y="376.16504854368935"/>
      <point x="367.2233009708738" y="376.16504854368935" type="curve" smooth="yes"/>
      <point x="246.82524271844665" y="376.16504854368935" type="line"/>
      <point x="219.66019417475732" y="246.44660194174756" type="line"/>
      <point x="259.29126213592235" y="246.07766990291262"/>
      <point x="331.495145631068" y="245.0776699029126"/>
    </contour>
    <contour>
      <point x="5.5048543689320315" y="0.0" type="curve"/>
      <point x="201.83495145631065" y="0.0" type="line"/>
      <point x="214.35922330097088" y="76.52427184466019"/>
      <point x="223.252427184466" y="142.41747572815527"/>
      <point x="237.14563106796118" y="232.15533980582524" type="curve"/>
      <point x="282.6699029126214" y="447.252427184466" type="line"/>
      <point x="307.1456310679613" y="539.7281553398058"/>
      <point x="326.25242718446606" y="607.3592233009708"/>
      <point x="346.99029126213594" y="685.6213592233009" type="curve"/>
      <point x="155.50485436893206" y="713.0" type="line"/>
      <point x="142.98058252427182" y="635.3689320388349"/>
      <point x="133.0873786407767" y="569.2135922330098"/>
      <point x="118.8252427184466" y="473.36893203883494" type="curve"/>
      <point x="67.45631067961165" y="232.15533980582524" type="line"/>
      <point x="42.98058252427183" y="142.04854368932038"/>
      <point x="26.24271844660193" y="77.15533980582524"/>
    </contour>
  </outline>
</glyph>
<glyph name="R" format="2">
  <advance width="698.9126213592233"/>
  <unicode hex="0052"/>
  <anchor x="297.2718446601942" y="0.0" name="bottom"/>
  <anchor x="438.0485436893204" y="713.0" name="top"/>
  <outline>
    <contour>
      <point x="422.747572815534" y="0.0" type="curve"/>
      <point x="639.7669902912621" y="0.0" type="line"/>
      <point x="611.0873786407766" y="55.63106796116505"/>
      <point x="567.1456310679611" y="141.4757281553398"/>
      <point x="532.8349514563106" y="207.84466019417476" type="curve"/>
      <point x="467.05825242718447" y="351.3203883495146" type="line"/>
      <point x="389.55339805825247" y="290.20388349514565" type="line"/>
      <point x="566.5436893203884" y="289.57281553398064"/>
      <point x="644.8155339805825" y="353.56310679611653"/>
      <point x="671.5533980582524" y="480.1456310679611" type="curve" smooth="yes"/>
      <point x="704.1359223300971" y="633.5825242718447"/>
      <point x="617.4951456310679" y="718.1067961165049"/>
      <point x="441.8543689320388" y="718.1067961165049" type="curve"/>
      <point x="339.37864077669906" y="716.73786407767"/>
      <point x="233.14563106796115" y="714.3689320388349"/>
      <point x="155.50485436893203" y="713.0" type="curve"/>
      <point x="257.22330097087377" y="578.8543689320388" type="line"/>
      <point x="408.2621359223301" y="578.8543689320388" type="line" smooth="yes"/>
      <point x="459.9320388349515" y="578.8543689320388"/>
      <point x="507.8543689320388" y="554.378640776699"/>
      <point x="491.9126213592233" y="478.93203883495147" type="curve" smooth="yes"/>
      <point x="475.2330097087379" y="401.42718446601947"/>
      <point x="435.9805825242719" y="382.22330097087377"/>
      <point x="361.8058252427184" y="382.22330097087377" type="curve" smooth="yes"/>
      <point x="236.98058252427185" y="382.22330097087377" type="line"/>
      <point x="211.6601941747573" y="261.7281553398058" type="line"/>
      <point x="384.87378640776706" y="261.7281553398058" type="line"/>
      <point x="297.73786407766994" y="342.3203883495146" type="line"/>
      <point x="371.93203883495136" y="154.252427184466" type="line"/>
      <point x="387.6601941747573" y="106.94174757281554"/>
      <point x="404.388349514563" y="57.89320388349515"/>
    </contour>
    <contour>
      <point x="5.5048543689320315" y="0.0" type="curve"/>
      <point x="202.4660194174757" y="0.0" type="line"/>
      <point x="214.35922330097085" y="76.52427184466019"/>
      <point x="223.25242718446606" y="141.15533980582518"/>
      <point x="237.14563106796118" y="232.15533980582524" type="curve"/>
      <point x="282.66990291262135" y="447.252427184466" type="line"/>
      <point x="307.14563106796123" y="539.7281553398058"/>
      <point x="326.25242718446606" y="607.3592233009709"/>
      <point x="346.99029126213594" y="685.6213592233009" type="curve"/>
      <point x="155.50485436893206" y="713.0" type="line"/>
      <point x="142.98058252427182" y="635.3689320388349"/>
      <point x="133.0873786407767" y="569.2135922330098"/>
      <point x="118.8252427184466" y="473.36893203883494" type="curve"/>
      <point x="67.45631067961165" y="232.15533980582524" type="line"/>
      <point x="42.98058252427183" y="142.04854368932038"/>
      <point x="26.24271844660193" y="77.15533980582524"/>
    </contour>
  </outline>
</glyph>
<glyph name="S" format="2">
  <advance width="602.1165048543689"/>
  <unicode hex="0053"/>
  <anchor x="249.95145631067965" y="0.0" name="bottom"/>
  <anchor x="399.95145631067965" y="713.0" name="top"/>
  <outline>
    <contour>
      <point x="275.58252427184476" y="-13.475728155339805" type="curve" smooth="yes"/>
      <point x="450.43689320388347" y="-13.475728155339805"/>
      <point x="531.2815533980582" y="45.048543689320404"/>
      <point x="559.126213592233" y="177.9029126213592" type="curve" smooth="yes"/>
      <point x="581.2330097087379" y="283.06796116504853"/>
      <point x="539.495145631068" y="350.8543689320389"/>
      <point x="387.70873786407765" y="413.00970873786406" type="curve" smooth="yes"/>
      <point x="297.8349514563107" y="450.36893203883494"/>
      <point x="267.8932038834952" y="481.0485436893204"/>
      <point x="277.9417475728156" y="528.7669902912621" type="curve" smooth="yes"/>
      <point x="287.3592233009709" y="573.5922330097087"/>
      <point x="334.3398058252427" y="585.378640776699"/>
      <point x="381.4271844660194" y="587.378640776699" type="curve"/>
      <point x="400.32038834951453" y="587.378640776699"/>
      <point x="492.4271844660195" y="557.3786407766992"/>
      <point x="579.2718446601941" y="523.0097087378641" type="curve"/>
      <point x="623.2330097087379" y="675.6893203883495" type="line"/>
      <point x="547.5922330097088" y="694.6893203883495"/>
      <point x="424.16504854368935" y="727.7378640776699"/>
      <point x="365.63106796116506" y="727.7378640776699" type="curve" smooth="yes"/>
      <point x="204.7766990291262" y="727.7378640776699"/>
      <point x="124.5145631067961" y="665.5242718446601"/>
      <point x="100.0388349514563" y="547.1456310679612" type="curve" smooth="yes"/>
      <point x="74.19417475728154" y="423.18446601941747"/>
      <point x="136.14563106796118" y="356.50485436893206"/>
      <point x="259.1359223300971" y="306.19417475728153" type="curve" smooth="yes"/>
      <point x="344.06796116504853" y="271.3592233009709"/>
      <point x="391.2718446601942" y="241.41747572815538"/>
      <point x="380.8543689320388" y="191.33009708737868" type="curve" smooth="yes"/>
      <point x="370.1747572815534" y="138.66990291262135"/>
      <point x="326.3009708737864" y="126.77669902912623"/>
      <point x="274.73786407766994" y="124.77669902912623" type="curve"/>
      <point x="245.3786407766991" y="124.77669902912623"/>
      <point x="147.8446601941748" y="158.14563106796118"/>
      <point x="49.999999999999986" y="198.40776699029132" type="curve"/>
      <point x="6.88349514563106" y="48.57281553398058" type="line"/>
      <point x="103.57281553398059" y="18.048543689320393"/>
      <point x="221.8446601941747" y="-13.475728155339805"/>
    </contour>
  </outline>
</glyph>
<glyph name="U" format="2">
  <advance width="728.0526315789474"/>
  <unicode hex="0055"/>
  <anchor x="312.3684210526316" y="0.0" name="bottom"/>
  <anchor x="446.60526315789474" y="0.0" name="ogonek"/>
  <anchor x="462.3684210526316" y="713.0" name="top"/>
  <anchor x="804.1052631578948" y="713.0" name="topright"/>
  <outline>
    <contour>
      <point x="330.68421052631584" y="-13.605263157894736" type="curve" smooth="yes"/>
      <point x="551.921052631579" y="-13.605263157894736"/>
      <point x="636.8684210526317" y="95.71052631578947"/>
      <point x="669.8157894736843" y="247.84210526315792" type="curve" smooth="yes"/>
      <point x="678.5000000000001" y="288.60526315789474"/>
      <point x="695.8684210526317" y="386.5526315789474"/>
      <point x="713.8947368421053" y="473.65789473684214" type="curve"/>
      <point x="739.1578947368421" y="568.921052631579"/>
      <point x="756.7894736842105" y="634.6315789473684"/>
      <point x="777.421052631579" y="713.0" type="curve"/>
      <point x="577.921052631579" y="713.0" type="line"/>
      <point x="565.8684210526317" y="635.3157894736843"/>
      <point x="555.8157894736843" y="569.2368421052631"/>
      <point x="541.1052631578948" y="473.65789473684214" type="curve"/>
      <point x="498.6842105263158" y="273.97368421052636" type="line" smooth="yes"/>
      <point x="479.89473684210526" y="186.39473684210523"/>
      <point x="438.94736842105266" y="131.57894736842107"/>
      <point x="343.5263157894737" y="127.94736842105264" type="curve"/>
      <point x="249.7105263157895" y="131.57894736842107"/>
      <point x="223.44736842105266" y="201.52631578947367"/>
      <point x="243.921052631579" y="297.86842105263156" type="curve" smooth="yes"/>
      <point x="281.2894736842106" y="473.65789473684214" type="line"/>
      <point x="306.5526315789474" y="568.921052631579"/>
      <point x="324.18421052631584" y="634.6315789473684"/>
      <point x="344.8157894736843" y="713.0" type="curve"/>
      <point x="145.97368421052633" y="713.0" type="line"/>
      <point x="133.92105263157896" y="635.3157894736843"/>
      <point x="123.86842105263159" y="569.2368421052631"/>
      <point x="109.1578947368421" y="473.65789473684214" type="curve"/>
      <point x="94.47368421052632" y="406.2105263157895"/>
      <point x="76.1578947368421" y="339.5"/>
      <point x="68.81578947368419" y="304.44736842105266" type="curve" smooth="yes"/>
      <point x="30.86842105263157" y="127.36842105263158"/>
      <point x="108.07894736842104" y="-13.605263157894736"/>
    </contour>
  </outline>
</glyph>
<glyph name="V" format="2">
  <advance width="715.3684210526316"/>
  <unicode hex="0056"/>
  <anchor x="306.02631578947364" y="0.0" name="bottom"/>
  <anchor x="456.02631578947364" y="713.0" name="top"/>
  <outline>
    <contour>
      <point x="178.07894736842104" y="0.0" type="curve"/>
      <point x="432.7368421052632" y="0.0" type="line"/>
      <point x="465.5263157894737" y="70.02631578947368"/>
      <point x="506.3421052631579" y="157.39473684210526"/>
      <point x="538.421052631579" y="226.3421052631579" type="curve"/>
      <point x="654.3157894736842" y="450.0" type="line"/>
      <point x="699.3421052631578" y="526.9999999999999"/>
      <point x="756.7105263157895" y="625.3421052631579"/>
      <point x="807.7368421052632" y="713.0" type="curve"/>
      <point x="578.8684210526316" y="713.0" type="line"/>
      <point x="541.8157894736843" y="623.0263157894738"/>
      <point x="500.02631578947364" y="521.0"/>
      <point x="462.9736842105263" y="430.3684210526316" type="curve"/>
      <point x="344.65789473684214" y="174.81578947368422" type="line"/>
      <point x="332.0789473684211" y="174.81578947368422" type="line"/>
      <point x="317.8157894736842" y="429.0263157894737" type="line"/>
      <point x="315.5789473684211" y="518.3421052631579"/>
      <point x="312.3157894736842" y="623.0263157894736"/>
      <point x="310.07894736842104" y="713.0" type="curve"/>
      <point x="103.31578947368419" y="713.0" type="line"/>
      <point x="117.68421052631578" y="627.0"/>
      <point x="134.39473684210526" y="525.9736842105261"/>
      <point x="146.76315789473685" y="449.6578947368421" type="curve"/>
      <point x="168.0263157894737" y="226.3421052631579" type="line"/>
      <point x="171.4736842105263" y="158.3421052631579"/>
      <point x="175.28947368421052" y="72.31578947368422"/>
    </contour>
  </outline>
</glyph>
<glyph name="W" format="2">
  <advance width="1046.3684210526314"/>
  <unicode hex="0057"/>
  <anchor x="468.0526315789474" y="0.0" name="bottom"/>
  <anchor x="618.0526315789474" y="713.0" name="top"/>
  <outline>
    <contour>
      <point x="144.3421052631579" y="0.0" type="curve"/>
      <point x="368.47368421052636" y="0.0" type="line"/>
      <point x="397.4736842105263" y="77.10526315789473"/>
      <point x="431.86842105263156" y="169.97368421052633"/>
      <point x="460.2105263157895" y="244.44736842105263" type="curve"/>
      <point x="554.7368421052631" y="465.42105263157896" type="line"/>
      <point x="567.3157894736843" y="465.42105263157896" type="line"/>
      <point x="571.2894736842105" y="244.44736842105263" type="line"/>
      <point x="569.4210526315788" y="167.3421052631579"/>
      <point x="567.5789473684209" y="77.10526315789474"/>
      <point x="566.0526315789473" y="0.0" type="curve"/>
      <point x="798.421052631579" y="0.0" type="line"/>
      <point x="827.4736842105264" y="67.00000000000001"/>
      <point x="864.2105263157895" y="152.3421052631579"/>
      <point x="895.6052631578948" y="225.3421052631579" type="curve"/>
      <point x="1002.0526315789474" y="450.0" type="line"/>
      <point x="1043.0789473684213" y="526.7105263157895"/>
      <point x="1096.0526315789475" y="627.0"/>
      <point x="1142.0526315789473" y="713.0" type="curve"/>
      <point x="916.4736842105262" y="713.0" type="line"/>
      <point x="885.7894736842105" y="629.2894736842105"/>
      <point x="850.3684210526316" y="530.8157894736842"/>
      <point x="819.3684210526316" y="445.81578947368416" type="curve"/>
      <point x="721.8157894736842" y="204.76315789473685" type="line"/>
      <point x="709.2368421052631" y="204.76315789473685" type="line"/>
      <point x="709.2105263157895" y="444.5" type="line"/>
      <point x="712.0526315789474" y="530.5526315789473"/>
      <point x="715.8684210526314" y="627.9473684210526"/>
      <point x="718.7105263157896" y="713.0" type="curve"/>
      <point x="515.6842105263156" y="713.0" type="line"/>
      <point x="483.7105263157895" y="628.3157894736843"/>
      <point x="445.99999999999994" y="528.1842105263158"/>
      <point x="415.36842105263156" y="446.1578947368421" type="curve"/>
      <point x="315.89473684210526" y="204.76315789473685" type="line"/>
      <point x="303.3157894736842" y="204.76315789473685" type="line"/>
      <point x="306.2105263157895" y="442.10526315789474" type="line"/>
      <point x="310.6842105263158" y="527.8157894736842"/>
      <point x="316.13157894736844" y="627.9473684210525"/>
      <point x="320.60526315789474" y="713.0" type="curve"/>
      <point x="101.0" y="713.0" type="line"/>
      <point x="110.65789473684211" y="628.3421052631578"/>
      <point x="123.31578947368422" y="527.3157894736842"/>
      <point x="132.3157894736842" y="448.2894736842105" type="curve"/>
      <point x="143.44736842105263" y="225.0" type="line"/>
      <point x="144.18421052631575" y="154.0"/>
      <point x="144.6052631578947" y="71.6578947368421"/>
    </contour>
  </outline>
</glyph>
<glyph name="X" format="2">
  <advance width="724.1315789473684"/>
  <unicode hex="0058"/>
  <outline>
    <contour>
      <point x="-38.28947368421053" y="0.0" type="curve"/>
      <point x="196.92105263157893" y="0.0" type="line"/>
      <point x="227.00000000000003" y="49.921052631578945"/>
      <point x="253.97368421052633" y="96.7105263157895"/>
      <point x="282.0263157894737" y="142.6315789473684" type="curve"/>
      <point x="355.4473684210526" y="250.78947368421052" type="line"/>
      <point x="368.0263157894737" y="250.78947368421052" type="line"/>
      <point x="402.2631578947369" y="142.9736842105263" type="line"/>
      <point x="413.52631578947364" y="100.42105263157895"/>
      <point x="425.13157894736844" y="52.89473684210526"/>
      <point x="437.4473684210526" y="0.0" type="curve"/>
      <point x="659.078947368421" y="0.0" type="line"/>
      <point x="623.6578947368421" y="76.0"/>
      <point x="591.578947368421" y="143.65789473684214"/>
      <point x="556.1578947368422" y="219.6578947368421" type="curve"/>
      <point x="496.52631578947376" y="375.9736842105263" type="line"/>
      <point x="487.2631578947369" y="330.6842105263158" type="line"/>
      <point x="613.8421052631579" y="501.1842105263158" type="line"/>
      <point x="662.8947368421053" y="559.5"/>
      <point x="722.9473684210527" y="631.4473684210526"/>
      <point x="790.9473684210527" y="713.0" type="curve"/>
      <point x="554.7368421052631" y="713.0" type="line"/>
      <point x="522.3684210526316" y="658.1578947368421"/>
      <point x="490.2894736842105" y="603.6052631578947"/>
      <point x="461.60526315789474" y="557.078947368421" type="curve"/>
      <point x="399.65789473684214" y="465.0526315789474" type="line"/>
      <point x="387.0789473684211" y="465.0526315789474" type="line"/>
      <point x="359.3157894736842" y="556.3947368421052" type="line"/>
      <point x="348.3947368421053" y="601.6052631578946"/>
      <point x="336.7631578947368" y="656.4736842105262"/>
      <point x="324.4736842105264" y="713.0" type="curve"/>
      <point x="110.07894736842105" y="713.0" type="line"/>
      <point x="145.84210526315792" y="630.3684210526317"/>
      <point x="173.92105263157896" y="563.3684210526316"/>
      <point x="202.99999999999997" y="496.05263157894734" type="curve"/>
      <point x="255.2894736842105" y="348.42105263157896" type="line"/>
      <point x="264.8684210526316" y="390.42105263157896" type="line"/>
      <point x="131.89473684210526" y="209.5263157894737" type="line"/>
      <point x="71.81578947368419" y="135.89473684210526"/>
      <point x="18.736842105263165" y="70.57894736842103"/>
    </contour>
  </outline>
</glyph>
<glyph name="Y" format="2">
  <advance width="684.2631578947369"/>
  <unicode hex="0059"/>
  <anchor x="291.94736842105266" y="0.0" name="bottom"/>
  <anchor x="443.2631578947369" y="713.0" name="top"/>
  <anchor x="117.34210526315788" y="713.0" name="topleft"/>
  <outline>
    <contour>
      <point x="271.5263157894737" y="248.68421052631578" type="line"/>
      <point x="423.2368421052632" y="248.68421052631578" type="line"/>
      <point x="630.6842105263157" y="530.6052631578947" type="line"/>
      <point x="677.3421052631579" y="587.2105263157895"/>
      <point x="726.6578947368421" y="647.4736842105262"/>
      <point x="779.9210526315791" y="713.0" type="curve"/>
      <point x="544.7368421052631" y="713.0" type="line"/>
      <point x="501.81578947368416" y="633.3421052631579"/>
      <point x="479.5" y="593.1578947368421"/>
      <point x="443.6842105263158" y="526.8947368421053" type="curve"/>
      <point x="382.0263157894737" y="427.8157894736842" type="line"/>
      <point x="370.10526315789474" y="427.8157894736842" type="line"/>
      <point x="346.3157894736842" y="529.2631578947369" type="line"/>
      <point x="336.0" y="592.5"/>
      <point x="329.7894736842106" y="632.3421052631579"/>
      <point x="316.71052631578954" y="713.0" type="curve"/>
      <point x="102.02631578947367" y="713.0" type="line"/>
      <point x="133.0" y="640.4473684210526"/>
      <point x="154.97368421052633" y="589.5263157894738"/>
      <point x="180.28947368421052" y="530.6052631578947" type="curve"/>
    </contour>
    <contour>
      <point x="193.02631578947364" y="0.0" type="curve"/>
      <point x="393.18421052631584" y="0.0" type="line"/>
      <point x="404.57894736842104" y="75.07894736842105"/>
      <point x="414.2894736842106" y="140.1052631578947"/>
      <point x="428.3421052631579" y="232.07894736842104" type="curve"/>
      <point x="462.47368421052636" y="393.7631578947369" type="line"/>
      <point x="289.02631578947364" y="393.7631578947369" type="line"/>
      <point x="254.89473684210523" y="232.07894736842104" type="line"/>
      <point x="230.6315789473684" y="141.78947368421052"/>
      <point x="213.65789473684208" y="77.07894736842104"/>
    </contour>
  </outline>
</glyph>
<glyph name="Z" format="2">
  <advance width="688.6052631578948"/>
  <unicode hex="005A"/>
  <anchor x="291.8157894736842" y="0.0" name="bottom"/>
  <anchor x="366.8157894736842" y="357.0" name="center"/>
  <anchor x="441.8157894736842" y="713.0" name="top"/>
  <outline>
    <contour>
      <point x="-14.105263157894736" y="0.0" type="line"/>
      <point x="595.6842105263158" y="0.0" type="line"/>
      <point x="630.0" y="161.65789473684214" type="line"/>
      <point x="558.1052631578947" y="156.7105263157895"/>
      <point x="446.02631578947364" y="148.78947368421055"/>
      <point x="367.10526315789474" y="142.84210526315792" type="curve"/>
      <point x="206.5263157894737" y="142.84210526315792" type="line"/>
      <point x="222.47368421052636" y="87.89473684210527" type="line"/>
      <point x="524.7894736842106" y="398.9473684210526" type="line"/>
      <point x="589.7105263157895" y="461.92105263157896"/>
      <point x="653.9736842105264" y="525.2368421052632"/>
      <point x="712.6578947368421" y="582.6315789473683" type="curve"/>
      <point x="740.0526315789474" y="713.0" type="line"/>
      <point x="146.5" y="713.0" type="line"/>
      <point x="112.52631578947368" y="549.0526315789473" type="line"/>
      <point x="202.4736842105263" y="556.6315789473684"/>
      <point x="286.07894736842104" y="563.8947368421052"/>
      <point x="360.3157894736842" y="570.1578947368421" type="curve"/>
      <point x="537.2631578947368" y="570.1578947368421" type="line"/>
      <point x="514.2631578947368" y="622.3684210526316" type="line"/>
      <point x="220.8421052631579" y="316.2631578947368" type="line"/>
      <point x="153.28947368421055" y="250.6578947368421"/>
      <point x="60.6578947368421" y="160.28947368421055"/>
      <point x="9.342105263157897" y="110.26315789473685" type="curve"/>
    </contour>
  </outline>
</glyph>
<glyph name="bracketleft" format="2">
  <advance width="410.7894736842105"/>
  <unicode hex="005B"/>
  <outline>
    <contour>
      <point x="-15.34210526315789" y="-123.84210526315789" type="curve"/>
      <point x="151.5789473684211" y="-123.84210526315789" type="line"/>
      <point x="156.84210526315792" y="-96.5" type="line"/>
      <point x="168.8947368421053" y="-20.105263157894736"/>
      <point x="178.28947368421055" y="46.28947368421053"/>
      <point x="192.00000000000003" y="135.92105263157896" type="curve"/>
      <point x="270.7105263157895" y="509.13157894736844" type="line"/>
      <point x="294.97368421052636" y="601.3947368421053"/>
      <point x="313.6052631578948" y="669.421052631579"/>
      <point x="334.2368421052632" y="747.7894736842105" type="curve"/>
      <point x="340.50000000000006" y="775.1315789473684" type="line"/>
      <point x="173.57894736842104" y="775.1315789473684" type="line"/>
      <point x="160.21052631578945" y="695.4473684210527"/>
      <point x="149.1578947368421" y="630.7105263157895"/>
      <point x="134.78947368421052" y="536.4736842105264" type="curve"/>
      <point x="44.55263157894737" y="108.23684210526315" type="line"/>
      <point x="21.263157894736846" y="18.605263157894736"/>
      <point x="3.9736842105263204" y="-48.76315789473684"/>
    </contour>
    <contour>
      <point x="118.89473684210526" y="-123.84210526315789" type="line"/>
      <point x="309.0" y="-123.84210526315789" type="line"/>
      <point x="336.7105263157895" y="9.131578947368428" type="line"/>
      <point x="290.34210526315786" y="6.500000000000007"/>
      <point x="243.26315789473685" y="3.526315789473691"/>
      <point x="185.578947368421" y="0.23684210526316463" type="curve"/>
      <point x="144.6315789473684" y="0.23684210526316463" type="line"/>
    </contour>
    <contour>
      <point x="270.89473684210526" y="651.0526315789474" type="line"/>
      <point x="313.44736842105266" y="651.0526315789474" type="line"/>
      <point x="378.842105263158" y="647.7631578947369"/>
      <point x="424.5526315789474" y="644.7894736842106"/>
      <point x="466.92105263157896" y="642.1578947368421" type="curve"/>
      <point x="494.97368421052636" y="775.1315789473684" type="line"/>
      <point x="297.2894736842105" y="775.1315789473684" type="line"/>
    </contour>
  </outline>
</glyph>
<glyph name="backslash" format="2">
  <advance width="468.92105263157896"/>
  <unicode hex="005C"/>
  <outline>
    <contour>
      <point x="243.92105263157896" y="0.0" type="curve"/>
      <point x="410.5" y="0.0" type="line"/>
      <point x="391.5" y="75.63157894736842"/>
      <point x="375.5" y="137.97368421052633"/>
      <point x="352.8157894736842" y="228.0" type="curve"/>
      <point x="305.6315789473684" y="475.6578947368421" type="line"/>
      <point x="292.5" y="570.3421052631579"/>
      <point x="283.7368421052632" y="636.0263157894738"/>
      <point x="272.97368421052636" y="713.0" type="curve"/>
      <point x="107.71052631578947" y="713.0" type="line"/>
      <point x="127.05263157894737" y="633.0263157894738"/>
      <point x="142.73684210526315" y="568.0"/>
      <point x="165.42105263157893" y="474.3421052631579" type="curve"/>
      <point x="211.94736842105263" y="228.0" type="line"/>
      <point x="224.73684210526315" y="136.0"/>
      <point x="233.8157894736842" y="74.0"/>
    </contour>
  </outline>
</glyph>
<glyph name="asciicircum" format="2">
  <advance width="634.7368421052631"/>
  <unicode hex="005E"/>
  <outline>
    <contour>
      <point x="483.7894736842105" y="357.8157894736842" type="curve"/>
      <point x="611.5526315789474" y="359.4736842105263" type="line"/>
      <point x="574.7368421052631" y="468.9736842105263"/>
      <point x="538.263157894737" y="578.4473684210526"/>
      <point x="501.44736842105266" y="687.9473684210526" type="curve"/>
      <point x="289.57894736842104" y="687.9473684210526" type="line"/>
      <point x="216.73684210526312" y="579.4473684210526"/>
      <point x="143.23684210526315" y="469.9736842105263"/>
      <point x="70.39473684210526" y="361.4736842105263" type="curve"/>
      <point x="214.68421052631578" y="361.4736842105263" type="line"/>
      <point x="269.34210526315786" y="427.078947368421"/>
      <point x="321.7105263157895" y="489.73684210526324"/>
      <point x="376.36842105263156" y="555.3421052631579" type="curve"/>
      <point x="388.2894736842105" y="555.3421052631579" type="line"/>
      <point x="419.7894736842105" y="490.05263157894734"/>
      <point x="452.2894736842105" y="423.10526315789474"/>
    </contour>
  </outline>
</glyph>
<glyph name="underscore" format="2">
  <advance width="432.63157894736844"/>
  <unicode hex="005F"/>
  <outline>
    <contour>
      <point x="-99.42105263157896" y="-172.89473684210526" type="line"/>
      <point x="-30.236842105263154" y="-170.57894736842104"/>
      <point x="43.684210526315795" y="-168.26315789473685"/>
      <point x="93.81578947368419" y="-166.94736842105263" type="curve"/>
      <point x="163.28947368421052" y="-166.94736842105263" type="line"/>
      <point x="212.10526315789474" y="-168.26315789473685"/>
      <point x="284.0263157894737" y="-170.57894736842104"/>
      <point x="353.21052631578954" y="-172.89473684210526" type="curve"/>
      <point x="382.57894736842104" y="-34.31578947368421" type="line"/>
      <point x="312.7368421052632" y="-36.63157894736842"/>
      <point x="238.81578947368422" y="-38.94736842105263"/>
      <point x="189.3421052631579" y="-40.26315789473684" type="curve"/>
      <point x="119.86842105263156" y="-40.26315789473684" type="line"/>
      <point x="70.39473684210526" y="-38.94736842105263"/>
      <point x="-1.5263157894736787" y="-36.63157894736842"/>
      <point x="-70.05263157894737" y="-34.31578947368421" type="curve"/>
    </contour>
  </outline>
</glyph>
<glyph name="a" format="2">
  <advance width="533.0000000000001"/>
  <unicode hex="0061"/>
  <anchor x="210.73786407766997" y="0.0" name="bottom"/>
  <anchor x="422.6990291262136" y="0.0" name="ogonek"/>
  <anchor x="316.73786407766994" y="499.47572815533977" name="top"/>
  <outline>
    <contour>
      <point x="138.873786407767" y="-12.106796116504855" type="curve" smooth="yes"/>
      <point x="168.07766990291256" y="-12.106796116504855"/>
      <point x="230.07766990291253" y="18.32038834951456"/>
      <point x="288.8640776699029" y="59.951456310679596" type="curve"/>
      <point x="300.3398058252427" y="59.951456310679596" type="line"/>
      <point x="305.49514563106794" y="0.0" type="line"/>
      <point x="453.6990291262136" y="0.0" type="line"/>
      <point x="454.43689320388347" y="61.42718446601942"/>
      <point x="455.54368932038835" y="114.6990291262136"/>
      <point x="457.28155339805835" y="165.28155339805826" type="curve"/>
      <point x="467.69902912621365" y="211.36893203883494" type="line" smooth="yes"/>
      <point x="475.9611650485437" y="248.41747572815532"/>
      <point x="486.06796116504853" y="281.0485436893204"/>
      <point x="493.06796116504853" y="314.8932038834951" type="curve" smooth="yes"/>
      <point x="518.3300970873787" y="436.3203883495146"/>
      <point x="446.4271844660193" y="512.9514563106796"/>
      <point x="299.0" y="512.9514563106796" type="curve" smooth="yes"/>
      <point x="268.47572815533977" y="512.9514563106796"/>
      <point x="155.62135922330097" y="494.5825242718446"/>
      <point x="105.14563106796116" y="486.5825242718447" type="curve"/>
      <point x="80.61165048543688" y="342.9126213592233" type="line"/>
      <point x="148.29126213592235" y="361.6990291262136"/>
      <point x="239.30097087378638" y="385.0679611650485"/>
      <point x="254.08737864077673" y="385.0679611650485" type="curve" smooth="yes"/>
      <point x="322.81553398058253" y="385.0679611650485"/>
      <point x="354.1747572815534" y="355.86407766990294"/>
      <point x="344.495145631068" y="314.3592233009709" type="curve"/>
      <point x="189.8252427184466" y="290.31067961165047" type="line" smooth="yes"/>
      <point x="106.93203883495146" y="277.41747572815535"/>
      <point x="33.03883495145631" y="249.31067961165053"/>
      <point x="13.038834951456305" y="156.3106796116505" type="curve" smooth="yes"/>
      <point x="-6.5922330097087425" y="65.67961165048544"/>
      <point x="43.825242718446596" y="-12.106796116504855"/>
    </contour>
    <contour>
      <point x="213.54368932038838" y="108.19417475728156" type="curve" smooth="yes"/>
      <point x="181.76699029126218" y="108.19417475728156"/>
      <point x="159.71844660194174" y="128.39805825242718"/>
      <point x="166.2427184466019" y="164.0194174757282" type="curve" smooth="yes"/>
      <point x="172.76699029126212" y="198.37864077669903"/>
      <point x="201.9708737864078" y="209.79611650485435"/>
      <point x="238.7961165048544" y="217.95145631067962" type="curve" smooth="yes"/>
      <point x="295.6116504854369" y="230.63106796116506"/>
      <point x="312.1844660194176" y="237.15533980582526"/>
      <point x="326.33980582524276" y="247.89320388349512" type="curve"/>
      <point x="308.8155339805826" y="164.48543689320388" type="line"/>
      <point x="264.15533980582524" y="127.76699029126215"/>
      <point x="225.48543689320385" y="108.19417475728156"/>
    </contour>
  </outline>
</glyph>
<glyph name="c" format="2">
  <advance width="483.57894736842104"/>
  <unicode hex="0063"/>
  <anchor x="226.8157894736842" y="0.0" name="bottom"/>
  <anchor x="329.05263157894734" y="499.2631578947368" name="top"/>
  <outline>
    <contour>
      <point x="285.55263157894734" y="-11.631578947368421" type="curve" smooth="yes"/>
      <point x="315.6315789473685" y="-11.631578947368421"/>
      <point x="374.6842105263158" y="2.7894736842105257"/>
      <point x="401.6842105263158" y="11.815789473684209" type="curve"/>
      <point x="422.07894736842104" y="148.84210526315792" type="line"/>
      <point x="389.6842105263158" y="135.10526315789474"/>
      <point x="332.2894736842105" y="117.42105263157895"/>
      <point x="315.8157894736842" y="117.07894736842105" type="curve" smooth="yes"/>
      <point x="228.1578947368421" y="119.07894736842105"/>
      <point x="174.8684210526316" y="171.92105263157896"/>
      <point x="195.6842105263158" y="266.3421052631579" type="curve" smooth="yes"/>
      <point x="212.50000000000003" y="340.1052631578947"/>
      <point x="262.05263157894734" y="375.55263157894734"/>
      <point x="327.34210526315786" y="380.55263157894734" type="curve"/>
      <point x="340.07894736842115" y="380.55263157894734"/>
      <point x="402.47368421052636" y="361.5263157894737"/>
      <point x="459.2368421052631" y="338.4736842105263" type="curve"/>
      <point x="497.86842105263156" y="473.7894736842105" type="line"/>
      <point x="442.7368421052632" y="491.42105263157896"/>
      <point x="356.7368421052631" y="512.5526315789474"/>
      <point x="327.0263157894737" y="512.5526315789474" type="curve" smooth="yes"/>
      <point x="169.39473684210526" y="512.5526315789474"/>
      <point x="67.6842105263158" y="419.5263157894737"/>
      <point x="38.36842105263158" y="280.2368421052631" type="curve" smooth="yes"/>
      <point x="1.4210526315789487" y="103.76315789473685"/>
      <point x="103.5" y="-11.631578947368421"/>
    </contour>
  </outline>
</glyph>
<glyph name="h" format="2">
  <advance width="587.7368421052631"/>
  <unicode hex="0068"/>
  <guideline x="134.89473684210526" y="738.8947368421053" angle="4.470799999999997"/>
  <anchor x="244.89473684210523" y="0.0" name="bottom"/>
  <anchor x="330.89473684210526" y="409.0" name="center"/>
  <anchor x="373.31578947368416" y="729.578947368421" name="top"/>
  <outline>
    <contour>
      <point x="-3.9736842105263177" y="0.0" type="curve"/>
      <point x="177.73684210526318" y="0.0" type="line"/>
      <point x="188.78947368421052" y="71.05263157894737"/>
      <point x="197.18421052631578" y="132.76315789473685"/>
      <point x="208.92105263157896" y="207.18421052631578" type="curve"/>
      <point x="231.3421052631579" y="312.5526315789474" type="line"/>
      <point x="263.86842105263156" y="343.36842105263156"/>
      <point x="312.68421052631584" y="370.6842105263158"/>
      <point x="332.0526315789474" y="370.6842105263158" type="curve" smooth="yes"/>
      <point x="381.02631578947376" y="370.6842105263158"/>
      <point x="392.5526315789474" y="332.4473684210526"/>
      <point x="377.13157894736844" y="263.6578947368421" type="curve"/>
      <point x="366.0263157894737" y="207.18421052631578" type="line"/>
      <point x="346.3684210526316" y="132.76315789473682"/>
      <point x="330.39473684210526" y="71.05263157894737"/>
      <point x="311.42105263157896" y="0.0" type="curve"/>
      <point x="491.8157894736842" y="0.0" type="line"/>
      <point x="502.8684210526316" y="71.05263157894737"/>
      <point x="511.26315789473693" y="132.76315789473682"/>
      <point x="524.3157894736842" y="215.73684210526315" type="curve"/>
      <point x="532.3157894736842" y="254.3947368421052"/>
      <point x="544.2368421052631" y="292.5526315789474"/>
      <point x="550.2368421052631" y="320.8684210526316" type="curve" smooth="yes"/>
      <point x="575.2631578947369" y="437.6052631578948"/>
      <point x="528.6052631578947" y="513.2105263157895"/>
      <point x="421.5526315789474" y="513.2105263157895" type="curve" smooth="yes"/>
      <point x="381.94736842105266" y="513.2105263157895"/>
      <point x="317.02631578947364" y="472.63157894736844"/>
      <point x="269.71052631578954" y="432.97368421052624" type="curve"/>
      <point x="256.8157894736843" y="432.97368421052624" type="line"/>
      <point x="269.55263157894746" y="493.3421052631579" type="line"/>
      <point x="295.13157894736844" y="585.578947368421"/>
      <point x="317.73684210526324" y="669.1842105263157"/>
      <point x="340.36842105263156" y="747.8947368421052" type="curve"/>
      <point x="138.5" y="730.9736842105264" type="line"/>
      <point x="131.07894736842107" y="651.7368421052632"/>
      <point x="122.65789473684211" y="574.3947368421053"/>
      <point x="113.23684210526315" y="493.3421052631579" type="curve"/>
      <point x="54.57894736842105" y="215.73684210526315" type="line"/>
      <point x="31.63157894736842" y="132.76315789473685"/>
      <point x="15.657894736842103" y="71.05263157894737"/>
    </contour>
  </outline>
</glyph>
<glyph name="k" format="2">
  <advance width="582.4473684210526"/>
  <unicode hex="006B"/>
  <anchor x="239.02631578947367" y="0.0" name="bottom"/>
  <anchor x="392.34210526315786" y="729.578947368421" name="top"/>
  <outline>
    <contour>
      <point x="326.8421052631579" y="0.0" type="curve"/>
      <point x="530.1578947368422" y="0.0" type="line"/>
      <point x="488.57894736842104" y="60.94736842105263"/>
      <point x="446.3421052631579" y="122.21052631578948"/>
      <point x="404.7631578947369" y="183.1578947368421" type="curve"/>
      <point x="335.4473684210526" y="299.7894736842105" type="line"/>
      <point x="358.21052631578954" y="230.78947368421052" type="line"/>
      <point x="441.60526315789474" y="319.05263157894734" type="line"/>
      <point x="501.5263157894737" y="379.3421052631579"/>
      <point x="561.1315789473684" y="438.9736842105263"/>
      <point x="621.7368421052631" y="499.2631578947368" type="curve"/>
      <point x="413.07894736842104" y="499.2631578947368" type="line"/>
      <point x="379.31578947368416" y="456.1842105263158"/>
      <point x="345.21052631578954" y="413.42105263157896"/>
      <point x="311.44736842105266" y="370.3421052631579" type="curve"/>
      <point x="251.13157894736844" y="300.2105263157895" type="line"/>
      <point x="215.8684210526316" y="300.2105263157895" type="line"/>
      <point x="194.07894736842107" y="197.21052631578948" type="line"/>
      <point x="228.60526315789474" y="197.21052631578948" type="line"/>
      <point x="270.3157894736842" y="121.34210526315789" type="line"/>
      <point x="289.7105263157895" y="80.89473684210526"/>
      <point x="308.4473684210526" y="40.44736842105263"/>
    </contour>
    <contour>
      <point x="-3.9736842105263177" y="0.0" type="curve"/>
      <point x="177.73684210526318" y="0.0" type="line"/>
      <point x="186.1578947368421" y="63.1578947368421"/>
      <point x="193.89473684210526" y="118.28947368421052"/>
      <point x="204.31578947368422" y="184.81578947368422" type="curve"/>
      <point x="269.55263157894746" y="493.3421052631579" type="line"/>
      <point x="295.13157894736844" y="585.578947368421"/>
      <point x="317.73684210526324" y="669.1842105263157"/>
      <point x="340.36842105263156" y="747.8947368421052" type="curve"/>
      <point x="138.5" y="730.9736842105264" type="line"/>
      <point x="131.07894736842107" y="651.7368421052632"/>
      <point x="122.65789473684211" y="574.3947368421053"/>
      <point x="113.23684210526315" y="493.3421052631579" type="curve"/>
      <point x="54.57894736842105" y="215.73684210526315" type="line"/>
      <point x="31.63157894736842" y="132.76315789473685"/>
      <point x="15.657894736842103" y="71.05263157894737"/>
    </contour>
  </outline>
</glyph>
<glyph name="l" format="2">
  <advance width="280.10526315789474"/>
  <unicode hex="006C"/>
  <anchor x="87.05263157894737" y="0.0" name="bottom"/>
  <anchor x="177.3421052631579" y="409.0" name="center"/>
  <anchor x="235.78947368421052" y="729.578947368421" name="top"/>
  <anchor x="300.6052631578947" y="499.2631578947368" name="topright"/>
  <outline>
    <contour>
      <point x="-3.9736842105263177" y="0.0" type="curve"/>
      <point x="177.73684210526318" y="0.0" type="line"/>
      <point x="188.78947368421052" y="71.05263157894737"/>
      <point x="198.18421052631578" y="132.76315789473685"/>
      <point x="210.89473684210526" y="215.73684210526315" type="curve"/>
      <point x="269.55263157894746" y="493.3421052631579" type="line"/>
      <point x="295.13157894736844" y="585.578947368421"/>
      <point x="317.73684210526324" y="669.1842105263157"/>
      <point x="340.36842105263156" y="747.8947368421052" type="curve"/>
      <point x="138.5" y="730.9736842105264" type="line"/>
      <point x="131.07894736842107" y="651.7368421052631"/>
      <point x="122.65789473684211" y="574.3947368421053"/>
      <point x="113.23684210526315" y="493.3421052631579" type="curve"/>
      <point x="54.57894736842105" y="215.73684210526315" type="line"/>
      <point x="31.63157894736842" y="132.76315789473685"/>
      <point x="15.657894736842103" y="71.05263157894737"/>
    </contour>
  </outline>
</glyph>
<glyph name="m" format="2">
  <advance width="886.2105263157895"/>
  <unicode hex="006D"/>
  <anchor x="396.3684210526316" y="0.0" name="bottom"/>
  <anchor x="501.6842105263158" y="499.2631578947368" name="top"/>
  <outline>
    <contour>
      <point x="0.7105263157894717" y="0.0" type="curve"/>
      <point x="182.42105263157896" y="0.0" type="line"/>
      <point x="193.4736842105263" y="71.05263157894737"/>
      <point x="202.52631578947367" y="132.76315789473685"/>
      <point x="213.60526315789474" y="207.18421052631578" type="curve"/>
      <point x="236.02631578947367" y="312.5526315789474" type="line"/>
      <point x="268.55263157894734" y="343.3684210526317"/>
      <point x="314.3421052631578" y="370.6842105263158"/>
      <point x="333.3684210526316" y="370.6842105263158" type="curve" smooth="yes"/>
      <point x="376.92105263157896" y="370.6842105263158"/>
      <point x="388.4473684210526" y="332.4473684210526"/>
      <point x="373.02631578947364" y="263.6578947368421" type="curve"/>
      <point x="361.9210526315789" y="207.18421052631578" type="line"/>
      <point x="342.2631578947368" y="132.76315789473682"/>
      <point x="326.28947368421046" y="71.05263157894737"/>
      <point x="307.31578947368416" y="0.0" type="curve"/>
      <point x="487.7105263157895" y="0.0" type="line"/>
      <point x="498.7631578947369" y="71.05263157894737"/>
      <point x="507.1578947368422" y="132.76315789473682"/>
      <point x="520.2105263157895" y="215.73684210526315" type="curve"/>
      <point x="528.2105263157895" y="254.3947368421052"/>
      <point x="540.1315789473684" y="292.5526315789474"/>
      <point x="546.1315789473684" y="320.8684210526316" type="curve" smooth="yes"/>
      <point x="552.4473684210527" y="350.13157894736844"/>
      <point x="554.1315789473684" y="376.7368421052631"/>
      <point x="551.5000000000001" y="399.6842105263158" type="curve"/>
      <point x="545.236842105263" y="401.05263157894734" type="line"/>
      <point x="540.6052631578948" y="472.1578947368421"/>
      <point x="497.2631578947369" y="513.2105263157895"/>
      <point x="422.5263157894737" y="513.2105263157895" type="curve" smooth="yes"/>
      <point x="379.00000000000006" y="513.2105263157895"/>
      <point x="308.842105263158" y="470.3157894736842"/>
      <point x="254.9473684210526" y="428.6842105263158" type="curve"/>
      <point x="242.05263157894734" y="428.6842105263158" type="line"/>
      <point x="248.5" y="506.86842105263156" type="line"/>
      <point x="97.07894736842104" y="499.2631578947368" type="line"/>
      <point x="89.07894736842107" y="427.2105263157895"/>
      <point x="82.73684210526315" y="358.42105263157896"/>
      <point x="75.39473684210527" y="290.0263157894737" type="curve"/>
      <point x="59.263157894736835" y="215.73684210526315" type="line"/>
      <point x="36.315789473684205" y="132.76315789473685"/>
      <point x="20.342105263157894" y="71.05263157894737"/>
    </contour>
    <contour>
      <point x="609.8947368421052" y="0.0" type="curve"/>
      <point x="790.2894736842105" y="0.0" type="line"/>
      <point x="801.3421052631579" y="71.05263157894737"/>
      <point x="809.7368421052631" y="132.76315789473682"/>
      <point x="822.7894736842105" y="215.73684210526315" type="curve"/>
      <point x="830.7894736842105" y="254.3947368421052"/>
      <point x="842.7105263157895" y="292.5526315789474"/>
      <point x="848.7105263157895" y="320.8684210526316" type="curve" smooth="yes"/>
      <point x="873.7368421052632" y="437.60526315789474"/>
      <point x="827.078947368421" y="513.2105263157895"/>
      <point x="725.1052631578948" y="513.2105263157895" type="curve" smooth="yes"/>
      <point x="681.578947368421" y="513.2105263157895"/>
      <point x="609.3947368421053" y="469.6315789473683"/>
      <point x="552.5263157894738" y="425.3421052631579" type="curve"/>
      <point x="539.6052631578948" y="425.3421052631579" type="line"/>
      <point x="538.6052631578948" y="312.5526315789474" type="line"/>
      <point x="571.1315789473683" y="343.36842105263156"/>
      <point x="616.921052631579" y="370.6842105263158"/>
      <point x="635.9473684210526" y="370.6842105263158" type="curve" smooth="yes"/>
      <point x="679.5000000000001" y="370.6842105263158"/>
      <point x="691.0263157894736" y="332.4473684210526"/>
      <point x="675.6052631578947" y="263.6578947368421" type="curve"/>
      <point x="664.5" y="207.18421052631578" type="line"/>
      <point x="644.8421052631578" y="132.76315789473682"/>
      <point x="628.8684210526316" y="71.05263157894737"/>
    </contour>
  </outline>
</glyph>
<glyph name="n" format="2">
  <advance width="592.421052631579"/>
  <unicode hex="006E"/>
  <anchor x="244.63157894736838" y="0.0" name="bottom"/>
  <anchor x="349.9473684210526" y="499.2631578947368" name="top"/>
  <outline>
    <contour>
      <point x="0.7105263157894717" y="0.0" type="curve"/>
      <point x="182.42105263157896" y="0.0" type="line"/>
      <point x="193.4736842105263" y="71.05263157894737"/>
      <point x="202.52631578947367" y="132.76315789473685"/>
      <point x="213.60526315789474" y="207.18421052631578" type="curve"/>
      <point x="236.02631578947367" y="312.5526315789474" type="line"/>
      <point x="268.5526315789474" y="343.36842105263156"/>
      <point x="317.3684210526316" y="370.6842105263158"/>
      <point x="336.7368421052632" y="370.6842105263158" type="curve" smooth="yes"/>
      <point x="385.71052631578954" y="370.6842105263158"/>
      <point x="397.2368421052632" y="332.4473684210526"/>
      <point x="381.8157894736842" y="263.6578947368421" type="curve"/>
      <point x="370.7105263157895" y="207.18421052631578" type="line"/>
      <point x="351.0526315789474" y="132.76315789473682"/>
      <point x="335.07894736842104" y="71.05263157894737"/>
      <point x="316.10526315789474" y="0.0" type="curve"/>
      <point x="496.5" y="0.0" type="line"/>
      <point x="507.5526315789474" y="71.05263157894737"/>
      <point x="515.9473684210526" y="132.76315789473682"/>
      <point x="529.0" y="215.73684210526315" type="curve"/>
      <point x="537.0" y="254.3947368421052"/>
      <point x="548.921052631579" y="292.5526315789474"/>
      <point x="554.921052631579" y="320.8684210526316" type="curve" smooth="yes"/>
      <point x="579.9473684210527" y="437.6052631578948"/>
      <point x="533.2894736842105" y="513.2105263157895"/>
      <point x="426.2368421052632" y="513.2105263157895" type="curve" smooth="yes"/>
      <point x="382.0263157894737" y="513.2105263157895"/>
      <point x="308.18421052631584" y="470.3157894736842"/>
      <point x="254.2894736842105" y="428.68421052631584" type="curve"/>
      <point x="241.39473684210523" y="428.68421052631584" type="line"/>
      <point x="248.8421052631579" y="506.86842105263156" type="line"/>
      <point x="97.07894736842104" y="499.2631578947368" type="line"/>
      <point x="89.07894736842107" y="427.2105263157895"/>
      <point x="82.73684210526315" y="358.42105263157896"/>
      <point x="75.39473684210527" y="290.0263157894737" type="curve"/>
      <point x="59.263157894736835" y="215.73684210526315" type="line"/>
      <point x="36.315789473684205" y="132.76315789473685"/>
      <point x="20.342105263157894" y="71.05263157894737"/>
    </contour>
  </outline>
</glyph>
<glyph name="p" format="2">
  <advance width="599.9473684210526"/>
  <unicode hex="0070"/>
  <outline>
    <contour>
      <point x="-40.631578947368425" y="-196.6315789473684" type="curve"/>
      <point x="145.3684210526316" y="-192.0" type="line"/>
      <point x="155.10526315789474" y="-120.94736842105263"/>
      <point x="162.8421052631579" y="-59.23684210526316"/>
      <point x="173.26315789473685" y="15.184210526315788" type="curve"/>
      <point x="181.9736842105263" y="55.36842105263158" type="line"/>
      <point x="191.26315789473682" y="55.36842105263158" type="line"/>
      <point x="236.97368421052636" y="16.263157894736842"/>
      <point x="292.8684210526316" y="-13.605263157894736"/>
      <point x="332.7105263157895" y="-13.605263157894736" type="curve" smooth="yes"/>
      <point x="450.7631578947369" y="-13.605263157894736"/>
      <point x="531.5526315789474" y="85.86842105263158"/>
      <point x="561.5526315789474" y="227.89473684210526" type="curve" smooth="yes"/>
      <point x="593.2105263157895" y="379.2105263157895"/>
      <point x="544.3684210526316" y="513.2105263157895"/>
      <point x="406.5" y="513.2105263157895" type="curve" smooth="yes"/>
      <point x="369.7368421052632" y="513.2105263157895"/>
      <point x="307.50000000000006" y="480.0526315789474"/>
      <point x="261.6052631578947" y="438.8684210526316" type="curve"/>
      <point x="247.71052631578948" y="438.8684210526316" type="line"/>
      <point x="253.73684210526312" y="506.86842105263156" type="line"/>
      <point x="97.07894736842104" y="499.2631578947368" type="line"/>
      <point x="89.07894736842107" y="427.2105263157895"/>
      <point x="82.73684210526315" y="358.42105263157896"/>
      <point x="75.39473684210527" y="290.0263157894737" type="curve"/>
      <point x="18.92105263157895" y="23.736842105263158" type="line"/>
      <point x="-3.026315789473686" y="-59.23684210526316"/>
      <point x="-21.65789473684211" y="-125.57894736842105"/>
    </contour>
    <contour>
      <point x="287.3157894736842" y="121.02631578947368" type="curve"/>
      <point x="262.0526315789474" y="123.6842105263158"/>
      <point x="227.13157894736844" y="141.97368421052633"/>
      <point x="205.76315789473685" y="167.0789473684211" type="curve"/>
      <point x="240.36842105263156" y="331.0" type="line"/>
      <point x="266.42105263157896" y="357.97368421052636"/>
      <point x="306.39473684210526" y="377.57894736842104"/>
      <point x="327.8684210526316" y="380.55263157894734" type="curve"/>
      <point x="394.44736842105266" y="377.55263157894734"/>
      <point x="418.42105263157896" y="310.6578947368421"/>
      <point x="403.5789473684211" y="239.78947368421052" type="curve" smooth="yes"/>
      <point x="389.44736842105266" y="172.1578947368421"/>
      <point x="351.0789473684211" y="124.6842105263158"/>
    </contour>
  </outline>
</glyph>
<glyph name="q" format="2">
  <advance width="588.6315789473684"/>
  <unicode hex="0071"/>
  <outline>
    <contour>
      <point x="270.18421052631584" y="-196.6315789473684" type="curve"/>
      <point x="452.2368421052631" y="-192.0" type="line"/>
      <point x="463.2894736842106" y="-120.94736842105263"/>
      <point x="472.3421052631579" y="-59.23684210526316"/>
      <point x="485.39473684210526" y="23.736842105263158" type="curve"/>
      <point x="542.1842105263158" y="290.0263157894737" type="line"/>
      <point x="562.0789473684209" y="360.7368421052632"/>
      <point x="584.6578947368421" y="432.5"/>
      <point x="607.8684210526316" y="506.86842105263156" type="curve"/>
      <point x="451.8421052631579" y="499.2631578947368" type="line"/>
      <point x="430.86842105263156" y="436.47368421052636" type="line"/>
      <point x="418.2894736842105" y="436.47368421052636" type="line"/>
      <point x="372.0" y="479.0526315789474"/>
      <point x="310.07894736842104" y="513.2105263157895"/>
      <point x="267.89473684210526" y="513.2105263157895" type="curve" smooth="yes"/>
      <point x="149.8421052631579" y="513.2105263157895"/>
      <point x="69.05263157894737" y="413.7368421052632"/>
      <point x="39.05263157894736" y="271.7105263157895" type="curve" smooth="yes"/>
      <point x="7.394736842105259" y="120.39473684210526"/>
      <point x="56.23684210526316" y="-13.605263157894736"/>
      <point x="194.10526315789474" y="-13.605263157894736" type="curve" smooth="yes"/>
      <point x="227.578947368421" y="-13.605263157894736"/>
      <point x="279.8421052631579" y="13.526315789473685"/>
      <point x="323.2105263157894" y="51.31578947368422" type="curve"/>
      <point x="335.13157894736844" y="51.31578947368422" type="line"/>
      <point x="327.1052631578948" y="15.184210526315788" type="line"/>
      <point x="307.7894736842106" y="-59.23684210526316"/>
      <point x="289.1578947368422" y="-125.57894736842105"/>
    </contour>
    <contour>
      <point x="272.7368421052632" y="119.05263157894737" type="curve"/>
      <point x="206.1578947368421" y="121.71052631578948"/>
      <point x="181.84210526315792" y="189.28947368421055"/>
      <point x="197.0263157894737" y="259.8157894736842" type="curve" smooth="yes"/>
      <point x="211.5" y="328.1315789473684"/>
      <point x="249.5263157894737" y="374.92105263157896"/>
      <point x="313.2894736842105" y="378.57894736842104" type="curve"/>
      <point x="339.5789473684211" y="376.2631578947368"/>
      <point x="373.47368421052624" y="357.97368421052636"/>
      <point x="395.8684210526316" y="337.65789473684214" type="curve"/>
      <point x="361.60526315789474" y="176.13157894736844" type="line"/>
      <point x="337.2631578947369" y="145.73684210526318"/>
      <point x="301.3947368421052" y="122.36842105263158"/>
    </contour>
  </outline>
</glyph>
<glyph name="r" format="2">
  <advance width="422.94736842105266"/>
  <unicode hex="0072"/>
  <anchor x="84.44736842105263" y="0.0" name="bottom"/>
  <anchor x="287.9473684210526" y="499.2631578947368" name="top"/>
  <outline>
    <contour>
      <point x="0.7105263157894717" y="0.0" type="curve"/>
      <point x="182.42105263157896" y="0.0" type="line"/>
      <point x="193.4736842105263" y="71.05263157894737"/>
      <point x="202.52631578947367" y="132.76315789473685"/>
      <point x="213.60526315789474" y="207.18421052631578" type="curve"/>
      <point x="231.71052631578948" y="288.0" type="line"/>
      <point x="274.6315789473685" y="329.9473684210526"/>
      <point x="326.15789473684214" y="355.55263157894734"/>
      <point x="343.68421052631584" y="355.55263157894734" type="curve" smooth="yes"/>
      <point x="352.34210526315786" y="355.55263157894734"/>
      <point x="379.68421052631584" y="348.55263157894734"/>
      <point x="411.2631578947369" y="339.92105263157896" type="curve"/>
      <point x="459.42105263157896" y="502.86842105263156" type="line"/>
      <point x="437.05263157894734" y="509.2105263157894"/>
      <point x="407.342105263158" y="513.2105263157895"/>
      <point x="398.97368421052636" y="513.2105263157895" type="curve" smooth="yes"/>
      <point x="357.342105263158" y="513.2105263157895"/>
      <point x="316.07894736842104" y="485.05263157894746"/>
      <point x="253.26315789473688" y="423.89473684210526" type="curve"/>
      <point x="240.3684210526316" y="423.89473684210526" type="line"/>
      <point x="248.5" y="506.86842105263156" type="line"/>
      <point x="97.07894736842104" y="499.2631578947368" type="line"/>
      <point x="89.07894736842107" y="427.2105263157895"/>
      <point x="82.73684210526315" y="358.42105263157896"/>
      <point x="75.39473684210527" y="290.0263157894737" type="curve"/>
      <point x="59.263157894736835" y="215.73684210526315" type="line"/>
      <point x="36.315789473684205" y="132.76315789473685"/>
      <point x="20.342105263157894" y="71.05263157894737"/>
    </contour>
  </outline>
</glyph>
<glyph name="s" format="2">
  <advance width="467.2718446601942"/>
  <unicode hex="0073"/>
  <anchor x="183.05825242718444" y="0.0" name="bottom"/>
  <anchor x="288.4271844660194" y="499.47572815533977" name="top"/>
  <outline>
    <contour>
      <point x="204.42718446601944" y="-13.475728155339805" type="curve" smooth="yes"/>
      <point x="332.65048543689323" y="-13.475728155339805"/>
      <point x="397.126213592233" y="38.21359223300971"/>
      <point x="412.86407766990294" y="114.05825242718448" type="curve" smooth="yes"/>
      <point x="430.86407766990294" y="201.10679611650485"/>
      <point x="389.5048543689321" y="243.26213592233015"/>
      <point x="288.7087378640777" y="286.0" type="curve" smooth="yes"/>
      <point x="227.93203883495147" y="312.2038834951456"/>
      <point x="217.7766990291262" y="329.5145631067961"/>
      <point x="223.3009708737864" y="353.7184466019417" type="curve" smooth="yes"/>
      <point x="229.71844660194174" y="382.0194174757281"/>
      <point x="259.12621359223306" y="387.757281553398"/>
      <point x="284.9611650485437" y="389.757281553398" type="curve"/>
      <point x="298.485436893204" y="389.757281553398"/>
      <point x="360.4854368932039" y="366.0194174757281"/>
      <point x="419.11650485436894" y="339.5436893203884" type="curve"/>
      <point x="455.86407766990294" y="471.2135922330097" type="line"/>
      <point x="399.06796116504853" y="486.9514563106796"/>
      <point x="306.37864077669906" y="512.5825242718447"/>
      <point x="262.32038834951453" y="512.5825242718447" type="curve" smooth="yes"/>
      <point x="151.88349514563106" y="512.5825242718447"/>
      <point x="84.7766990291262" y="465.0"/>
      <point x="66.7766990291262" y="380.63106796116506" type="curve" smooth="yes"/>
      <point x="49.145631067961155" y="299.7378640776699"/>
      <point x="81.71844660194174" y="249.41747572815535"/>
      <point x="172.03883495145632" y="210.78640776699027" type="curve" smooth="yes"/>
      <point x="241.81553398058253" y="180.58252427184465"/>
      <point x="263.2330097087379" y="163.2718446601942"/>
      <point x="256.07766990291265" y="137.17475728155338" type="curve" smooth="yes"/>
      <point x="249.29126213592235" y="111.92233009708738"/>
      <point x="217.51456310679612" y="107.6601941747573"/>
      <point x="187.15533980582524" y="106.29126213592234" type="curve"/>
      <point x="166.58252427184462" y="106.29126213592234"/>
      <point x="100.52427184466018" y="133.39805825242715"/>
      <point x="33.41747572815534" y="165.76699029126218" type="curve"/>
      <point x="-2.854368932038841" y="31.67961165048543" type="line"/>
      <point x="71.94174757281552" y="9.417475728155338"/>
      <point x="160.2135922330097" y="-13.475728155339805"/>
    </contour>
  </outline>
</glyph>
<glyph name="t" format="2">
  <advance width="423.6842105263158"/>
  <unicode hex="0074"/>
  <anchor x="181.05263157894737" y="0.0" name="bottom"/>
  <anchor x="217.5" y="249.6315789473684" name="center"/>
  <anchor x="294.39473684210526" y="660.8421052631579" name="top"/>
  <anchor x="328.1842105263158" y="499.2631578947368" name="topright"/>
  <outline>
    <contour>
      <point x="241.52631578947367" y="-13.605263157894736" type="curve" smooth="yes"/>
      <point x="260.57894736842104" y="-13.605263157894736"/>
      <point x="315.6842105263158" y="-2.8947368421052637"/>
      <point x="349.2631578947369" y="7.763157894736841" type="curve"/>
      <point x="367.36842105263156" y="138.21052631578948" type="line"/>
      <point x="336.9736842105263" y="124.50000000000001"/>
      <point x="302.92105263157896" y="113.78947368421053"/>
      <point x="293.1842105263158" y="113.78947368421053" type="curve" smooth="yes"/>
      <point x="251.15789473684214" y="113.78947368421053"/>
      <point x="229.60526315789474" y="146.8421052631579"/>
      <point x="242.71052631578948" y="209.6315789473684" type="curve" smooth="yes"/>
      <point x="295.92105263157896" y="460.2631578947368" type="line"/>
      <point x="314.8684210526316" y="550.0"/>
      <point x="331.7631578947369" y="611.7631578947368"/>
      <point x="355.97368421052636" y="690.0" type="curve"/>
      <point x="171.99999999999997" y="659.921052631579" type="line"/>
      <point x="164.92105263157893" y="594.0"/>
      <point x="157.21052631578945" y="536.7368421052631"/>
      <point x="141.57894736842104" y="460.2631578947368" type="curve"/>
      <point x="113.76315789473684" y="329.13157894736844"/>
      <point x="94.99999999999999" y="257.2105263157895"/>
      <point x="77.18421052631578" y="174.1578947368421" type="curve" smooth="yes"/>
      <point x="50.23684210526315" y="45.44736842105263"/>
      <point x="124.21052631578948" y="-13.605263157894736"/>
    </contour>
    <contour>
      <point x="43.07894736842105" y="369.57894736842104" type="line"/>
      <point x="171.86842105263156" y="385.7631578947368" type="line"/>
      <point x="241.71052631578945" y="385.7631578947368" type="line"/>
      <point x="299.1842105263158" y="381.4736842105263"/>
      <point x="362.3157894736842" y="375.52631578947364"/>
      <point x="422.7631578947368" y="369.57894736842104" type="curve"/>
      <point x="450.1578947368421" y="499.2631578947368" type="line"/>
      <point x="70.47368421052632" y="499.2631578947368" type="line"/>
    </contour>
  </outline>
</glyph>
<glyph name="u" format="2">
  <advance width="579.2631578947368"/>
  <unicode hex="0075"/>
  <anchor x="236.15789473684208" y="0.0" name="bottom"/>
  <anchor x="476.76315789473693" y="0.0" name="ogonek"/>
  <anchor x="340.81578947368416" y="499.2631578947368" name="top"/>
  <anchor x="608.1578947368421" y="499.2631578947368" name="topright"/>
  <outline>
    <contour>
      <point x="162.57894736842107" y="-13.605263157894736" type="curve" smooth="yes"/>
      <point x="204.73684210526315" y="-13.605263157894736"/>
      <point x="278.57894736842104" y="29.289473684210527"/>
      <point x="332.4736842105263" y="70.92105263157893" type="curve"/>
      <point x="345.3684210526316" y="70.92105263157893" type="line"/>
      <point x="336.5526315789474" y="0.0" type="line"/>
      <point x="480.71052631578954" y="0.0" type="line"/>
      <point x="491.7631578947368" y="71.05263157894737"/>
      <point x="500.15789473684214" y="132.76315789473685"/>
      <point x="512.8684210526316" y="215.73684210526315" type="curve"/>
      <point x="525.1842105263157" y="272.3157894736842" type="line"/>
      <point x="549.7631578947368" y="365.8157894736842"/>
      <point x="566.421052631579" y="428.2105263157895"/>
      <point x="585.3947368421053" y="499.2631578947368" type="curve"/>
      <point x="405.31578947368416" y="499.2631578947368" type="line"/>
      <point x="394.92105263157896" y="428.2105263157895"/>
      <point x="384.86842105263156" y="365.8157894736842"/>
      <point x="372.8157894736842" y="291.3947368421053" type="curve"/>
      <point x="350.07894736842104" y="183.76315789473685" type="line"/>
      <point x="317.55263157894734" y="152.94736842105263"/>
      <point x="268.7368421052632" y="125.63157894736842"/>
      <point x="251.42105263157896" y="125.63157894736842" type="curve" smooth="yes"/>
      <point x="202.44736842105266" y="125.63157894736842"/>
      <point x="190.26315789473688" y="163.86842105263156"/>
      <point x="205.6842105263158" y="232.6578947368421" type="curve"/>
      <point x="217.76315789473688" y="291.3947368421053" type="line"/>
      <point x="237.07894736842107" y="365.8157894736842"/>
      <point x="255.39473684210532" y="432.8421052631579"/>
      <point x="274.36842105263156" y="503.89473684210526" type="curve"/>
      <point x="91.31578947368422" y="499.2631578947368" type="line"/>
      <point x="80.92105263157895" y="428.2105263157895"/>
      <point x="70.86842105263158" y="365.8157894736843"/>
      <point x="57.5" y="272.3157894736842" type="curve"/>
      <point x="49.50000000000001" y="234.68421052631578"/>
      <point x="41.86842105263158" y="207.05263157894737"/>
      <point x="35.86842105263158" y="178.73684210526315" type="curve" smooth="yes"/>
      <point x="10.842105263157896" y="62.0"/>
      <point x="55.526315789473685" y="-13.605263157894736"/>
    </contour>
  </outline>
</glyph>
<glyph name="v" format="2">
  <advance width="553.2368421052631"/>
  <unicode hex="0076"/>
  <outline>
    <contour>
      <point x="134.21052631578945" y="0.0" type="curve"/>
      <point x="316.3684210526316" y="0.0" type="line"/>
      <point x="349.42105263157896" y="62.6578947368421"/>
      <point x="381.4736842105263" y="124.3157894736842"/>
      <point x="414.1842105263158" y="186.9736842105263" type="curve"/>
      <point x="464.5526315789474" y="276.2894736842106" type="line"/>
      <point x="509.2105263157894" y="350.60526315789474"/>
      <point x="553.8947368421053" y="425.60526315789474"/>
      <point x="598.2368421052632" y="499.2631578947368" type="curve"/>
      <point x="405.2631578947368" y="499.2631578947368" type="line"/>
      <point x="378.55263157894734" y="436.1842105263158"/>
      <point x="350.89473684210526" y="368.89473684210526"/>
      <point x="321.86842105263156" y="298.5526315789474" type="curve"/>
      <point x="262.2368421052632" y="168.55263157894737" type="line"/>
      <point x="249.6578947368421" y="168.55263157894737" type="line"/>
      <point x="242.3421052631579" y="298.5526315789474" type="line"/>
      <point x="241.47368421052633" y="367.89473684210526"/>
      <point x="240.94736842105263" y="437.1842105263158"/>
      <point x="239.42105263157896" y="503.89473684210526" type="curve"/>
      <point x="61.000000000000014" y="499.2631578947368" type="line"/>
      <point x="74.34210526315788" y="427.92105263157896"/>
      <point x="88.3421052631579" y="350.94736842105266"/>
      <point x="101.68421052631578" y="277.63157894736844" type="curve"/>
      <point x="114.71052631578948" y="188.97368421052633" type="line"/>
      <point x="120.76315789473684" y="127.34210526315789"/>
      <point x="128.15789473684208" y="61.97368421052631"/>
    </contour>
  </outline>
</glyph>
<glyph name="w" format="2">
  <advance width="837.6315789473684"/>
  <unicode hex="0077"/>
  <anchor x="363.05263157894734" y="0.0" name="bottom"/>
  <anchor x="467.7105263157894" y="499.2631578947368" name="top"/>
  <outline>
    <contour>
      <point x="109.21052631578947" y="0.0" type="curve"/>
      <point x="286.44736842105266" y="0.0" type="line"/>
      <point x="310.4210526315789" y="58.421052631578945"/>
      <point x="336.42105263157896" y="120.21052631578947"/>
      <point x="360.39473684210526" y="178.28947368421052" type="curve"/>
      <point x="410.60526315789474" y="290.07894736842104" type="line"/>
      <point x="421.86842105263156" y="290.07894736842104" type="line"/>
      <point x="426.7368421052631" y="182.26315789473685" type="line"/>
      <point x="426.52631578947376" y="124.57894736842105"/>
      <point x="427.3421052631579" y="56.71052631578947"/>
      <point x="427.78947368421046" y="0.0" type="curve"/>
      <point x="621.8421052631578" y="0.0" type="line"/>
      <point x="651.2105263157896" y="61.315789473684205"/>
      <point x="680.921052631579" y="124.97368421052632"/>
      <point x="712.6315789473684" y="190.97368421052633" type="curve"/>
      <point x="758.3157894736842" y="277.97368421052636" type="line"/>
      <point x="800.2894736842104" y="352.60526315789474"/>
      <point x="840.9473684210527" y="424.60526315789474"/>
      <point x="883.6052631578947" y="499.2631578947368" type="curve"/>
      <point x="689.9736842105262" y="499.2631578947368" type="line"/>
      <point x="666.3684210526317" y="438.6315789473684"/>
      <point x="636.3684210526314" y="361.60526315789474"/>
      <point x="610.0789473684209" y="294.2894736842105" type="curve"/>
      <point x="553.8684210526316" y="161.6578947368421" type="line"/>
      <point x="542.2894736842105" y="161.6578947368421" type="line"/>
      <point x="539.7105263157894" y="292.63157894736844" type="line"/>
      <point x="540.8947368421052" y="360.60526315789474"/>
      <point x="542.3947368421051" y="433.2894736842106"/>
      <point x="543.578947368421" y="499.2631578947368" type="curve"/>
      <point x="382.86842105263156" y="499.2631578947368" type="line"/>
      <point x="355.89473684210526" y="429.92105263157896"/>
      <point x="329.92105263157896" y="361.92105263157896"/>
      <point x="302.63157894736844" y="291.9473684210526" type="curve"/>
      <point x="247.44736842105263" y="161.6578947368421" type="line"/>
      <point x="235.8684210526316" y="161.6578947368421" type="line"/>
      <point x="232.94736842105263" y="290.5789473684211" type="line"/>
      <point x="234.1315789473684" y="358.5526315789474"/>
      <point x="235.28947368421055" y="435.2368421052632"/>
      <point x="236.1315789473684" y="503.89473684210526" type="curve"/>
      <point x="56.71052631578949" y="499.2631578947368" type="line"/>
      <point x="67.71052631578947" y="424.2631578947368"/>
      <point x="78.36842105263158" y="352.2894736842106"/>
      <point x="89.02631578947368" y="277.97368421052636" type="curve"/>
      <point x="97.73684210526316" y="189.63157894736844" type="line"/>
      <point x="101.78947368421052" y="125.28947368421053"/>
      <point x="105.50000000000001" y="62.6578947368421"/>
    </contour>
  </outline>
</glyph>
<glyph name="x" format="2">
  <advance width="577.7631578947369"/>
  <unicode hex="0078"/>
  <outline>
    <contour>
      <point x="-40.68421052631579" y="0.0" type="curve"/>
      <point x="163.23684210526318" y="0.0" type="line"/>
      <point x="184.89473684210526" y="37.81578947368421"/>
      <point x="200.47368421052633" y="64.60526315789474"/>
      <point x="221.78947368421055" y="103.39473684210526" type="curve"/>
      <point x="268.36842105263156" y="174.36842105263156" type="line"/>
      <point x="278.63157894736844" y="174.36842105263156" type="line"/>
      <point x="300.42105263157896" y="99.42105263157895" type="line"/>
      <point x="309.00000000000006" y="62.60526315789473"/>
      <point x="314.84210526315786" y="35.5"/>
      <point x="323.4210526315789" y="0.0" type="curve"/>
      <point x="515.078947368421" y="0.0" type="line"/>
      <point x="482.6842105263157" y="65.60526315789473"/>
      <point x="461.9736842105263" y="108.23684210526315"/>
      <point x="437.57894736842104" y="156.89473684210526" type="curve"/>
      <point x="385.7368421052632" y="275.7894736842105" type="line"/>
      <point x="387.0263157894737" y="242.71052631578948" type="line"/>
      <point x="478.8157894736842" y="351.0" type="line"/>
      <point x="522.8684210526316" y="400.6578947368421"/>
      <point x="551.8684210526314" y="433.2894736842105"/>
      <point x="610.2631578947367" y="499.2631578947368" type="curve"/>
      <point x="405.6842105263158" y="499.2631578947368" type="line"/>
      <point x="382.7105263157895" y="461.44736842105266"/>
      <point x="366.15789473684214" y="433.3421052631579"/>
      <point x="344.55263157894734" y="395.57894736842104" type="curve"/>
      <point x="298.7105263157895" y="326.6578947368421" type="line"/>
      <point x="287.47368421052636" y="326.6578947368421" type="line"/>
      <point x="267.10526315789474" y="396.2368421052632" type="line"/>
      <point x="259.57894736842104" y="432.97368421052636"/>
      <point x="252.3947368421053" y="465.421052631579"/>
      <point x="243.5" y="503.89473684210526" type="curve"/>
      <point x="63.71052631578947" y="499.2631578947368" type="line"/>
      <point x="91.78947368421052" y="437.2894736842106"/>
      <point x="109.1578947368421" y="399.3157894736842"/>
      <point x="132.23684210526315" y="348.9736842105263" type="curve"/>
      <point x="175.42105263157896" y="241.3421052631579" type="line"/>
      <point x="182.02631578947367" y="275.10526315789474" type="line"/>
      <point x="92.15789473684211" y="158.8684210526316" type="line"/>
      <point x="47.76315789473685" y="105.57894736842105"/>
      <point x="16.736842105263158" y="68.28947368421053"/>
    </contour>
  </outline>
</glyph>
<glyph name="y" format="2">
  <advance width="554.6052631578948"/>
  <unicode hex="0079"/>
  <anchor x="403.6052631578948" y="0.0" name="bottom"/>
  <anchor x="329.9736842105263" y="499.2631578947368" name="top"/>
  <outline>
    <contour>
      <point x="2.7368421052631478" y="-196.6315789473684" type="curve"/>
      <point x="197.02631578947367" y="-192.0" type="line"/>
      <point x="236.07894736842104" y="-120.34210526315789"/>
      <point x="282.44736842105266" y="-36.368421052631575"/>
      <point x="352.2105263157894" y="90.63157894736842" type="curve"/>
      <point x="435.2368421052631" y="230.94736842105263" type="line"/>
      <point x="510.26315789473676" y="355.94736842105266"/>
      <point x="547.9210526315788" y="417.9210526315789"/>
      <point x="596.9473684210526" y="499.2631578947368" type="curve"/>
      <point x="405.9473684210526" y="499.2631578947368" type="line"/>
      <point x="377.2631578947368" y="430.60526315789474"/>
      <point x="349.57894736842104" y="364.94736842105266"/>
      <point x="320.2105263157894" y="295.2631578947369" type="curve"/>
      <point x="258.2368421052632" y="163.28947368421055" type="line"/>
      <point x="245.65789473684214" y="163.28947368421055" type="line"/>
      <point x="239.0263157894737" y="295.57894736842104" type="line"/>
      <point x="238.50000000000003" y="366.57894736842104"/>
      <point x="237.9736842105263" y="432.89473684210526"/>
      <point x="237.44736842105263" y="503.89473684210526" type="curve"/>
      <point x="59.0263157894737" y="499.2631578947368" type="line"/>
      <point x="72.02631578947368" y="427.60526315789474"/>
      <point x="85.36842105263158" y="351.60526315789474"/>
      <point x="98.36842105263158" y="279.94736842105266" type="curve"/>
      <point x="110.73684210526316" y="189.94736842105263" type="line"/>
      <point x="117.13157894736841" y="121.28947368421053"/>
      <point x="124.1842105263158" y="52.28947368421053"/>
      <point x="130.57894736842104" y="-16.36842105263158" type="curve"/>
      <point x="143.10526315789474" y="18.368421052631582" type="line"/>
      <point x="97.52631578947367" y="-51.210526315789465"/>
      <point x="48.315789473684205" y="-127.05263157894738"/>
    </contour>
  </outline>
</glyph>
<glyph name="z" format="2">
  <advance width="517.5263157894736"/>
  <unicode hex="007A"/>
  <anchor x="204.76315789473685" y="0.0" name="bottom"/>
  <anchor x="257.42105263157896" y="249.6315789473684" name="center"/>
  <anchor x="310.07894736842104" y="499.2631578947368" name="top"/>
  <outline>
    <contour>
      <point x="-21.815789473684212" y="0.0" type="line"/>
      <point x="435.3947368421053" y="0.0" type="line"/>
      <point x="463.44736842105266" y="132.31578947368422" type="line"/>
      <point x="401.6052631578947" y="126.05263157894738"/>
      <point x="324.6315789473684" y="119.13157894736842"/>
      <point x="277.7894736842105" y="114.8421052631579" type="curve"/>
      <point x="174.3947368421053" y="114.8421052631579" type="line"/>
      <point x="190.57894736842107" y="82.8157894736842" type="line"/>
      <point x="347.86842105263156" y="245.1315789473684" type="line"/>
      <point x="399.10526315789474" y="293.7631578947368"/>
      <point x="462.42105263157896" y="353.81578947368416"/>
      <point x="504.2368421052632" y="393.34210526315786" type="curve"/>
      <point x="526.3421052631579" y="499.2631578947368" type="line"/>
      <point x="88.10526315789474" y="499.2631578947368" type="line"/>
      <point x="59.39473684210526" y="363.6578947368421" type="line"/>
      <point x="124.26315789473684" y="370.57894736842104"/>
      <point x="205.21052631578945" y="378.81578947368416"/>
      <point x="253.02631578947367" y="383.7631578947368" type="curve"/>
      <point x="348.0263157894737" y="383.7631578947368" type="line"/>
      <point x="325.92105263157896" y="426.10526315789474" type="line"/>
      <point x="162.39473684210526" y="252.28947368421052" type="line"/>
      <point x="113.8421052631579" y="205.02631578947367"/>
      <point x="56.921052631578945" y="149.39473684210526"/>
      <point x="-2.3421052631578947" y="92.07894736842107" type="curve"/>
    </contour>
  </outline>
</glyph>
<glyph name="braceleft" format="2">
  <advance width="449.63157894736844"/>
  <unicode hex="007B"/>
  <outline>
    <contour>
      <point x="254.4736842105263" y="-123.84210526315789" type="curve" smooth="yes"/>
      <point x="348.1842105263158" y="-123.84210526315789" type="line"/>
      <point x="374.57894736842104" y="3.868421052631586" type="line"/>
      <point x="340.92105263157896" y="2.2105263157894806"/>
      <point x="313.2631578947369" y="0.8947368421052699"/>
      <point x="296.2631578947369" y="0.23684210526316463" type="curve"/>
      <point x="249.89473684210526" y="2.868421052631586"/>
      <point x="235.39473684210526" y="34.684210526315795"/>
      <point x="243.44736842105263" y="80.23684210526316" type="curve" smooth="yes"/>
      <point x="271.34210526315786" y="237.78947368421052" type="line" smooth="yes"/>
      <point x="273.6578947368421" y="251.02631578947364"/>
      <point x="233.10526315789474" y="292.4210526315789"/>
      <point x="197.94736842105263" y="318.6578947368421" type="curve"/>
      <point x="200.26315789473682" y="330.57894736842104" type="line"/>
      <point x="243.73684210526312" y="357.1315789473684"/>
      <point x="305.9736842105263" y="405.2105263157894"/>
      <point x="309.60526315789474" y="420.42105263157896" type="curve" smooth="yes"/>
      <point x="349.10526315789474" y="583.1052631578948" type="line" smooth="yes"/>
      <point x="360.4736842105263" y="629.6842105263157"/>
      <point x="384.6578947368421" y="648.4210526315791"/>
      <point x="429.9736842105263" y="651.0526315789474" type="curve"/>
      <point x="447.99999999999994" y="650.3947368421053"/>
      <point x="478.7894736842106" y="648.7368421052632"/>
      <point x="506.421052631579" y="647.421052631579" type="curve"/>
      <point x="533.8157894736843" y="775.1315789473684" type="line"/>
      <point x="423.7368421052631" y="775.1315789473684" type="line" smooth="yes"/>
      <point x="306.5" y="775.1315789473684"/>
      <point x="226.1842105263158" y="730.2631578947368"/>
      <point x="207.55263157894737" y="623.2894736842105" type="curve"/>
      <point x="206.21052631578948" y="615.921052631579"/>
      <point x="181.3947368421053" y="475.07894736842104"/>
      <point x="180.05263157894737" y="468.36842105263156" type="curve"/>
      <point x="168.68421052631578" y="411.5263157894737"/>
      <point x="124.97368421052632" y="380.7631578947368"/>
      <point x="87.39473684210526" y="380.7631578947368" type="curve" smooth="yes"/>
      <point x="44.131578947368425" y="380.7631578947368" type="line"/>
      <point x="21.026315789473685" y="270.1842105263158" type="line"/>
      <point x="64.28947368421052" y="270.1842105263158" type="line" smooth="yes"/>
      <point x="101.86842105263158" y="270.1842105263158"/>
      <point x="132.55263157894737" y="242.8421052631579"/>
      <point x="120.15789473684211" y="182.57894736842104" type="curve"/>
      <point x="118.8157894736842" y="175.8684210526316"/>
      <point x="91.73684210526318" y="66.94736842105263"/>
      <point x="90.39473684210527" y="60.23684210526316" type="curve"/>
      <point x="69.13157894736844" y="-45.05263157894736"/>
      <point x="134.1578947368421" y="-123.84210526315789"/>
    </contour>
  </outline>
</glyph>
<glyph name="bar" format="2">
  <advance width="284.2105263157895"/>
  <unicode hex="007C"/>
  <outline>
    <contour>
      <point x="-21.078947368421055" y="-160.57894736842104" type="curve"/>
      <point x="131.34210526315792" y="-160.57894736842104" type="line"/>
      <point x="157.05263157894737" y="-23.894736842105267"/>
      <point x="185.42105263157896" y="129.76315789473685"/>
      <point x="192.76315789473685" y="168.42105263157896" type="curve"/>
      <point x="252.76315789473685" y="450.42105263157896" type="line"/>
      <point x="262.07894736842104" y="489.7368421052632"/>
      <point x="298.7105263157895" y="641.7368421052632"/>
      <point x="331.3421052631579" y="779.421052631579" type="curve"/>
      <point x="178.92105263157893" y="779.421052631579" type="line"/>
      <point x="153.21052631578945" y="641.7368421052632"/>
      <point x="124.84210526315786" y="489.07894736842104"/>
      <point x="117.5" y="450.42105263157896" type="curve"/>
      <point x="57.5" y="168.42105263157896" type="line"/>
      <point x="48.8421052631579" y="131.07894736842107"/>
      <point x="11.552631578947366" y="-23.23684210526316"/>
    </contour>
  </outline>
</glyph>
<glyph name="cent" format="2">
  <advance width="483.57894736842104"/>
  <unicode hex="00A2"/>
  <outline>
    <contour>
      <point x="134.92105263157896" y="-137.00000000000003" type="curve"/>
      <point x="260.6842105263158" y="-137.00000000000003" type="line"/>
      <point x="273.3157894736842" y="-66.94736842105266"/>
      <point x="286.2894736842105" y="3.1578947368421026"/>
      <point x="297.92105263157896" y="68.21052631578948" type="curve"/>
      <point x="184.68421052631578" y="68.21052631578948" type="line"/>
      <point x="168.76315789473682" y="2.473684210526315"/>
      <point x="151.84210526315792" y="-66.60526315789473"/>
    </contour>
    <contour>
      <point x="262.0" y="436.60526315789474" type="curve"/>
      <point x="377.2105263157894" y="436.60526315789474" type="line"/>
      <point x="391.8157894736842" y="498.0526315789474"/>
      <point x="406.7631578947368" y="560.5526315789473"/>
      <point x="422.6842105263158" y="626.2894736842105" type="curve"/>
      <point x="296.92105263157896" y="626.2894736842105" type="line"/>
      <point x="284.9473684210526" y="560.1842105263157"/>
      <point x="272.9736842105263" y="497.0526315789474"/>
    </contour>
    <contour>
      <point x="285.55263157894734" y="-11.631578947368421" type="curve" smooth="yes"/>
      <point x="315.6315789473685" y="-11.631578947368421"/>
      <point x="374.6842105263158" y="2.7894736842105257"/>
      <point x="401.6842105263158" y="11.815789473684209" type="curve"/>
      <point x="422.07894736842104" y="148.84210526315792" type="line"/>
      <point x="389.6842105263158" y="135.10526315789474"/>
      <point x="332.2894736842105" y="117.42105263157895"/>
      <point x="315.8157894736842" y="117.07894736842105" type="curve" smooth="yes"/>
      <point x="228.1578947368421" y="119.07894736842105"/>
      <point x="174.8684210526316" y="171.92105263157896"/>
      <point x="195.6842105263158" y="266.3421052631579" type="curve" smooth="yes"/>
      <point x="212.50000000000003" y="340.1052631578947"/>
      <point x="262.05263157894734" y="375.55263157894734"/>
      <point x="327.34210526315786" y="380.55263157894734" type="curve"/>
      <point x="340.07894736842115" y="380.55263157894734"/>
      <point x="402.47368421052636" y="361.5263157894737"/>
      <point x="459.2368421052631" y="338.4736842105263" type="curve"/>
      <point x="497.86842105263156" y="473.7894736842105" type="line"/>
      <point x="442.7368421052632" y="491.42105263157896"/>
      <point x="356.7368421052631" y="512.5526315789474"/>
      <point x="327.0263157894737" y="512.5526315789474" type="curve" smooth="yes"/>
      <point x="169.39473684210526" y="512.5526315789474"/>
      <point x="67.6842105263158" y="419.5263157894737"/>
      <point x="38.36842105263158" y="280.2368421052631" type="curve" smooth="yes"/>
      <point x="1.4210526315789487" y="103.76315789473685"/>
      <point x="103.5" y="-11.631578947368421"/>
    </contour>
  </outline>
</glyph>
<glyph name="currency" format="2">
  <advance width="655.2631578947369"/>
  <unicode hex="00A4"/>
  <outline>
    <contour>
      <point x="325.34210526315786" y="93.8157894736842" type="curve" smooth="yes"/>
      <point x="456.3157894736842" y="93.8157894736842"/>
      <point x="543.1052631578947" y="152.76315789473685"/>
      <point x="571.0263157894736" y="286.8157894736842" type="curve" smooth="yes"/>
      <point x="599.2894736842105" y="423.2105263157895"/>
      <point x="504.50000000000006" y="545.2105263157895"/>
      <point x="356.63157894736844" y="545.2105263157895" type="curve" smooth="yes"/>
      <point x="228.05263157894734" y="545.2105263157895"/>
      <point x="138.8421052631579" y="486.60526315789474"/>
      <point x="110.92105263157896" y="352.5526315789474" type="curve" smooth="yes"/>
      <point x="82.65789473684211" y="215.81578947368422"/>
      <point x="176.1052631578947" y="93.8157894736842"/>
    </contour>
    <contour>
      <point x="129.28947368421052" y="18.078947368421044" type="line"/>
      <point x="178.5263157894737" y="66.63157894736841"/>
      <point x="229.81578947368425" y="117.89473684210526"/>
      <point x="265.34210526315786" y="153.07894736842107" type="curve"/>
      <point x="170.3421052631579" y="254.02631578947367" type="line"/>
      <point x="133.1578947368421" y="221.81578947368422"/>
      <point x="77.89473684210526" y="174.1842105263158"/>
      <point x="26.684210526315788" y="128.60526315789474" type="curve"/>
    </contour>
    <contour>
      <point x="335.2368421052632" y="221.8684210526316" type="curve"/>
      <point x="274.4210526315789" y="226.5"/>
      <point x="234.76315789473688" y="275.23684210526324"/>
      <point x="246.5263157894737" y="334.07894736842104" type="curve" smooth="yes"/>
      <point x="256.63157894736844" y="385.9736842105263"/>
      <point x="296.0" y="415.1578947368421"/>
      <point x="349.3684210526316" y="419.13157894736844" type="curve"/>
      <point x="410.47368421052636" y="413.8421052631579"/>
      <point x="448.5" y="363.7894736842105"/>
      <point x="437.39473684210526" y="307.9210526315789" type="curve" smooth="yes"/>
      <point x="426.2894736842105" y="251.07894736842104"/>
      <point x="390.0" y="223.8684210526316"/>
    </contour>
    <contour>
      <point x="192.73684210526315" y="382.57894736842104" type="curve"/>
      <point x="291.3684210526316" y="474.2894736842105" type="line"/>
      <point x="258.5" y="511.4736842105263"/>
      <point x="210.8684210526316" y="566.7368421052631"/>
      <point x="165.28947368421052" y="618.6052631578948" type="curve"/>
      <point x="57.73684210526316" y="517.9736842105262" type="line"/>
      <point x="105.94736842105262" y="469.07894736842104"/>
      <point x="157.86842105263156" y="417.4473684210526"/>
    </contour>
    <contour>
      <point x="520.6578947368421" y="22.078947368421048" type="curve"/>
      <point x="628.2105263157895" y="122.71052631578948" type="line"/>
      <point x="579.9999999999999" y="171.60526315789474"/>
      <point x="528.078947368421" y="223.23684210526318"/>
      <point x="493.2105263157895" y="258.1052631578948" type="curve"/>
      <point x="394.57894736842104" y="166.3947368421053" type="line"/>
      <point x="427.4473684210526" y="129.21052631578948"/>
      <point x="475.07894736842104" y="73.94736842105263"/>
    </contour>
    <contour>
      <point x="515.6052631578947" y="386.6578947368421" type="line"/>
      <point x="552.7894736842106" y="418.8684210526316"/>
      <point x="608.0526315789474" y="466.5"/>
      <point x="659.2631578947369" y="512.078947368421" type="curve"/>
      <point x="556.6578947368421" y="622.6052631578947" type="line"/>
      <point x="507.42105263157896" y="574.0526315789473"/>
      <point x="456.1315789473685" y="522.7894736842104"/>
      <point x="420.60526315789474" y="487.60526315789474" type="curve"/>
    </contour>
  </outline>
</glyph>
<glyph name="yen" format="2">
  <advance width="655.6315789473684"/>
  <unicode hex="00A5"/>
  <outline>
    <contour>
      <point x="256.1842105263158" y="243.26315789473682" type="line"/>
      <point x="400.9736842105263" y="243.26315789473682" type="line"/>
      <point x="597.078947368421" y="511.86842105263156" type="line"/>
      <point x="646.3947368421052" y="573.4473684210526"/>
      <point x="693.7105263157895" y="632.7105263157895"/>
      <point x="737.6842105263158" y="687.9473684210526" type="curve"/>
      <point x="518.6578947368422" y="687.9473684210526" type="line"/>
      <point x="476.76315789473676" y="611.6315789473686"/>
      <point x="457.1842105263158" y="575.5"/>
      <point x="423.7368421052632" y="514.578947368421" type="curve"/>
      <point x="361.7368421052632" y="414.1578947368421" type="line"/>
      <point x="350.47368421052636" y="414.1578947368421" type="line"/>
      <point x="328.7105263157895" y="509.2631578947369" type="line"/>
      <point x="319.3947368421053" y="569.2105263157894"/>
      <point x="313.8684210526316" y="610.9473684210527"/>
      <point x="302.13157894736844" y="687.9473684210526" type="curve"/>
      <point x="101.94736842105263" y="687.9473684210526" type="line"/>
      <point x="137.28947368421052" y="597.421052631579"/>
      <point x="150.94736842105266" y="562.1578947368421"/>
      <point x="171.28947368421052" y="509.89473684210526" type="curve"/>
    </contour>
    <contour>
      <point x="181.65789473684208" y="0.0" type="curve"/>
      <point x="371.60526315789474" y="0.0" type="line"/>
      <point x="383.0" y="73.73684210526316"/>
      <point x="392.71052631578954" y="135.44736842105263"/>
      <point x="405.7631578947369" y="220.76315789473682" type="curve"/>
      <point x="438.89473684210526" y="377.4736842105263" type="line"/>
      <point x="274.34210526315786" y="377.4736842105263" type="line"/>
      <point x="241.21052631578945" y="221.42105263157893" type="line"/>
      <point x="218.26315789473682" y="136.10526315789474"/>
      <point x="201.6315789473684" y="74.07894736842105"/>
    </contour>
    <contour>
      <point x="42.3421052631579" y="111.92105263157895" type="line"/>
      <point x="111.52631578947366" y="114.23684210526315"/>
      <point x="185.10526315789474" y="116.55263157894737"/>
      <point x="234.57894736842104" y="117.86842105263158" type="curve"/>
      <point x="366.94736842105266" y="117.86842105263158" type="line"/>
      <point x="416.42105263157896" y="116.55263157894737"/>
      <point x="488.6842105263158" y="114.23684210526315"/>
      <point x="557.8684210526316" y="111.92105263157895" type="curve"/>
      <point x="579.6578947368421" y="215.63157894736844" type="line"/>
      <point x="509.81578947368416" y="214.63157894736844"/>
      <point x="436.89473684210526" y="213.63157894736844"/>
      <point x="387.42105263157896" y="212.97368421052633" type="curve"/>
      <point x="255.05263157894737" y="212.97368421052633" type="line"/>
      <point x="205.57894736842107" y="213.63157894736844"/>
      <point x="132.6578947368421" y="214.63157894736844"/>
      <point x="64.13157894736842" y="215.63157894736844" type="curve"/>
    </contour>
    <contour>
      <point x="77.23684210526315" y="277.44736842105266" type="line"/>
      <point x="146.76315789473685" y="278.44736842105266"/>
      <point x="219.6842105263158" y="279.44736842105266"/>
      <point x="269.1578947368421" y="280.10526315789474" type="curve"/>
      <point x="401.5263157894737" y="280.10526315789474" type="line"/>
      <point x="451.0" y="279.44736842105266"/>
      <point x="523.9210526315788" y="278.44736842105266"/>
      <point x="592.7631578947368" y="277.44736842105266" type="curve"/>
      <point x="614.8947368421052" y="381.15789473684214" type="line"/>
      <point x="545.0526315789473" y="378.84210526315786"/>
      <point x="471.47368421052636" y="376.5263157894737"/>
      <point x="422.00000000000006" y="375.2105263157895" type="curve"/>
      <point x="289.63157894736844" y="375.2105263157895" type="line"/>
      <point x="240.1578947368421" y="376.5263157894737"/>
      <point x="167.89473684210526" y="378.84210526315786"/>
      <point x="99.36842105263156" y="381.15789473684214" type="curve"/>
    </contour>
  </outline>
</glyph>
<glyph name="brokenbar" format="2">
  <advance width="284.2105263157895"/>
  <unicode hex="00A6"/>
  <outline>
    <contour>
      <point x="97.84210526315789" y="359.42105263157896" type="line"/>
      <point x="233.10526315789477" y="359.42105263157896" type="line"/>
      <point x="252.76315789473685" y="450.42105263157896" type="line"/>
      <point x="262.07894736842104" y="489.7368421052632"/>
      <point x="298.7105263157895" y="641.7368421052632"/>
      <point x="331.3421052631579" y="779.421052631579" type="curve"/>
      <point x="178.92105263157893" y="779.421052631579" type="line"/>
      <point x="153.21052631578945" y="641.7368421052632"/>
      <point x="124.84210526315786" y="489.07894736842104"/>
      <point x="117.5" y="450.42105263157896" type="curve"/>
    </contour>
    <contour>
      <point x="-21.078947368421055" y="-160.57894736842104" type="curve"/>
      <point x="131.34210526315792" y="-160.57894736842104" type="line"/>
      <point x="157.05263157894737" y="-23.894736842105267"/>
      <point x="185.42105263157896" y="129.76315789473685"/>
      <point x="192.76315789473685" y="168.42105263157896" type="curve"/>
      <point x="211.76315789473685" y="259.42105263157896" type="line"/>
      <point x="76.5" y="259.42105263157896" type="line"/>
      <point x="57.5" y="168.42105263157896" type="line"/>
      <point x="48.8421052631579" y="131.07894736842107"/>
      <point x="11.552631578947366" y="-23.23684210526316"/>
    </contour>
  </outline>
</glyph>
<glyph name="section" format="2">
  <advance width="583.5533980582525"/>
  <unicode hex="00A7"/>
  <outline>
    <contour>
      <point x="203.64077669902912" y="-130.95145631067962" type="curve" smooth="yes"/>
      <point x="350.86407766990294" y="-130.95145631067962"/>
      <point x="425.70873786407765" y="-71.26213592233009"/>
      <point x="445.0776699029126" y="19.58252427184466" type="curve" smooth="yes"/>
      <point x="467.81553398058253" y="126.79611650485438"/>
      <point x="412.3495145631068" y="178.68932038834953"/>
      <point x="295.55339805825247" y="227.79611650485435" type="curve" smooth="yes"/>
      <point x="211.88349514563106" y="263.00000000000006"/>
      <point x="199.35922330097088" y="286.6796116504854"/>
      <point x="207.51456310679615" y="322.56310679611653" type="curve" smooth="yes"/>
      <point x="216.66990291262138" y="363.4466019417476"/>
      <point x="261.8155339805825" y="383.2330097087379"/>
      <point x="297.126213592233" y="387.2330097087379" type="curve"/>
      <point x="244.85436893203885" y="483.2621359223301" type="line"/>
      <point x="160.5242718446602" y="473.5242718446602"/>
      <point x="69.62135922330096" y="425.8932038834951"/>
      <point x="50.14563106796116" y="335.5145631067961" type="curve" smooth="yes"/>
      <point x="32.88349514563106" y="254.5728155339806"/>
      <point x="63.93203883495146" y="194.7766990291262"/>
      <point x="178.14563106796115" y="144.14563106796118" type="curve" smooth="yes"/>
      <point x="271.3980582524272" y="102.57281553398059"/>
      <point x="299.9708737864078" y="83.78640776699031"/>
      <point x="289.81553398058253" y="39.48543689320388" type="curve" smooth="yes"/>
      <point x="280.02912621359224" y="-2.7087378640776603"/>
      <point x="237.25242718446603" y="-9.601941747572805"/>
      <point x="187.7378640776699" y="-11.970873786407758" type="curve"/>
      <point x="159.16504854368935" y="-11.970873786407758"/>
      <point x="79.10679611650485" y="20.50485436893205"/>
      <point x="1.7378640776699106" y="56.87378640776701" type="curve"/>
      <point x="-33.64077669902914" y="-74.79611650485437" type="line"/>
      <point x="52.15533980582524" y="-102.68932038834951"/>
      <point x="152.42718446601947" y="-130.95145631067962"/>
    </contour>
    <contour>
      <point x="379.3300970873787" y="114.41747572815534" type="line"/>
      <point x="474.8640776699029" y="128.52427184466018"/>
      <point x="542.8737864077669" y="176.89320388349515"/>
      <point x="560.3495145631068" y="263.16504854368935" type="curve" smooth="yes"/>
      <point x="579.3495145631068" y="355.9514563106796"/>
      <point x="526.1456310679613" y="407.8446601941747"/>
      <point x="410.7184466019418" y="456.58252427184465" type="curve" smooth="yes"/>
      <point x="329.7864077669903" y="491.04854368932035"/>
      <point x="313.52427184466023" y="514.8349514563107"/>
      <point x="321.67961165048547" y="551.9805825242718" type="curve" smooth="yes"/>
      <point x="331.0970873786408" y="593.1747572815534"/>
      <point x="380.0291262135922" y="602.4368932038834"/>
      <point x="408.97087378640776" y="605.4368932038834" type="curve"/>
      <point x="425.8640776699029" y="605.4368932038834"/>
      <point x="504.2330097087379" y="577.3300970873786"/>
      <point x="572.495145631068" y="547.2233009708737" type="curve"/>
      <point x="609.2427184466019" y="678.368932038835" type="line"/>
      <point x="545.4466019417476" y="697.1067961165048"/>
      <point x="436.7572815533981" y="727.7378640776699"/>
      <point x="388.3300970873786" y="727.7378640776699" type="curve" smooth="yes"/>
      <point x="264.8932038834952" y="727.7378640776699"/>
      <point x="186.1553398058252" y="673.1553398058252"/>
      <point x="165.04854368932035" y="574.6213592233009" type="curve" smooth="yes"/>
      <point x="144.6796116504854" y="478.88349514563106"/>
      <point x="187.35922330097085" y="419.56310679611653"/>
      <point x="293.9417475728156" y="373.56310679611653" type="curve" smooth="yes"/>
      <point x="386.82524271844665" y="332.99029126213594"/>
      <point x="414.5048543689321" y="311.9417475728156"/>
      <point x="404.9805825242719" y="266.90291262135923" type="curve" smooth="yes"/>
      <point x="397.7184466019418" y="232.54368932038835"/>
      <point x="356.8349514563107" y="207.60194174757285"/>
      <point x="313.5242718446602" y="202.9708737864078" type="curve"/>
    </contour>
  </outline>
</glyph>
<glyph name="ordfeminine" format="2">
  <advance width="405.16504854368935"/>
  <unicode hex="00AA"/>
  <outline>
    <contour>
      <point x="169.35922330097085" y="329.15533980582524" type="curve" smooth="yes"/>
      <point x="192.93203883495144" y="329.15533980582524"/>
      <point x="243.3495145631068" y="359.3106796116506"/>
      <point x="286.08737864077665" y="392.94174757281553" type="curve"/>
      <point x="294.5631067961164" y="392.94174757281553" type="line"/>
      <point x="296.19417475728153" y="337.8932038834952" type="line"/>
      <point x="404.80582524271847" y="337.8932038834952" type="line"/>
      <point x="405.54368932038847" y="382.4757281553398"/>
      <point x="406.2815533980583" y="418.16504854368935"/>
      <point x="408.01941747572823" y="462.74757281553394" type="curve"/>
      <point x="415.1747572815534" y="496.8932038834951" type="line" smooth="yes"/>
      <point x="421.1747572815534" y="524.5242718446601"/>
      <point x="429.4368932038835" y="550.4660194174756"/>
      <point x="434.5436893203883" y="577.5242718446601" type="curve" smooth="yes"/>
      <point x="453.9126213592233" y="669.7378640776699"/>
      <point x="399.00970873786406" y="727.7378640776699"/>
      <point x="293.21359223300965" y="727.7378640776699" type="curve" smooth="yes"/>
      <point x="269.68932038834953" y="727.7378640776699"/>
      <point x="185.15533980582524" y="712.4757281553398"/>
      <point x="145.31067961165047" y="704.8446601941747" type="curve"/>
      <point x="128.252427184466" y="598.6601941747572" type="line"/>
      <point x="193.46601941747574" y="617.5533980582524"/>
      <point x="249.20388349514565" y="631.8155339805826"/>
      <point x="259.3592233009708" y="631.8155339805826" type="curve" smooth="yes"/>
      <point x="310.93203883495147" y="631.8155339805826"/>
      <point x="335.242718446602" y="609.7669902912621"/>
      <point x="327.4563106796116" y="578.990291262136" type="curve"/>
      <point x="211.35922330097088" y="560.2038834951456" type="line" smooth="yes"/>
      <point x="147.52427184466018" y="549.6796116504854"/>
      <point x="90.94174757281554" y="524.9999999999999"/>
      <point x="74.94174757281554" y="451.2621359223301" type="curve" smooth="yes"/>
      <point x="59.31067961165048" y="380.5242718446602"/>
      <point x="100.83495145631068" y="329.15533980582524"/>
    </contour>
    <contour>
      <point x="228.96116504854368" y="417.97087378640776" type="curve" smooth="yes"/>
      <point x="200.70873786407768" y="417.97087378640776"/>
      <point x="178.50485436893206" y="435.2815533980582"/>
      <point x="185.02912621359224" y="466.6407766990291" type="curve" smooth="yes"/>
      <point x="191.5533980582524" y="495.99999999999994"/>
      <point x="218.91262135922332" y="503.8932038834951"/>
      <point x="247.16504854368935" y="510.4174757281553" type="curve" smooth="yes"/>
      <point x="291.88349514563106" y="520.8349514563107"/>
      <point x="304.40776699029124" y="525.8349514563107"/>
      <point x="316.4563106796117" y="533.8349514563107" type="curve"/>
      <point x="300.66990291262135" y="463.4271844660194" type="line"/>
      <point x="274.78640776699035" y="435.6504854368933"/>
      <point x="242.53398058252426" y="417.97087378640776"/>
    </contour>
  </outline>
</glyph>
<glyph name="registered" format="2">
  <advance width="579.1052631578948"/>
  <unicode hex="00AE"/>
  <outline>
    <contour>
      <point x="343.92105263157896" y="239.02631578947367" type="curve" smooth="yes"/>
      <point x="510.6578947368422" y="239.02631578947367"/>
      <point x="600.6842105263158" y="347.60526315789474"/>
      <point x="600.6842105263158" y="493.8157894736842" type="curve" smooth="yes"/>
      <point x="600.6842105263158" y="633.3947368421053"/>
      <point x="516.6315789473684" y="747.2894736842105"/>
      <point x="339.63157894736844" y="747.2894736842105" type="curve" smooth="yes"/>
      <point x="165.60526315789474" y="747.2894736842105"/>
      <point x="81.8421052631579" y="634.7368421052631"/>
      <point x="81.8421052631579" y="493.1578947368421" type="curve" smooth="yes"/>
      <point x="81.8421052631579" y="359.86842105263156"/>
      <point x="160.57894736842104" y="239.02631578947367"/>
    </contour>
    <contour>
      <point x="229.5" y="358.7894736842105" type="curve"/>
      <point x="306.89473684210526" y="358.7894736842105" type="line"/>
      <point x="304.57894736842104" y="394.86842105263156"/>
      <point x="303.2631578947368" y="414.36842105263156"/>
      <point x="300.9473684210526" y="452.7894736842105" type="curve"/>
      <point x="300.9473684210526" y="544.7894736842105" type="line"/>
      <point x="303.2631578947368" y="583.5263157894736"/>
      <point x="304.57894736842104" y="603.7105263157895"/>
      <point x="306.2368421052631" y="633.2105263157895" type="curve"/>
      <point x="227.5263157894737" y="643.7894736842105" type="line"/>
      <point x="229.8421052631579" y="606.3947368421052"/>
      <point x="231.1578947368421" y="586.8684210526316"/>
      <point x="233.47368421052633" y="548.7894736842105" type="curve"/>
      <point x="233.47368421052633" y="452.7894736842105" type="line"/>
      <point x="231.81578947368422" y="413.05263157894734"/>
      <point x="231.1578947368421" y="396.84210526315786"/>
    </contour>
    <contour>
      <point x="343.2631578947369" y="288.10526315789474" type="curve"/>
      <point x="193.18421052631578" y="292.07894736842104"/>
      <point x="135.5263157894737" y="381.89473684210526"/>
      <point x="135.5263157894737" y="493.1578947368421" type="curve" smooth="yes"/>
      <point x="135.5263157894737" y="611.2894736842105"/>
      <point x="197.1578947368421" y="694.8947368421052"/>
      <point x="340.2894736842105" y="698.8684210526316" type="curve"/>
      <point x="484.7368421052632" y="694.8947368421052"/>
      <point x="546.6578947368422" y="610.0"/>
      <point x="546.6578947368422" y="493.8157894736842" type="curve" smooth="yes"/>
      <point x="546.6578947368422" y="373.36842105263156"/>
      <point x="479.4736842105263" y="292.07894736842104"/>
    </contour>
    <contour>
      <point x="391.36842105263156" y="358.7894736842105" type="curve"/>
      <point x="480.7368421052632" y="358.7894736842105" type="line"/>
      <point x="463.05263157894734" y="383.42105263157896"/>
      <point x="441.9736842105263" y="412.7894736842105"/>
      <point x="421.2631578947369" y="442.10526315789474" type="curve"/>
      <point x="383.15789473684214" y="499.42105263157896" type="line"/>
      <point x="356.0526315789474" y="475.86842105263156" type="line"/>
      <point x="428.0263157894737" y="475.86842105263156"/>
      <point x="453.0526315789474" y="514.5263157894736"/>
      <point x="453.0526315789474" y="562.5" type="curve" smooth="yes"/>
      <point x="453.0526315789474" y="620.4736842105264"/>
      <point x="414.0526315789474" y="646.1052631578947"/>
      <point x="342.92105263157896" y="646.1052631578947" type="curve"/>
      <point x="295.68421052631584" y="646.1052631578947"/>
      <point x="258.42105263157896" y="643.7894736842105"/>
      <point x="227.5263157894737" y="643.7894736842105" type="curve"/>
      <point x="279.4473684210526" y="590.4736842105264" type="line"/>
      <point x="339.94736842105266" y="590.4736842105264" type="line" smooth="yes"/>
      <point x="355.7368421052632" y="590.4736842105264"/>
      <point x="382.60526315789474" y="589.1315789473684"/>
      <point x="382.60526315789474" y="554.6052631578947" type="curve" smooth="yes"/>
      <point x="382.60526315789474" y="522.421052631579"/>
      <point x="361.7894736842105" y="512.3684210526316"/>
      <point x="331.5526315789474" y="512.3684210526316" type="curve" smooth="yes"/>
      <point x="287.39473684210526" y="512.3684210526316" type="line"/>
      <point x="287.39473684210526" y="468.60526315789474" type="line"/>
      <point x="355.0263157894737" y="468.60526315789474" type="line"/>
      <point x="314.0" y="493.7631578947368" type="line"/>
      <point x="354.8157894736842" y="428.4473684210526" type="line"/>
      <point x="366.5526315789474" y="405.7894736842105"/>
      <point x="377.2894736842105" y="385.44736842105266"/>
    </contour>
  </outline>
</glyph>
<glyph name="plusminus" format="2">
  <advance width="579.7368421052631"/>
  <unicode hex="00B1"/>
  <outline>
    <contour>
      <point x="-4.052631578947368" y="-5.947368421052632" type="line"/>
      <point x="65.78947368421052" y="-3.6315789473684212"/>
      <point x="138.71052631578948" y="-1.3157894736842106"/>
      <point x="188.8421052631579" y="0.0" type="curve"/>
      <point x="284.89473684210526" y="0.0" type="line"/>
      <point x="333.7105263157894" y="-1.3157894736842106"/>
      <point x="406.63157894736844" y="-3.6315789473684212"/>
      <point x="475.15789473684214" y="-5.947368421052632" type="curve"/>
      <point x="506.5" y="141.21052631578948" type="line"/>
      <point x="436.6578947368421" y="138.8947368421053"/>
      <point x="363.07894736842104" y="136.57894736842107"/>
      <point x="313.60526315789474" y="135.26315789473685" type="curve"/>
      <point x="217.55263157894737" y="135.26315789473685" type="line"/>
      <point x="168.07894736842107" y="136.57894736842107"/>
      <point x="95.81578947368422" y="138.8947368421053"/>
      <point x="27.28947368421053" y="141.21052631578948" type="curve"/>
    </contour>
    <contour>
      <point x="73.57894736842105" y="360.86842105263156" type="line"/>
      <point x="143.42105263157896" y="363.18421052631584"/>
      <point x="217.34210526315792" y="365.5"/>
      <point x="266.8157894736842" y="366.8157894736842" type="curve"/>
      <point x="362.86842105263156" y="366.8157894736842" type="line"/>
      <point x="412.34210526315786" y="365.5"/>
      <point x="484.2631578947368" y="363.18421052631584"/>
      <point x="552.7894736842106" y="360.86842105263156" type="curve"/>
      <point x="584.1315789473684" y="508.0263157894737" type="line"/>
      <point x="514.9473684210526" y="505.7105263157894"/>
      <point x="441.36842105263156" y="503.39473684210526"/>
      <point x="391.89473684210526" y="502.07894736842104" type="curve"/>
      <point x="295.8421052631579" y="502.07894736842104" type="line"/>
      <point x="246.3684210526316" y="503.39473684210526"/>
      <point x="174.10526315789474" y="505.7105263157894"/>
      <point x="104.92105263157896" y="508.0263157894737" type="curve"/>
    </contour>
    <contour>
      <point x="201.49999999999997" y="194.57894736842104" type="curve"/>
      <point x="353.60526315789474" y="194.57894736842104" type="line"/>
      <point x="366.2631578947368" y="264.44736842105266"/>
      <point x="379.2631578947369" y="336.6842105263158"/>
      <point x="388.2368421052631" y="386.1578947368421" type="curve"/>
      <point x="409.02631578947364" y="482.7368421052632" type="line"/>
      <point x="420.97368421052636" y="532.2105263157895"/>
      <point x="438.6052631578947" y="605.1315789473684"/>
      <point x="455.5526315789474" y="674.3157894736842" type="curve"/>
      <point x="303.4473684210526" y="674.3157894736842" type="line"/>
      <point x="291.1315789473684" y="605.4736842105264"/>
      <point x="277.7894736842105" y="531.8684210526316"/>
      <point x="268.81578947368416" y="482.7368421052632" type="curve"/>
      <point x="248.02631578947367" y="386.1578947368421" type="line"/>
      <point x="236.4210526315789" y="337.02631578947364"/>
      <point x="218.7894736842105" y="264.1052631578948"/>
    </contour>
  </outline>
</glyph>
<glyph name="micro" format="2">
  <advance width="576.6315789473683"/>
  <unicode hex="00B5"/>
  <outline>
    <contour>
      <point x="-55.36842105263159" y="-196.6315789473684" type="curve"/>
      <point x="130.63157894736844" y="-192.0" type="line"/>
      <point x="140.3684210526316" y="-120.94736842105263"/>
      <point x="148.10526315789474" y="-59.23684210526316"/>
      <point x="158.5263157894737" y="15.184210526315788" type="curve" smooth="yes"/>
      <point x="163.60526315789474" y="39.868421052631575" type="line"/>
      <point x="89.8157894736842" y="39.868421052631575" type="line"/>
      <point x="105.44736842105263" y="5.894736842105261"/>
      <point x="137.26315789473682" y="-13.605263157894736"/>
      <point x="184.28947368421052" y="-13.605263157894736" type="curve" smooth="yes"/>
      <point x="222.5" y="-13.605263157894736"/>
      <point x="289.50000000000006" y="30.657894736842106"/>
      <point x="336.47368421052636" y="72.63157894736842" type="curve"/>
      <point x="349.36842105263156" y="72.63157894736842" type="line"/>
      <point x="352.0526315789474" y="0.0" type="line"/>
      <point x="497.8684210526316" y="0.0" type="line"/>
      <point x="498.8157894736842" y="61.13157894736842"/>
      <point x="500.1052631578948" y="115.1842105263158"/>
      <point x="501.7368421052632" y="165.73684210526318" type="curve"/>
      <point x="524.5263157894736" y="273.63157894736844" type="line"/>
      <point x="545.8157894736842" y="366.4736842105263"/>
      <point x="560.1578947368421" y="428.2105263157895"/>
      <point x="576.5" y="499.2631578947368" type="curve"/>
      <point x="404.6578947368421" y="499.2631578947368" type="line"/>
      <point x="393.60526315789474" y="428.2105263157895"/>
      <point x="383.5526315789474" y="364.15789473684214"/>
      <point x="372.15789473684214" y="291.3947368421053" type="curve"/>
      <point x="349.4210526315789" y="183.76315789473685" type="line"/>
      <point x="316.89473684210526" y="152.94736842105263"/>
      <point x="268.07894736842104" y="125.63157894736842"/>
      <point x="250.76315789473682" y="125.63157894736842" type="curve" smooth="yes"/>
      <point x="201.78947368421052" y="125.63157894736842"/>
      <point x="190.26315789473685" y="163.86842105263156"/>
      <point x="205.0263157894737" y="232.6578947368421" type="curve"/>
      <point x="217.10526315789474" y="291.3947368421053" type="line"/>
      <point x="234.44736842105263" y="365.47368421052636"/>
      <point x="250.44736842105266" y="432.8421052631579"/>
      <point x="267.44736842105266" y="503.89473684210526" type="curve"/>
      <point x="90.6578947368421" y="499.2631578947368" type="line"/>
      <point x="80.26315789473685" y="429.5263157894737"/>
      <point x="70.21052631578947" y="365.47368421052636"/>
      <point x="56.84210526315789" y="272.3157894736842" type="curve"/>
      <point x="4.184210526315784" y="23.736842105263158" type="line"/>
      <point x="-17.763157894736846" y="-59.23684210526316"/>
      <point x="-36.394736842105274" y="-125.57894736842105"/>
    </contour>
  </outline>
</glyph>
<glyph name="paragraph" format="2">
  <advance width="582.5263157894736"/>
  <unicode hex="00B6"/>
  <outline>
    <contour>
      <point x="256.6842105263158" y="280.7631578947368" type="curve" smooth="yes"/>
      <point x="270.8421052631579" y="280.7631578947368" type="line"/>
      <point x="336.1052631578948" y="713.0" type="line"/>
      <point x="307.2894736842105" y="713.0" type="line"/>
      <point x="188.6578947368421" y="713.0"/>
      <point x="105.26315789473685" y="641.421052631579"/>
      <point x="79.94736842105263" y="519.1842105263158" type="curve" smooth="yes"/>
      <point x="54.631578947368425" y="396.9736842105263"/>
      <point x="119.86842105263159" y="280.7631578947368"/>
    </contour>
    <contour>
      <point x="123.47368421052632" y="-175.97368421052633" type="curve"/>
      <point x="234.4473684210526" y="-175.97368421052633" type="line"/>
      <point x="257.1315789473684" y="-58.31578947368422"/>
      <point x="277.157894736842" y="45.71052631578948"/>
      <point x="297.84210526315786" y="154.02631578947367" type="curve"/>
      <point x="346.5" y="383.0" type="line"/>
      <point x="372.4736842105263" y="492.3421052631579"/>
      <point x="397.1052631578947" y="595.3157894736842"/>
      <point x="425.07894736842104" y="713.0" type="curve"/>
      <point x="320.7105263157895" y="713.0" type="line"/>
      <point x="295.7105263157895" y="595.3421052631579"/>
      <point x="273.7105263157895" y="491.6578947368421"/>
      <point x="250.71052631578948" y="383.0" type="curve"/>
      <point x="202.05263157894737" y="154.02631578947367" type="line"/>
      <point x="176.07894736842104" y="44.684210526315795"/>
      <point x="151.44736842105263" y="-58.289473684210535"/>
    </contour>
    <contour>
      <point x="294.92105263157896" y="-175.97368421052633" type="curve"/>
      <point x="405.89473684210526" y="-175.97368421052633" type="line"/>
      <point x="427.9210526315789" y="-58.31578947368422"/>
      <point x="447.2894736842105" y="45.71052631578948"/>
      <point x="467.3157894736842" y="154.02631578947367" type="curve"/>
      <point x="515.9736842105264" y="383.0" type="line"/>
      <point x="541.9473684210526" y="492.3421052631579"/>
      <point x="566.921052631579" y="597.0263157894736"/>
      <point x="594.5526315789474" y="713.0" type="curve"/>
      <point x="481.6052631578948" y="713.0" type="line"/>
      <point x="459.57894736842115" y="595.3421052631579"/>
      <point x="440.21052631578954" y="491.3157894736842"/>
      <point x="420.18421052631584" y="383.0" type="curve"/>
      <point x="371.5263157894737" y="154.02631578947367" type="line"/>
      <point x="346.21052631578954" y="44.684210526315795"/>
      <point x="322.23684210526324" y="-58.289473684210535"/>
    </contour>
    <contour>
      <point x="351.3157894736842" y="623.7894736842105" type="line"/>
      <point x="447.3684210526316" y="623.7894736842105" type="line"/>
      <point x="496.1842105263158" y="622.4736842105264"/>
      <point x="568.7631578947369" y="620.1578947368421"/>
      <point x="637.2894736842106" y="617.8421052631579" type="curve"/>
      <point x="657.4473684210527" y="713.0" type="line"/>
      <point x="588.2631578947369" y="713.0"/>
      <point x="515.3421052631578" y="713.0"/>
      <point x="465.8684210526316" y="713.0" type="curve"/>
      <point x="369.8157894736842" y="713.0" type="line"/>
    </contour>
  </outline>
</glyph>
